# 3ds Max Wavefront OBJ Exporter v0.97b - (c)2007 guruware
# File Created: 18.03.2020 02:28:35

#
# object NeveraAlta_Estrecha
#

v  -25.0000 0.0000 22.5000
v  -25.0000 0.0000 -22.5000
v  25.0000 0.0000 -22.5000
v  25.0000 0.0000 22.5000
v  -25.0000 120.0000 22.5000
v  25.0000 120.0000 22.5000
v  25.0000 120.0000 -22.5000
v  -25.0000 120.0000 -22.5000
v  25.0000 10.7279 22.5000
v  -25.0000 10.7279 22.5000
v  25.0000 10.7279 -22.5000
v  -25.0000 10.7279 -22.5000
v  25.0000 102.3866 -22.5000
v  25.0000 102.3866 22.5000
v  -25.0000 102.3866 -22.5000
v  -25.0000 102.3866 22.5000
v  22.5000 13.2279 -9.8745
v  22.5000 99.8866 -9.8745
v  -22.5000 99.8866 -9.8745
v  -22.5000 13.2279 -9.8745
v  -22.5000 13.2279 22.5000
v  -22.5000 99.8866 22.5000
v  22.5000 13.2279 22.5000
v  22.5000 99.8866 22.5000
v  23.5000 108.7578 24.9285
v  23.5000 113.6289 24.9285
v  -23.5000 113.6289 24.9285
v  -23.5000 108.7578 24.9285
v  23.5000 118.5000 22.5000
v  -23.5000 118.5000 22.5000
v  -23.5000 118.5000 23.8387
v  23.5000 118.5000 23.8387
v  -23.5000 113.6289 22.5000
v  -23.5000 108.7578 22.5000
v  -23.5000 103.8866 22.5000
v  23.5000 103.8866 22.5000
v  23.5000 103.8866 23.8387
v  -23.5000 103.8866 23.8387
v  23.5000 108.7578 22.5000
v  23.5000 113.6289 22.5000
v  -10.5434 2.2655 22.7604
v  -0.9553 2.2655 22.7604
v  -0.9553 4.4086 22.7604
v  -10.5434 4.4086 22.7604
v  11.4987 1.3102 23.5449
v  0.0000 1.3102 23.5449
v  0.0000 1.3102 21.2007
v  11.4987 1.3102 21.2007
v  22.9975 9.4177 23.5449
v  22.9975 5.3639 23.5449
v  22.9975 5.3639 21.2007
v  22.9975 9.4177 21.2007
v  -11.4987 9.4177 23.5449
v  0.0000 9.4177 23.5449
v  0.0000 9.4177 21.2007
v  -11.4987 9.4177 21.2007
v  -22.9975 1.3102 23.5449
v  -22.9975 5.3639 23.5449
v  -22.9975 5.3639 21.2007
v  -22.9975 1.3102 21.2007
v  12.4541 2.2655 22.7604
v  22.0422 2.2655 22.7604
v  22.0422 4.4086 22.7604
v  12.4541 4.4086 22.7604
v  0.9553 2.2655 22.7604
v  10.5434 2.2655 22.7604
v  10.5434 4.4086 22.7604
v  0.9553 4.4086 22.7604
v  -12.4541 8.4624 22.7604
v  -22.0422 8.4624 22.7604
v  -22.0422 6.3193 22.7604
v  -12.4541 6.3193 22.7604
v  -11.4987 1.3102 23.5449
v  -11.4987 1.3102 21.2007
v  22.9975 1.3102 21.2007
v  22.9975 1.3102 23.5449
v  11.4987 9.4177 23.5449
v  11.4987 9.4177 21.2007
v  -22.9975 9.4177 21.2007
v  -22.9975 9.4177 23.5449
v  -0.9553 6.3193 22.7604
v  -0.9553 8.4624 22.7604
v  -10.5434 8.4624 22.7604
v  -10.5434 6.3193 22.7604
v  22.0422 6.3193 22.7604
v  22.0422 8.4624 22.7604
v  12.4541 8.4624 22.7604
v  12.4541 6.3193 22.7604
v  10.5434 6.3193 22.7604
v  10.5434 8.4624 22.7604
v  0.9553 8.4624 22.7604
v  0.9553 6.3193 22.7604
v  -22.0422 4.4086 22.7604
v  -22.0422 2.2655 22.7604
v  -12.4541 2.2655 22.7604
v  -12.4541 4.4086 22.7604
v  -0.9553 2.2655 23.5449
v  -10.5434 2.2655 23.5449
v  0.0000 5.3639 23.5449
v  -0.9553 4.4086 23.5449
v  -11.4987 5.3639 23.5449
v  -10.5434 4.4086 23.5449
v  22.0422 2.2655 23.5449
v  12.4541 2.2655 23.5449
v  22.0422 4.4086 23.5449
v  11.4987 5.3639 23.5449
v  12.4541 4.4086 23.5449
v  10.5434 2.2655 23.5449
v  0.9553 2.2655 23.5449
v  10.5434 4.4086 23.5449
v  0.9553 4.4086 23.5449
v  -22.0422 8.4624 23.5449
v  -12.4541 8.4624 23.5449
v  -22.0422 6.3193 23.5449
v  -12.4541 6.3193 23.5449
v  -0.9553 8.4624 23.5449
v  -0.9553 6.3193 23.5449
v  -10.5434 8.4624 23.5449
v  -10.5434 6.3193 23.5449
v  22.0422 8.4624 23.5449
v  22.0422 6.3193 23.5449
v  12.4541 8.4624 23.5449
v  12.4541 6.3193 23.5449
v  10.5434 8.4624 23.5449
v  10.5434 6.3193 23.5449
v  0.9553 8.4624 23.5449
v  0.9553 6.3193 23.5449
v  -22.0422 2.2655 23.5449
v  -22.0422 4.4086 23.5449
v  -12.4541 2.2655 23.5449
v  -12.4541 4.4086 23.5449
v  -23.2012 78.3430 18.4515
v  23.3447 78.3430 18.4515
v  23.3447 79.6447 18.4515
v  -23.2012 79.6447 18.4515
v  -23.2012 78.3430 -10.7835
v  23.3447 78.3430 -10.7835
v  23.3447 79.6447 -10.7835
v  -23.2012 79.6447 -10.7835
# 139 vertices

vn -0.5774 -0.5774 0.5774
vn -0.5774 -0.5774 -0.5774
vn 0.5774 -0.5774 -0.5774
vn 0.5774 -0.5774 0.5774
vn -0.5774 0.5774 0.5774
vn 0.5774 0.5774 0.5774
vn 0.5774 0.5774 -0.5774
vn -0.5774 0.5774 -0.5774
vn 0.7071 0.0000 0.7071
vn -0.7071 0.0000 0.7071
vn 0.7071 0.0000 -0.7071
vn -0.7071 0.0000 -0.7071
vn 0.3015 0.3015 0.9045
vn 0.3015 -0.3015 0.9045
vn -0.3015 0.3015 0.9045
vn -0.3015 -0.3015 0.9045
vn 0.6832 -0.0802 0.7258
vn 0.6832 0.0802 0.7258
vn -0.6832 0.0802 0.7258
vn -0.6832 -0.0802 0.7258
vn 0.7071 0.7071 -0.0000
vn -0.7071 0.7071 -0.0000
vn -0.5898 0.6303 0.5048
vn 0.5898 0.6303 0.5048
vn -1.0000 0.0000 -0.0000
vn -0.7071 -0.7071 -0.0000
vn 0.7071 -0.7071 -0.0000
vn 0.5898 -0.6303 0.5048
vn -0.5898 -0.6303 0.5048
vn 1.0000 0.0000 -0.0000
vn 0.0000 -0.7071 0.7071
vn 0.0000 -1.0000 -0.0000
vn 0.0000 0.7071 0.7071
vn 0.0000 1.0000 -0.0000
vn 0.0000 0.0000 1.0000
# 35 vertex normals

vt 0.2209 0.2589 0.0000
vt 0.2209 0.0631 0.0000
vt 0.4384 0.0631 0.0000
vt 0.4384 0.2589 0.0000
vt 0.2209 0.7810 0.0000
vt 0.4384 0.7810 0.0000
vt 0.4384 0.9768 0.0000
vt 0.2209 0.9768 0.0000
vt 0.4384 0.3056 0.0000
vt 0.2209 0.3056 0.0000
vt 0.6342 0.2589 0.0000
vt 0.6342 0.3056 0.0000
vt 0.2205 0.2479 0.0000
vt 0.4380 0.2479 0.0000
vt 0.4380 0.2945 0.0000
vt 0.2205 0.2945 0.0000
vt 0.0251 0.2589 0.0000
vt 0.0251 0.3056 0.0000
vt 0.6342 0.7043 0.0000
vt 0.6342 0.7810 0.0000
vt 0.4384 0.7043 0.0000
vt 0.4380 0.6933 0.0000
vt 0.4380 0.7699 0.0000
vt 0.2205 0.7699 0.0000
vt 0.2205 0.6933 0.0000
vt 0.2209 0.7043 0.0000
vt 0.0251 0.7810 0.0000
vt 0.0251 0.7043 0.0000
vt 0.8897 0.1615 0.0000
vt 0.8897 0.4321 0.0000
vt 0.7492 0.4321 0.0000
vt 0.7492 0.1615 0.0000
vt 0.2318 0.3165 0.0000
vt 0.2318 0.6935 0.0000
vt 0.4275 0.3165 0.0000
vt 0.4275 0.6935 0.0000
vt 0.6482 0.4321 0.0000
vt 0.6482 0.1615 0.0000
vt 0.7492 0.0605 0.0000
vt 0.8897 0.0605 0.0000
vt 0.9908 0.1615 0.0000
vt 0.9908 0.4321 0.0000
vt 0.8897 0.5332 0.0000
vt 0.7492 0.5332 0.0000
vt 0.4877 0.9422 0.0000
vt 0.4877 0.9142 0.0000
vt 0.7579 0.9142 0.0000
vt 0.7579 0.9422 0.0000
vt 0.4877 0.8778 0.0000
vt 0.7579 0.8778 0.0000
vt 0.7579 0.8855 0.0000
vt 0.4877 0.8855 0.0000
vt 0.7719 0.9142 0.0000
vt 0.7719 0.9422 0.0000
vt 0.7579 0.9786 0.0000
vt 0.4877 0.9786 0.0000
vt 0.4877 0.9709 0.0000
vt 0.7579 0.9709 0.0000
vt 0.4737 0.9422 0.0000
vt 0.4737 0.9142 0.0000
vt 0.7719 0.9702 0.0000
vt 0.7642 0.9702 0.0000
vt 0.7642 0.8862 0.0000
vt 0.7719 0.8862 0.0000
vt 0.4737 0.8862 0.0000
vt 0.4814 0.8862 0.0000
vt 0.4814 0.9702 0.0000
vt 0.4737 0.9702 0.0000
vt 0.0862 0.9518 0.0000
vt 0.1400 0.9518 0.0000
vt 0.1400 0.9628 0.0000
vt 0.0862 0.9628 0.0000
vt 0.1654 0.8432 0.0000
vt 0.1654 0.8893 0.0000
vt 0.1560 0.8893 0.0000
vt 0.1560 0.8432 0.0000
vt 0.1979 0.7972 0.0000
vt 0.1816 0.7972 0.0000
vt 0.1816 0.7878 0.0000
vt 0.1979 0.7878 0.0000
vt 0.1979 0.9354 0.0000
vt 0.1979 0.8893 0.0000
vt 0.2073 0.8893 0.0000
vt 0.2073 0.9354 0.0000
vt 0.1654 0.9815 0.0000
vt 0.1816 0.9815 0.0000
vt 0.1816 0.9909 0.0000
vt 0.1654 0.9909 0.0000
vt 0.0860 0.9339 0.0000
vt 0.1398 0.9339 0.0000
vt 0.1398 0.9449 0.0000
vt 0.0860 0.9449 0.0000
vt 0.0859 0.9167 0.0000
vt 0.1398 0.9167 0.0000
vt 0.1398 0.9277 0.0000
vt 0.0859 0.9277 0.0000
vt 0.0794 0.9801 0.0000
vt 0.0255 0.9801 0.0000
vt 0.0255 0.9691 0.0000
vt 0.0794 0.9691 0.0000
vt 0.1654 0.9354 0.0000
vt 0.1560 0.9815 0.0000
vt 0.1560 0.9354 0.0000
vt 0.1560 0.7972 0.0000
vt 0.1654 0.7972 0.0000
vt 0.1979 0.8432 0.0000
vt 0.2073 0.7972 0.0000
vt 0.2073 0.8432 0.0000
vt 0.2073 0.9815 0.0000
vt 0.1979 0.9815 0.0000
vt 0.1400 0.9690 0.0000
vt 0.1400 0.9800 0.0000
vt 0.0862 0.9800 0.0000
vt 0.0862 0.9690 0.0000
vt 0.1654 0.7878 0.0000
vt 0.1979 0.9909 0.0000
vt 0.0789 0.9346 0.0000
vt 0.0789 0.9456 0.0000
vt 0.0250 0.9456 0.0000
vt 0.0250 0.9346 0.0000
vt 0.0798 0.9177 0.0000
vt 0.0798 0.9287 0.0000
vt 0.0259 0.9287 0.0000
vt 0.0259 0.9177 0.0000
vt 0.0255 0.9629 0.0000
vt 0.0255 0.9519 0.0000
vt 0.0794 0.9519 0.0000
vt 0.0794 0.9629 0.0000
vt 0.1692 0.8932 0.0000
vt 0.1692 0.9316 0.0000
vt 0.1816 0.8893 0.0000
vt 0.1778 0.8932 0.0000
vt 0.1816 0.9354 0.0000
vt 0.1778 0.9316 0.0000
vt 0.1692 0.8010 0.0000
vt 0.1692 0.8394 0.0000
vt 0.1778 0.8010 0.0000
vt 0.1816 0.8432 0.0000
vt 0.1778 0.8394 0.0000
vt 0.1692 0.8471 0.0000
vt 0.1692 0.8855 0.0000
vt 0.1778 0.8471 0.0000
vt 0.1778 0.8855 0.0000
vt 0.1940 0.9777 0.0000
vt 0.1940 0.9393 0.0000
vt 0.1854 0.9777 0.0000
vt 0.1854 0.9393 0.0000
vt 0.1940 0.8932 0.0000
vt 0.1854 0.8932 0.0000
vt 0.1940 0.9316 0.0000
vt 0.1854 0.9316 0.0000
vt 0.1940 0.8010 0.0000
vt 0.1854 0.8010 0.0000
vt 0.1940 0.8394 0.0000
vt 0.1854 0.8394 0.0000
vt 0.1940 0.8471 0.0000
vt 0.1854 0.8471 0.0000
vt 0.1940 0.8855 0.0000
vt 0.1854 0.8855 0.0000
vt 0.1692 0.9777 0.0000
vt 0.1778 0.9777 0.0000
vt 0.1692 0.9393 0.0000
vt 0.1778 0.9393 0.0000
vt 0.0842 0.9499 0.0000
vt 0.1419 0.9499 0.0000
vt 0.1419 0.9648 0.0000
vt 0.0842 0.9648 0.0000
vt 0.0841 0.9319 0.0000
vt 0.1418 0.9319 0.0000
vt 0.1418 0.9468 0.0000
vt 0.0841 0.9468 0.0000
vt 0.0840 0.9148 0.0000
vt 0.1417 0.9148 0.0000
vt 0.1417 0.9297 0.0000
vt 0.0840 0.9297 0.0000
vt 0.0813 0.9820 0.0000
vt 0.0236 0.9820 0.0000
vt 0.0236 0.9671 0.0000
vt 0.0813 0.9671 0.0000
vt 0.1419 0.9671 0.0000
vt 0.1419 0.9820 0.0000
vt 0.0842 0.9820 0.0000
vt 0.0842 0.9671 0.0000
vt 0.0808 0.9327 0.0000
vt 0.0808 0.9476 0.0000
vt 0.0231 0.9476 0.0000
vt 0.0231 0.9327 0.0000
vt 0.0817 0.9157 0.0000
vt 0.0817 0.9306 0.0000
vt 0.0240 0.9306 0.0000
vt 0.0240 0.9157 0.0000
vt 0.0236 0.9648 0.0000
vt 0.0236 0.9499 0.0000
vt 0.0813 0.9499 0.0000
vt 0.0813 0.9648 0.0000
vt 0.0842 0.8059 0.0000
vt 0.0842 0.8976 0.0000
vt 0.0816 0.8976 0.0000
vt 0.0816 0.8059 0.0000
vt 0.1417 0.8059 0.0000
vt 0.1417 0.8976 0.0000
vt 0.0241 0.8976 0.0000
vt 0.0241 0.8059 0.0000
# 203 texture coords

o NeveraAlta_Estrecha
g NeveraAlta_Estrecha
s 2
f 1/1/1 2/2/2 3/3/3 4/4/4 
s 4
f 5/5/5 6/6/6 7/7/7 8/8/8 
s 8
f 1/1/1 4/4/4 9/9/9 10/10/10 
s 16
f 4/4/4 3/11/3 11/12/11 9/9/9 
s 32
f 3/13/3 2/14/2 12/15/12 11/16/11 
s 64
f 2/17/2 1/1/1 10/10/10 12/18/12 
s 16
f 13/19/11 7/20/7 6/6/6 14/21/9 
s 32
f 15/22/12 8/23/8 7/24/7 13/25/11 
s 64
f 16/26/10 5/5/5 8/27/8 15/28/12 
s 8
f 17/29/5 18/30/1 19/31/4 20/32/6 
s 16
f 11/12/11 13/19/11 14/21/9 9/9/9 
s 32
f 12/15/12 15/22/12 13/25/11 11/16/11 
s 64
f 10/10/10 16/26/10 15/28/12 12/18/12 
s off
f 16/26/10 10/10/10 21/33/13 22/34/14 
f 10/10/10 9/9/9 23/35/15 21/33/13 
f 9/9/9 14/21/9 24/36/16 23/35/15 
f 14/21/9 16/26/10 22/34/14 24/36/16 
f 22/37/14 21/38/13 20/32/6 19/31/4 
f 21/39/13 23/40/15 17/29/5 20/32/6 
f 23/41/15 24/42/16 18/30/1 17/29/5 
f 24/43/16 22/44/14 19/31/4 18/30/1 
f 5/5/5 16/26/10 14/21/9 6/6/6 
s 8
f 25/45/17 26/46/18 27/47/19 28/48/20 
s off
f 29/49/21 30/50/22 31/51/23 32/52/24 
f 33/53/25 34/54/25 28/48/20 27/47/19 
f 35/55/26 36/56/27 37/57/28 38/58/29 
f 39/59/30 40/60/30 26/46/18 25/45/17 
s 8
f 26/46/18 32/52/24 31/51/23 27/47/19 
f 28/48/20 38/58/29 37/57/28 25/45/17 
s off
f 34/54/25 35/61/26 38/62/29 28/48/20 
f 27/47/19 31/63/23 30/64/22 33/53/25 
f 40/60/30 29/65/21 32/66/24 26/46/18 
f 25/45/17 37/67/28 36/68/27 39/59/30 
s 8
f 41/69/6 42/70/5 43/71/1 44/72/4 
s off
f 45/73/31 46/74/31 47/75/32 48/76/32 
f 49/77/6 50/78/9 51/79/30 52/80/21 
f 53/81/33 54/82/33 55/83/34 56/84/34 
f 57/85/1 58/86/10 59/87/25 60/88/26 
s 8
f 61/89/6 62/90/5 63/91/1 64/92/4 
f 65/93/6 66/94/5 67/95/1 68/96/4 
f 69/97/1 70/98/4 71/99/6 72/100/5 
s off
f 73/101/31 57/85/1 60/102/26 74/103/32 
f 46/74/31 73/101/31 74/103/32 47/75/32 
f 48/76/32 75/104/27 76/105/4 45/73/31 
f 77/106/33 49/77/6 52/107/21 78/108/34 
f 54/82/33 77/106/33 78/108/34 55/83/34 
f 56/84/34 79/109/22 80/110/5 53/81/33 
s 8
f 81/111/5 82/112/1 83/113/4 84/114/6 
s off
f 50/78/9 76/105/4 75/115/27 51/79/30 
f 58/86/10 80/110/5 79/116/22 59/87/25 
s 8
f 85/117/5 86/118/1 87/119/4 88/120/6 
f 89/121/5 90/122/1 91/123/4 92/124/6 
f 93/125/4 94/126/6 95/127/5 96/128/1 
s off
f 73/101/31 46/74/31 97/129/15 98/130/13 
f 46/74/31 99/131/35 100/132/16 97/129/15 
f 99/131/35 101/133/35 102/134/14 100/132/16 
f 101/133/35 73/101/31 98/130/13 102/134/14 
f 45/73/31 76/105/4 103/135/15 104/136/13 
f 76/105/4 50/78/9 105/137/16 103/135/15 
f 50/78/9 106/138/35 107/139/14 105/137/16 
f 106/138/35 45/73/31 104/136/13 107/139/14 
f 46/74/31 45/73/31 108/140/15 109/141/13 
f 45/73/31 106/138/35 110/142/16 108/140/15 
f 106/138/35 99/131/35 111/143/14 110/142/16 
f 99/131/35 46/74/31 109/141/13 111/143/14 
f 53/81/33 80/110/5 112/144/14 113/145/16 
f 80/110/5 58/86/10 114/146/13 112/144/14 
f 58/86/10 101/133/35 115/147/15 114/146/13 
f 101/133/35 53/81/33 113/145/16 115/147/15 
f 99/131/35 54/82/33 116/148/16 117/149/15 
f 54/82/33 53/81/33 118/150/14 116/148/16 
f 53/81/33 101/133/35 119/151/13 118/150/14 
f 101/133/35 99/131/35 117/149/15 119/151/13 
f 50/78/9 49/77/6 120/152/16 121/153/15 
f 49/77/6 77/106/33 122/154/14 120/152/16 
f 77/106/33 106/138/35 123/155/13 122/154/14 
f 106/138/35 50/78/9 121/153/15 123/155/13 
f 106/138/35 77/106/33 124/156/16 125/157/15 
f 77/106/33 54/82/33 126/158/14 124/156/16 
f 54/82/33 99/131/35 127/159/13 126/158/14 
f 99/131/35 106/138/35 125/157/15 127/159/13 
f 58/86/10 57/85/1 128/160/13 129/161/14 
f 57/85/1 73/101/31 130/162/15 128/160/13 
f 73/101/31 101/133/35 131/163/16 130/162/15 
f 101/133/35 58/86/10 129/161/14 131/163/16 
f 98/164/13 97/165/15 42/70/5 41/69/6 
f 97/165/15 100/166/16 43/71/1 42/70/5 
f 100/166/16 102/167/14 44/72/4 43/71/1 
f 102/167/14 98/164/13 41/69/6 44/72/4 
f 104/168/13 103/169/15 62/90/5 61/89/6 
f 103/169/15 105/170/16 63/91/1 62/90/5 
f 105/170/16 107/171/14 64/92/4 63/91/1 
f 107/171/14 104/168/13 61/89/6 64/92/4 
f 109/172/13 108/173/15 66/94/5 65/93/6 
f 108/173/15 110/174/16 67/95/1 66/94/5 
f 110/174/16 111/175/14 68/96/4 67/95/1 
f 111/175/14 109/172/13 65/93/6 68/96/4 
f 113/176/16 112/177/14 70/98/4 69/97/1 
f 112/177/14 114/178/13 71/99/6 70/98/4 
f 114/178/13 115/179/15 72/100/5 71/99/6 
f 115/179/15 113/176/16 69/97/1 72/100/5 
f 117/180/15 116/181/16 82/112/1 81/111/5 
f 116/181/16 118/182/14 83/113/4 82/112/1 
f 118/182/14 119/183/13 84/114/6 83/113/4 
f 119/183/13 117/180/15 81/111/5 84/114/6 
f 121/184/15 120/185/16 86/118/1 85/117/5 
f 120/185/16 122/186/14 87/119/4 86/118/1 
f 122/186/14 123/187/13 88/120/6 87/119/4 
f 123/187/13 121/184/15 85/117/5 88/120/6 
f 125/188/15 124/189/16 90/122/1 89/121/5 
f 124/189/16 126/190/14 91/123/4 90/122/1 
f 126/190/14 127/191/13 92/124/6 91/123/4 
f 127/191/13 125/188/15 89/121/5 92/124/6 
f 129/192/14 128/193/13 94/126/6 93/125/4 
f 128/193/13 130/194/15 95/127/5 94/126/6 
f 130/194/15 131/195/16 96/128/1 95/127/5 
f 131/195/16 129/192/14 93/125/4 96/128/1 
s 4
f 132/196/31 133/197/31 134/198/33 135/199/33 
s 8
f 136/200/32 137/201/32 133/197/31 132/196/31 
s 32
f 138/202/34 139/203/34 135/199/33 134/198/33 
# 120 polygons

