# 3ds Max Wavefront OBJ Exporter v0.97b - (c)2007 guruware
# File Created: 18.03.2020 13:27:52

#
# object Caja_Mascarillas
#

v  -12.4506 27.5768 0.0000
v  12.4506 27.5768 0.0000
v  12.4506 -27.5768 0.0000
v  -12.4506 -27.5768 0.0000
v  -12.4506 27.5768 13.2540
v  -12.4506 -27.5768 13.2540
v  12.4506 -27.5768 13.2540
v  12.4506 27.5768 13.2540
# 8 vertices

vn -0.5774 0.5774 -0.5774
vn 0.5774 0.5774 -0.5774
vn 0.5774 -0.5774 -0.5774
vn -0.5774 -0.5774 -0.5774
vn -0.5774 0.5774 0.5774
vn -0.5774 -0.5774 0.5774
vn 0.5774 -0.5774 0.5774
vn 0.5774 0.5774 0.5774
# 8 vertex normals

vt 0.5907 0.5118 0.0000
vt 0.9558 0.5118 0.0000
vt 0.9558 0.9800 0.0000
vt 0.5907 0.9800 0.0000
vt 0.1139 0.1139 0.0000
vt 0.5820 0.1139 0.0000
vt 0.5820 0.4790 0.0000
vt 0.1139 0.4790 0.0000
vt 0.1139 0.0200 0.0000
vt 0.5820 0.0200 0.0000
vt 0.6759 0.1139 0.0000
vt 0.6759 0.4790 0.0000
vt 0.5820 0.5729 0.0000
vt 0.1139 0.5729 0.0000
vt 0.0200 0.4790 0.0000
vt 0.0200 0.1139 0.0000
# 16 texture coords

o Caja_Mascarillas
g Caja_Mascarillas
s 2
f 1/1/1 2/2/2 3/3/3 4/4/4 
s 4
f 5/5/5 6/6/6 7/7/7 8/8/8 
s 8
f 1/9/1 4/10/4 6/6/6 5/5/5 
s 16
f 4/11/4 3/12/3 7/7/7 6/6/6 
s 32
f 3/13/3 2/14/2 8/8/8 7/7/7 
s 64
f 2/15/2 1/16/1 5/5/5 8/8/8 
# 6 polygons

