# This file uses centimeters as units for non-parametric coordinates.

mtllib Mantequilla.mtl
g default
v -1.287895 0.840012 -0.001603
v -0.515235 1.612670 -0.001603
v -0.901565 1.509153 -0.001603
v -1.184378 1.226341 -0.001603
v -1.559610 1.151010 -2.193694
v -1.434254 1.618849 -2.193694
v -1.091774 1.961328 -2.193694
v -0.623938 2.086685 -2.193694
v 1.287895 0.840012 -0.001603
v 1.184378 1.226341 -0.001603
v 0.901565 1.509153 -0.001603
v 0.515235 1.612670 -0.001603
v 1.559610 1.151010 -2.193694
v 0.623938 2.086685 -2.193694
v 1.091774 1.961328 -2.193694
v 1.434254 1.618849 -2.193694
v -1.091774 -3.229499 -2.193694
v -1.434254 -2.887018 -2.193694
v -1.559610 -2.419183 -2.193694
v -0.623938 -3.354854 -2.193694
v -1.287895 -2.108183 -0.001603
v -1.184378 -2.494512 -0.001603
v -0.901565 -2.777327 -0.001603
v -0.515235 -2.880841 -0.001603
v 1.434254 -2.887018 -2.193694
v 1.091774 -3.229499 -2.193694
v 0.623938 -3.354854 -2.193694
v 1.559610 -2.419183 -2.193694
v 1.287895 -2.108183 -0.001603
v 0.515235 -2.880841 -0.001603
v 0.901565 -2.777327 -0.001603
v 1.184378 -2.494512 -0.001603
v 1.237620 -3.576211 -2.193694
v 1.625850 -3.187979 -2.193694
v 0.707287 -3.718309 -2.193694
v -0.707287 -3.718309 -2.193694
v -1.237620 -3.576211 -2.193694
v -1.625850 -3.187979 -2.193694
v -1.942922 -2.657646 -2.193694
v -1.942922 1.389474 -2.193694
v -1.625850 1.919808 -2.193694
v -1.237620 2.308034 -2.193694
v -0.707287 2.450139 -2.193694
v 0.707287 2.450139 -2.193694
v 1.237620 2.308034 -2.193694
v 1.625850 1.919808 -2.193694
v 1.901998 1.389474 -2.193694
v 1.901998 -2.657646 -2.193694
v 1.237620 -3.576211 -2.375112
v 1.625850 -3.187979 -2.375112
v 0.707287 -3.718309 -2.375112
v -0.707287 -3.718309 -2.375112
v -1.237620 -3.576211 -2.375112
v -1.625850 -3.187979 -2.375112
v -1.942922 -2.657646 -2.375112
v -1.942922 1.389474 -2.375112
v -1.625850 1.919808 -2.375112
v -1.237620 2.308034 -2.375112
v -0.707287 2.450139 -2.375112
v 0.707287 2.450139 -2.375112
v 1.237620 2.308034 -2.375112
v 1.625850 1.919808 -2.375112
v 1.901998 1.389474 -2.375112
v 1.901998 -2.657646 -2.375112
v 1.087676 -3.219762 -2.636796
v 1.428871 -2.878563 -2.636796
v 0.621596 -3.344642 -2.636796
v -0.621596 -3.344642 -2.636796
v -1.087676 -3.219762 -2.636796
v -1.428871 -2.878563 -2.636796
v -1.553757 -2.412486 -2.636796
v -1.553757 1.144310 -2.636796
v -1.428871 1.610391 -2.636796
v -1.087676 1.951584 -2.636796
v -0.621596 2.076471 -2.636796
v 0.621596 2.076471 -2.636796
v 1.087676 1.951584 -2.636796
v 1.428871 1.610391 -2.636796
v 1.553757 1.144310 -2.636796
v 1.553757 -2.412486 -2.636796
v 0.890325 -2.750606 -2.636796
v 1.169611 -2.471316 -2.636796
v 0.508811 -2.852831 -2.636796
v -0.508811 -2.852831 -2.636796
v -0.890325 -2.750606 -2.636796
v -1.169611 -2.471316 -2.636796
v -1.271837 -2.089804 -2.636796
v -1.271837 0.821630 -2.636796
v -1.169611 1.203144 -2.636796
v -0.890325 1.482430 -2.636796
v -0.508811 1.584657 -2.636796
v 0.508811 1.584657 -2.636796
v 0.890325 1.482430 -2.636796
v 1.169611 1.203144 -2.636796
v 1.271837 0.821630 -2.636796
v 1.271837 -2.089804 -2.636796
v 0.795703 -2.525667 -2.432725
v 1.045307 -2.276059 -2.432725
v 0.454736 -2.617026 -2.432725
v -0.454736 -2.617026 -2.432725
v -0.795703 -2.525667 -2.432725
v -1.045307 -2.276059 -2.432725
v -1.136669 -1.935094 -2.432725
v -1.136669 0.666919 -2.432725
v -1.045307 1.007887 -2.432725
v -0.795703 1.257491 -2.432725
v -0.454736 1.348854 -2.432725
v 0.454736 1.348854 -2.432725
v 0.795703 1.257491 -2.432725
v 1.045307 1.007887 -2.432725
v 1.136669 0.666919 -2.432725
v 1.136669 -1.935094 -2.432725
vt 0.975777 0.485051
vt 0.208784 0.535540
vt 0.854505 0.238638
vt 0.975771 0.371332
vt 0.760577 0.003915
vt 0.691523 0.485065
vt 0.691517 0.371346
vt 0.285464 0.123479
vt 0.926889 0.286067
vt 0.230735 0.715457
vt 0.924900 0.044262
vt 0.740390 0.286076
vt 0.740405 0.570330
vt 0.228284 0.295475
vt 0.690182 0.198291
vt 0.926904 0.570321
vt 0.699618 0.218471
vt 0.951342 0.558896
vt 0.725392 0.233242
vt 0.969231 0.527685
vt 0.889711 0.233227
vt 0.969221 0.328698
vt 0.915482 0.218451
vt 0.951329 0.297489
vt 0.715965 0.558908
vt 0.232588 0.273617
vt 0.698073 0.527698
vt 0.240966 0.245117
vt 0.698063 0.328712
vt 0.298505 0.909667
vt 0.715952 0.297501
vt 0.285353 0.883031
vt 0.735729 0.335415
vt 0.587279 0.133393
vt 0.592580 0.163088
vt 0.592098 0.244078
vt 0.586614 0.273404
vt 0.573156 0.294423
vt 0.555628 0.302031
vt 0.421905 0.301816
vt 0.404744 0.294035
vt 0.391876 0.272590
vt 0.386620 0.242886
vt 0.387223 0.161944
vt 0.392731 0.132650
vt 0.406197 0.111659
vt 0.423709 0.104052
vt 0.557253 0.104192
vt 0.670024 0.073076
vt 0.641003 0.031568
vt 0.686595 0.131068
vt 0.686191 0.276804
vt 0.668816 0.333942
vt 0.640088 0.374816
vt 0.600458 0.404960
vt 0.377168 0.404969
vt 0.337206 0.374258
vt 0.308797 0.332495
vt 0.292521 0.274530
vt 0.293216 0.128906
vt 0.310812 0.071828
vt 0.340013 0.031200
vt 0.378456 0.004087
vt 0.602258 0.003906
vt 0.655390 0.080478
vt 0.629913 0.043733
vt 0.670178 0.133162
vt 0.669805 0.274488
vt 0.654196 0.326585
vt 0.628717 0.362999
vt 0.596485 0.389207
vt 0.380853 0.388981
vt 0.348684 0.362318
vt 0.323509 0.325253
vt 0.308948 0.272521
vt 0.309590 0.131298
vt 0.325354 0.079306
vt 0.351073 0.043219
vt 0.382247 0.019915
vt 0.598762 0.019952
vt 0.629312 0.100986
vt 0.609292 0.070424
vt 0.639912 0.144221
vt 0.639184 0.263112
vt 0.628234 0.305977
vt 0.607905 0.336166
vt 0.583396 0.347422
vt 0.394011 0.347258
vt 0.369643 0.335586
vt 0.349723 0.304900
vt 0.339246 0.261608
vt 0.340179 0.142790
vt 0.351217 0.100014
vt 0.371600 0.069945
vt 0.395966 0.058618
vt 0.585043 0.058731
vt 0.606592 0.120527
vt 0.588999 0.094470
vt 0.614596 0.156274
vt 0.614016 0.250920
vt 0.605666 0.286379
vt 0.587661 0.312000
vt 0.566055 0.322710
vt 0.411494 0.322660
vt 0.390078 0.311532
vt 0.372525 0.285424
vt 0.364589 0.249646
vt 0.365320 0.155052
vt 0.373719 0.119647
vt 0.391739 0.094077
vt 0.413291 0.083354
vt 0.567622 0.083342
vt 0.100109 0.963838
vt 0.090426 0.938658
vt 0.116052 0.003906
vt 0.100244 0.044039
vt 0.046358 0.191339
vt 0.060610 0.150628
vt 0.036212 0.225852
vt 0.031001 0.252321
vt 0.033968 0.760910
vt 0.027347 0.734758
vt 0.021742 0.699223
vt 0.017195 0.656330
vt 0.007386 0.543035
vt 0.004492 0.499998
vt 0.003906 0.464029
vt 0.005934 0.437128
vt 0.915464 0.024082
vt 0.889690 0.009310
vt 0.854484 0.003906
vt 0.252735 0.211498
vt 0.725371 0.009325
vt 0.699600 0.024101
vt 0.690168 0.044283
vt 0.225267 0.693861
vt 0.924914 0.198269
vt 0.220639 0.664518
vt 0.216884 0.629097
vt 0.206394 0.500001
vt 0.760598 0.238646
vt 0.205910 0.470299
vt 0.207585 0.448085
vt 0.277357 0.862238
vt 0.700230 0.280041
vt 0.727932 0.254875
vt 0.939345 0.254864
vt 0.967049 0.280028
vt 0.987331 0.315406
vt 0.994757 0.363735
vt 0.994763 0.492645
vt 0.987343 0.540975
vt 0.967064 0.576355
vt 0.939362 0.605251
vt 0.727949 0.605262
vt 0.700245 0.576369
vt 0.679962 0.540990
vt 0.672537 0.492661
vt 0.672531 0.363751
vt 0.679951 0.315422
vt 0.574393 0.111963
vt 0.727406 0.353227
vt 0.727426 0.489151
vt 0.735754 0.506961
vt 0.758503 0.519996
vt 0.789576 0.524764
vt 0.872456 0.524752
vt 0.903527 0.519975
vt 0.926272 0.506933
vt 0.934595 0.489120
vt 0.934575 0.353197
vt 0.926247 0.335387
vt 0.903498 0.322351
vt 0.872425 0.317583
vt 0.789545 0.317595
vt 0.758474 0.322372
vt 0.116036 0.996094
vt 0.298518 0.090339
vn -0.073816 0.973981 0.214273
vn -0.068631 0.974397 0.214105
vn 0.068631 0.974397 0.214105
vn 0.073816 0.973981 0.214273
vn -0.068629 -0.974397 0.214104
vn -0.073815 -0.973981 0.214272
vn 0.073815 -0.973981 0.214272
vn 0.068629 -0.974397 0.214104
vn 0.991302 0.032612 0.127501
vn 0.991473 0.029095 0.127023
vn 0.991473 -0.029095 0.127024
vn 0.991302 -0.032612 0.127501
vn -0.991302 -0.032612 0.127501
vn -0.991473 -0.029095 0.127023
vn -0.991473 0.029095 0.127023
vn -0.991302 0.032612 0.127501
vn -0.850947 0.491587 0.185021
vn -0.851215 0.491140 0.184972
vn -0.482161 0.848802 0.216924
vn -0.494239 0.841922 0.216553
vn 0.482161 0.848802 0.216924
vn 0.494239 0.841922 0.216553
vn 0.850947 0.491587 0.185021
vn 0.851215 0.491140 0.184972
vn -0.851215 -0.491140 0.184971
vn -0.850947 -0.491586 0.185020
vn -0.494239 -0.841922 0.216552
vn -0.482161 -0.848802 0.216924
vn 0.494239 -0.841922 0.216552
vn 0.482161 -0.848802 0.216924
vn 0.851215 -0.491140 0.184971
vn 0.850947 -0.491586 0.185020
vn 0.000000 0.000000 -1.000000
vn 0.000000 0.000000 -1.000000
vn 0.000000 0.000000 -1.000000
vn 0.000000 0.000000 -1.000000
vn 0.000000 0.000000 -1.000000
vn 0.000000 0.000000 -1.000000
vn 0.000000 0.000000 -1.000000
vn 0.000000 0.000000 -1.000000
vn 0.000000 0.000000 -1.000000
vn 0.000000 0.000000 -1.000000
vn 0.000000 0.000000 -1.000000
vn 0.000000 0.000000 -1.000000
vn 0.000000 0.000000 -1.000000
vn 0.000000 0.000000 -1.000000
vn 0.000000 0.000000 -1.000000
vn 0.000000 0.000000 -1.000000
vn 0.000000 -0.000000 1.000000
vn 0.000000 -0.000000 1.000000
vn 0.000000 -0.000000 1.000000
vn 0.000000 -0.000000 1.000000
vn 0.000000 -0.000000 1.000000
vn 0.000000 -0.000000 1.000000
vn 0.000000 -0.000000 1.000000
vn 0.000000 -0.000000 1.000000
vn 0.000000 -0.000000 1.000000
vn 0.000000 -0.000000 1.000000
vn 0.000000 -0.000000 1.000000
vn 0.000000 -0.000000 1.000000
vn 0.000000 -0.000000 1.000000
vn 0.000000 -0.000000 1.000000
vn 0.000000 -0.000000 1.000000
vn 0.000000 -0.000000 1.000000
vn 0.000000 0.000000 1.000000
vn 0.000000 0.000000 1.000000
vn 0.000000 0.000000 1.000000
vn 0.000000 0.000000 1.000000
vn 0.000000 0.000000 1.000000
vn 0.000000 0.000000 1.000000
vn 0.000000 0.000000 1.000000
vn 0.000000 0.000000 1.000000
vn 0.000000 0.000000 1.000000
vn 0.000000 0.000000 1.000000
vn 0.000000 0.000000 1.000000
vn 0.000000 0.000000 1.000000
vn 0.000000 0.000000 1.000000
vn 0.000000 0.000000 1.000000
vn 0.000000 0.000000 1.000000
vn 0.000000 0.000000 1.000000
vn 0.000000 0.000000 1.000000
vn 0.000000 0.000000 1.000000
vn 0.000000 0.000000 1.000000
vn 0.000000 0.000000 1.000000
vn 0.000000 0.000000 1.000000
vn 0.000000 0.000000 1.000000
vn 0.000000 0.000000 1.000000
vn 0.000000 0.000000 1.000000
vn 0.000000 0.000000 1.000000
vn 0.000000 0.000000 1.000000
vn 0.000000 0.000000 1.000000
vn 0.000000 0.000000 1.000000
vn 0.000000 0.000000 1.000000
vn 0.000000 0.000000 1.000000
vn 0.000000 0.000000 1.000000
vn 0.000000 0.000000 1.000000
vn 0.000000 -0.000000 1.000000
vn 0.000000 -0.000000 1.000000
vn 0.000000 -0.000000 1.000000
vn 0.000000 -0.000000 1.000000
vn 0.000000 0.000000 1.000000
vn 0.000000 0.000000 1.000000
vn 0.000000 0.000000 1.000000
vn 0.000000 0.000000 1.000000
vn 0.000000 0.000000 1.000000
vn 0.000000 0.000000 1.000000
vn 0.000000 0.000000 1.000000
vn 0.000000 0.000000 1.000000
vn 0.000000 0.000000 1.000000
vn 0.000000 0.000000 1.000000
vn 0.000000 0.000000 1.000000
vn 0.000000 0.000000 1.000000
vn 0.000000 0.000000 1.000000
vn 0.000000 0.000000 1.000000
vn 0.000000 0.000000 1.000000
vn 0.000000 0.000000 1.000000
vn 0.000000 0.000000 1.000000
vn 0.000000 0.000000 1.000000
vn 0.810273 -0.586053 -0.000000
vn 0.499998 -0.866026 -0.000000
vn 0.402527 -0.664778 -0.629319
vn 0.658617 -0.442903 -0.608325
vn 0.072867 -0.997342 -0.000000
vn 0.063156 -0.777473 -0.625737
vn -0.072867 -0.997342 0.000000
vn -0.063156 -0.777473 -0.625737
vn -0.499998 -0.866026 0.000000
vn -0.402527 -0.664778 -0.629319
vn -0.793160 -0.609013 0.000000
vn -0.640184 -0.450316 -0.622399
vn -0.997610 -0.069103 0.000000
vn -0.786543 -0.045759 -0.615838
vn -0.997610 0.069103 0.000000
vn -0.786543 0.045759 -0.615838
vn -0.793159 0.609015 0.000000
vn -0.640182 0.450317 -0.622400
vn -0.499999 0.866026 0.000000
vn -0.402527 0.664777 -0.629320
vn -0.072871 0.997341 0.000000
vn -0.063159 0.777472 -0.625738
vn 0.072871 0.997341 0.000000
vn 0.063159 0.777472 -0.625738
vn 0.499999 0.866026 0.000000
vn 0.402527 0.664777 -0.629320
vn 0.810272 0.586055 0.000000
vn 0.658616 0.442904 -0.608327
vn 0.998185 0.060218 0.000000
vn 0.817701 0.043825 -0.573972
vn 0.998185 -0.060218 -0.000000
vn 0.817701 -0.043825 -0.573973
vn 0.265314 -0.495567 -0.827056
vn 0.487490 -0.319909 -0.812411
vn 0.034468 -0.567978 -0.822322
vn -0.034468 -0.567978 -0.822322
vn -0.265314 -0.495567 -0.827056
vn -0.472572 -0.321285 -0.820641
vn -0.555072 -0.025580 -0.831409
vn -0.555072 0.025580 -0.831409
vn -0.472570 0.321285 -0.820642
vn -0.265315 0.495566 -0.827057
vn -0.034470 0.567976 -0.822323
vn 0.034470 0.567976 -0.822323
vn 0.265315 0.495566 -0.827057
vn 0.487488 0.319909 -0.812412
vn 0.596575 0.024258 -0.802191
vn 0.596575 -0.024259 -0.802191
vn 0.000000 -0.000000 -1.000000
vn 0.000000 -0.000000 -1.000000
vn 0.000000 -0.000000 -1.000000
vn 0.000000 -0.000000 -1.000000
vn 0.000000 0.000000 -1.000000
vn 0.000000 0.000000 -1.000000
vn 0.000000 0.000000 -1.000000
vn 0.000000 0.000000 -1.000000
vn 0.000000 -0.000000 -1.000000
vn 0.000000 -0.000000 -1.000000
vn 0.000000 -0.000000 -1.000000
vn 0.000000 -0.000000 -1.000000
vn 0.000000 0.000000 -1.000000
vn 0.000000 0.000000 -1.000000
vn 0.000000 -0.000000 -1.000000
vn 0.000000 -0.000000 -1.000000
vn 0.000000 0.000000 -1.000000
vn 0.000000 0.000000 -1.000000
vn 0.000000 0.000000 -1.000000
vn 0.000000 0.000000 -1.000000
vn 0.000000 -0.000000 -1.000000
vn 0.000000 -0.000000 -1.000000
vn 0.000000 -0.000000 -1.000000
vn 0.000000 -0.000000 -1.000000
vn 0.000000 0.000000 -1.000000
vn 0.000000 0.000000 -1.000000
vn 0.000000 0.000000 -1.000000
vn 0.000000 0.000000 -1.000000
vn 0.000000 0.000000 -1.000000
vn 0.000000 0.000000 -1.000000
vn 0.000000 0.000000 -1.000000
vn 0.000000 0.000000 -1.000000
vn -0.611220 0.351841 -0.708955
vn -0.341344 0.548740 -0.763131
vn -0.305589 0.566053 -0.765637
vn -0.610047 0.353027 -0.709376
vn -0.055479 0.646079 -0.761252
vn -0.040278 0.648563 -0.760094
vn 0.055479 0.646079 -0.761252
vn 0.040278 0.648564 -0.760094
vn 0.341344 0.548740 -0.763131
vn 0.305589 0.566053 -0.765637
vn 0.611220 0.351841 -0.708955
vn 0.610047 0.353027 -0.709376
vn 0.821461 0.033227 -0.569295
vn 0.826357 0.020354 -0.562779
vn 0.821461 -0.033227 -0.569295
vn 0.826357 -0.020354 -0.562779
vn 0.611220 -0.351841 -0.708956
vn 0.610047 -0.353028 -0.709376
vn 0.341343 -0.548741 -0.763130
vn 0.305589 -0.566054 -0.765635
vn 0.055481 -0.646080 -0.761250
vn 0.040279 -0.648565 -0.760093
vn -0.055481 -0.646081 -0.761250
vn -0.040279 -0.648565 -0.760093
vn -0.341343 -0.548742 -0.763130
vn -0.305589 -0.566055 -0.765635
vn -0.611220 -0.351842 -0.708956
vn -0.610047 -0.353028 -0.709376
vn -0.821461 -0.033227 -0.569295
vn -0.826357 -0.020354 -0.562779
vn -0.821461 0.033227 -0.569295
vn -0.826357 0.020354 -0.562779
s 1
g pCube10
usemtl initialShadingGroup
f 8/125/1 2/2/2 12/139/3 14/124/4
f 24/132/5 20/118/6 27/116/7 30/8/8
f 13/121/9 9/10/10 29/144/11 28/114/12
f 19/120/13 21/14/14 1/143/15 5/128/16
f 1/143/15 4/142/17 6/127/18 5/128/16
f 4/142/17 3/140/19 7/126/20 6/127/18
f 3/140/19 2/2/2 8/125/1 7/126/20
f 12/139/3 11/138/21 15/123/22 14/124/4
f 11/138/21 10/136/23 16/122/24 15/123/22
f 10/136/23 9/10/10 13/121/9 16/122/24
f 19/120/13 18/119/25 22/26/26 21/14/14
f 18/119/25 17/117/27 23/28/28 22/26/26
f 17/117/27 20/118/6 24/132/5 23/28/28
f 27/116/7 26/115/29 31/178/30 30/8/8
f 26/177/29 25/113/31 32/32/32 31/30/30
f 25/113/31 28/114/12 29/144/11 32/32/32
s off
f 98/33/33 97/176/34 99/175/35 100/174/36 101/173/37 102/172/38 103/171/39 104/170/40 105/169/41 106/168/42 107/167/43 108/166/44 109/165/45 110/164/46 111/163/47 112/162/48
f 29/11/49 9/137/50 10/23/51 11/21/52 12/3/53 2/141/54 3/19/55 4/17/56 1/15/57 21/135/58 22/134/59 23/133/60 24/5/61 30/131/62 31/130/63 32/129/64
s 5
f 25/31/65 26/29/66 33/160/67 34/145/68
f 26/29/66 27/7/69 35/159/70 33/160/67
s off
f 27/7/71 20/6/72 36/158/73 35/159/74
s 6
f 20/6/75 17/27/76 37/157/77 36/158/78
f 17/27/76 18/25/79 38/156/80 37/157/77
s off
f 18/25/81 19/13/82 39/155/83 38/156/84
s 7
f 19/13/85 5/16/86 40/154/87 39/155/88
f 5/16/86 6/18/89 41/153/90 40/154/87
f 6/18/89 7/20/91 42/152/92 41/153/90
s off
f 7/20/93 8/1/94 43/151/95 42/152/96
f 8/1/97 14/4/98 44/150/99 43/151/100
f 14/4/101 15/22/102 45/149/103 44/150/104
s 8
f 15/22/105 16/24/106 46/148/107 45/149/108
f 16/24/106 13/9/109 47/147/110 46/148/107
s off
f 13/9/111 28/12/112 48/146/113 47/147/114
f 28/12/115 25/31/116 34/145/117 48/146/118
s 9
f 34/50/119 33/49/120 49/65/121 50/66/122
f 33/49/120 35/51/123 51/67/124 49/65/121
f 35/51/123 36/52/125 52/68/126 51/67/124
f 36/52/125 37/53/127 53/69/128 52/68/126
f 37/53/127 38/54/129 54/70/130 53/69/128
f 38/54/129 39/55/131 55/71/132 54/70/130
f 39/55/131 40/56/133 56/72/134 55/71/132
f 40/56/133 41/57/135 57/73/136 56/72/134
f 41/57/135 42/58/137 58/74/138 57/73/136
f 42/58/137 43/59/139 59/75/140 58/74/138
f 43/59/139 44/60/141 60/76/142 59/75/140
f 44/60/141 45/61/143 61/77/144 60/76/142
f 45/61/143 46/62/145 62/78/146 61/77/144
f 46/62/145 47/63/147 63/79/148 62/78/146
f 47/63/147 48/64/149 64/80/150 63/79/148
f 48/64/149 34/50/119 50/66/122 64/80/150
f 50/66/122 49/65/121 65/81/151 66/82/152
f 49/65/121 51/67/124 67/83/153 65/81/151
f 51/67/124 52/68/126 68/84/154 67/83/153
f 52/68/126 53/69/128 69/85/155 68/84/154
f 53/69/128 54/70/130 70/86/156 69/85/155
f 54/70/130 55/71/132 71/87/157 70/86/156
f 55/71/132 56/72/134 72/88/158 71/87/157
f 56/72/134 57/73/136 73/89/159 72/88/158
f 57/73/136 58/74/138 74/90/160 73/89/159
f 58/74/138 59/75/140 75/91/161 74/90/160
f 59/75/140 60/76/142 76/92/162 75/91/161
f 60/76/142 61/77/144 77/93/163 76/92/162
f 61/77/144 62/78/146 78/94/164 77/93/163
f 62/78/146 63/79/148 79/95/165 78/94/164
f 63/79/148 64/80/150 80/96/166 79/95/165
f 64/80/150 50/66/122 66/82/152 80/96/166
s 10
f 66/82/167 65/81/168 81/97/169 82/98/170
f 65/81/168 67/83/171 83/99/172 81/97/169
f 67/83/171 68/84/173 84/100/174 83/99/172
f 68/84/173 69/85/175 85/101/176 84/100/174
f 69/85/175 70/86/177 86/102/178 85/101/176
f 70/86/177 71/87/179 87/103/180 86/102/178
f 71/87/179 72/88/181 88/104/182 87/103/180
f 72/88/181 73/89/183 89/105/184 88/104/182
f 73/89/183 74/90/185 90/106/186 89/105/184
f 74/90/185 75/91/187 91/107/188 90/106/186
f 75/91/187 76/92/189 92/108/190 91/107/188
f 76/92/189 77/93/191 93/109/192 92/108/190
f 77/93/191 78/94/193 94/110/194 93/109/192
f 78/94/193 79/95/195 95/111/196 94/110/194
f 79/95/195 80/96/197 96/112/198 95/111/196
f 80/96/197 66/82/167 82/98/170 96/112/198
s 11
f 82/98/199 81/97/200 97/34/201 98/161/202
f 81/97/200 83/99/203 99/35/204 97/34/201
f 83/99/203 84/100/205 100/36/206 99/35/204
f 84/100/205 85/101/207 101/37/208 100/36/206
f 85/101/207 86/102/209 102/38/210 101/37/208
f 86/102/209 87/103/211 103/39/212 102/38/210
f 87/103/211 88/104/213 104/40/214 103/39/212
f 88/104/213 89/105/215 105/41/216 104/40/214
f 89/105/215 90/106/217 106/42/218 105/41/216
f 90/106/217 91/107/219 107/43/220 106/42/218
f 91/107/219 92/108/221 108/44/222 107/43/220
f 92/108/221 93/109/223 109/45/224 108/44/222
f 93/109/223 94/110/225 110/46/226 109/45/224
f 94/110/225 95/111/227 111/47/228 110/46/226
f 95/111/227 96/112/229 112/48/230 111/47/228
f 96/112/229 82/98/199 98/161/202 112/48/230
