# Blender v2.81 (sub 16) OBJ File: ''
# www.blender.org
mtllib Mantequilla.mtl
v 0.623938 2.720769 2.190650
v 0.515235 2.246754 -0.001439
v -0.515235 2.246754 -0.001439
v -0.623938 2.720769 2.190650
v 0.515235 -2.246757 -0.001439
v 0.623938 -2.720770 2.190651
v -0.623938 -2.720770 2.190651
v -0.515235 -2.246757 -0.001439
v -1.559610 1.785094 2.190651
v -1.287895 1.474096 -0.001439
v -1.287895 -1.474099 -0.001439
v -1.559610 -1.785099 2.190651
v 1.559610 -1.785099 2.190651
v 1.287895 -1.474099 -0.001439
v 1.287895 1.474096 -0.001439
v 1.559610 1.785094 2.190651
v 1.184378 1.860425 -0.001439
v 1.434254 2.252933 2.190650
v 0.901565 2.143237 -0.001439
v 1.091774 2.595412 2.190650
v -0.901565 2.143237 -0.001439
v -1.091774 2.595412 2.190650
v -1.184378 1.860425 -0.001439
v -1.434254 2.252933 2.190650
v 1.434254 -2.252934 2.190651
v 1.184378 -1.860428 -0.001439
v 1.091774 -2.595415 2.190651
v 0.901565 -2.143243 -0.001439
v -1.091774 -2.595415 2.190651
v -0.901565 -2.143243 -0.001439
v -1.434254 -2.252934 2.190651
v -1.184378 -1.860428 -0.001439
v -1.045307 -1.641975 2.429683
v -0.795703 -1.891583 2.429683
v -0.454736 -1.982942 2.429683
v 0.454736 -1.982942 2.429683
v 0.795703 -1.891583 2.429683
v 1.045307 -1.641975 2.429683
v 1.136669 -1.301010 2.429683
v 1.136669 1.301003 2.429683
v 1.045307 1.641971 2.429683
v 0.795703 1.891575 2.429683
v 0.454736 1.982938 2.429683
v -0.454736 1.982938 2.429683
v -0.795703 1.891575 2.429683
v -1.045307 1.641971 2.429683
v -1.136669 1.301003 2.429683
v -1.136669 -1.301010 2.429683
v -1.237620 -2.942128 2.190651
v -1.625850 -2.553895 2.190651
v -0.707287 -3.084225 2.190651
v 0.707287 -3.084225 2.190651
v 1.237620 -2.942128 2.190651
v 1.625850 -2.553895 2.190651
v 1.942922 -2.023563 2.190651
v 1.942922 2.023557 2.190651
v 1.625850 2.553892 2.190650
v 1.237620 2.942118 2.190650
v 0.707287 3.084223 2.190650
v -0.707287 3.084223 2.190650
v -1.237620 2.942118 2.190650
v -1.625850 2.553892 2.190650
v -1.901998 2.023557 2.190651
v -1.901998 -2.023563 2.190651
v -1.237620 -2.942127 2.372069
v -1.625850 -2.553895 2.372069
v -0.707287 -3.084224 2.372069
v 0.707287 -3.084224 2.372069
v 1.237620 -2.942127 2.372069
v 1.625850 -2.553895 2.372069
v 1.942922 -2.023562 2.372069
v 1.942922 2.023557 2.372069
v 1.625850 2.553892 2.372068
v 1.237620 2.942118 2.372068
v 0.707287 3.084224 2.372068
v -0.707287 3.084224 2.372068
v -1.237620 2.942118 2.372068
v -1.625850 2.553892 2.372068
v -1.901998 2.023557 2.372069
v -1.901998 -2.023562 2.372069
v -1.087676 -2.585678 2.633754
v -1.428871 -2.244478 2.633754
v -0.621596 -2.710557 2.633754
v 0.621596 -2.710557 2.633754
v 1.087676 -2.585678 2.633754
v 1.428871 -2.244478 2.633754
v 1.553757 -1.778402 2.633753
v 1.553757 1.778394 2.633753
v 1.428871 2.244474 2.633753
v 1.087676 2.585669 2.633753
v 0.621596 2.710556 2.633753
v -0.621596 2.710556 2.633753
v -1.087676 2.585669 2.633753
v -1.428871 2.244474 2.633753
v -1.553757 1.778394 2.633753
v -1.553757 -1.778402 2.633753
v -0.890325 -2.116523 2.633753
v -1.169611 -1.837232 2.633753
v -0.508811 -2.218746 2.633754
v 0.508811 -2.218746 2.633754
v 0.890325 -2.116523 2.633753
v 1.169611 -1.837232 2.633753
v 1.271837 -1.455720 2.633753
v 1.271837 1.455714 2.633753
v 1.169611 1.837228 2.633753
v 0.890325 2.116514 2.633753
v 0.508811 2.218741 2.633753
v -0.508811 2.218741 2.633753
v -0.890325 2.116514 2.633753
v -1.169611 1.837228 2.633753
v -1.271837 1.455714 2.633753
v -1.271837 -1.455720 2.633753
vt 0.007386 0.543035
vt 0.208784 0.535540
vt 0.216884 0.629097
vt 0.017195 0.656330
vt 0.252735 0.211498
vt 0.060610 0.150628
vt 0.100244 0.044039
vt 0.285464 0.123479
vt 0.033968 0.760910
vt 0.230735 0.715457
vt 0.277357 0.862238
vt 0.090426 0.938658
vt 0.031001 0.252321
vt 0.228284 0.295475
vt 0.207585 0.448085
vt 0.005934 0.437128
vt 0.205910 0.470299
vt 0.003906 0.464029
vt 0.206394 0.500001
vt 0.004492 0.499998
vt 0.220639 0.664518
vt 0.021742 0.699223
vt 0.225267 0.693861
vt 0.027347 0.734758
vt 0.036212 0.225852
vt 0.232588 0.273617
vt 0.046358 0.191339
vt 0.240966 0.245117
vt 0.116052 0.003906
vt 0.298518 0.090339
vt 0.116036 0.996094
vt 0.100109 0.963838
vt 0.285353 0.883031
vt 0.298505 0.909667
vt 0.735729 0.335415
vt 0.758474 0.322372
vt 0.789545 0.317595
vt 0.872425 0.317583
vt 0.903498 0.322351
vt 0.926247 0.335387
vt 0.934575 0.353197
vt 0.934595 0.489120
vt 0.926272 0.506933
vt 0.903527 0.519975
vt 0.872456 0.524752
vt 0.789576 0.524764
vt 0.758503 0.519996
vt 0.735754 0.506961
vt 0.727426 0.489151
vt 0.727406 0.353227
vt 0.924900 0.044262
vt 0.924914 0.198269
vt 0.915482 0.218451
vt 0.889711 0.233227
vt 0.854505 0.238638
vt 0.760598 0.238646
vt 0.725392 0.233242
vt 0.699618 0.218471
vt 0.690182 0.198291
vt 0.690168 0.044283
vt 0.699600 0.024101
vt 0.725371 0.009325
vt 0.760577 0.003915
vt 0.854484 0.003906
vt 0.889690 0.009310
vt 0.915464 0.024082
vt 0.691517 0.371346
vt 0.691523 0.485065
vt 0.672537 0.492661
vt 0.672531 0.363751
vt 0.715965 0.558908
vt 0.740405 0.570330
vt 0.727949 0.605262
vt 0.700245 0.576369
vt 0.969231 0.527685
vt 0.975777 0.485051
vt 0.994763 0.492645
vt 0.987343 0.540975
vt 0.975771 0.371332
vt 0.994757 0.363735
vt 0.969221 0.328698
vt 0.987331 0.315406
vt 0.926889 0.286067
vt 0.740390 0.286076
vt 0.727932 0.254875
vt 0.939345 0.254864
vt 0.715952 0.297501
vt 0.700230 0.280041
vt 0.698063 0.328712
vt 0.679951 0.315422
vt 0.698073 0.527698
vt 0.679962 0.540990
vt 0.926904 0.570321
vt 0.939362 0.605251
vt 0.951342 0.558896
vt 0.967064 0.576355
vt 0.951329 0.297489
vt 0.967049 0.280028
vt 0.641003 0.031568
vt 0.670024 0.073076
vt 0.655390 0.080478
vt 0.629913 0.043733
vt 0.686595 0.131068
vt 0.670178 0.133162
vt 0.686191 0.276804
vt 0.669805 0.274488
vt 0.668816 0.333942
vt 0.654196 0.326585
vt 0.640088 0.374816
vt 0.628717 0.362999
vt 0.600458 0.404960
vt 0.596485 0.389207
vt 0.377168 0.404969
vt 0.380853 0.388981
vt 0.337206 0.374258
vt 0.348684 0.362318
vt 0.308797 0.332495
vt 0.323509 0.325253
vt 0.292521 0.274530
vt 0.308948 0.272521
vt 0.293216 0.128906
vt 0.309590 0.131298
vt 0.310812 0.071828
vt 0.325354 0.079306
vt 0.340013 0.031200
vt 0.351073 0.043219
vt 0.378456 0.004087
vt 0.382247 0.019915
vt 0.602258 0.003906
vt 0.598762 0.019952
vt 0.629312 0.100986
vt 0.609292 0.070424
vt 0.639912 0.144221
vt 0.639184 0.263112
vt 0.628234 0.305977
vt 0.607905 0.336166
vt 0.583396 0.347422
vt 0.394011 0.347258
vt 0.369643 0.335586
vt 0.349723 0.304900
vt 0.339246 0.261608
vt 0.340179 0.142790
vt 0.351217 0.100014
vt 0.371600 0.069945
vt 0.395966 0.058618
vt 0.585043 0.058731
vt 0.606592 0.120527
vt 0.588999 0.094470
vt 0.614596 0.156274
vt 0.614016 0.250920
vt 0.605666 0.286379
vt 0.587661 0.312000
vt 0.566055 0.322710
vt 0.411494 0.322660
vt 0.390078 0.311532
vt 0.372525 0.285424
vt 0.364589 0.249646
vt 0.365320 0.155052
vt 0.373719 0.119647
vt 0.391739 0.094077
vt 0.413291 0.083354
vt 0.567622 0.083342
vt 0.587279 0.133393
vt 0.574393 0.111963
vt 0.592580 0.163088
vt 0.592098 0.244078
vt 0.586614 0.273404
vt 0.573156 0.294423
vt 0.555628 0.302031
vt 0.421905 0.301816
vt 0.404744 0.294035
vt 0.391876 0.272590
vt 0.386620 0.242886
vt 0.387223 0.161944
vt 0.392731 0.132650
vt 0.406197 0.111659
vt 0.423709 0.104052
vt 0.557253 0.104192
vn 0.0738 0.9740 -0.2143
vn 0.0687 0.9744 -0.2141
vn -0.0687 0.9744 -0.2141
vn -0.0738 0.9740 -0.2143
vn 0.0686 -0.9744 -0.2141
vn 0.0738 -0.9740 -0.2143
vn -0.0738 -0.9740 -0.2143
vn -0.0686 -0.9744 -0.2141
vn -0.9913 0.0326 -0.1275
vn -0.9915 0.0291 -0.1270
vn -0.9915 -0.0291 -0.1270
vn -0.9913 -0.0326 -0.1275
vn 0.9913 -0.0326 -0.1275
vn 0.9915 -0.0291 -0.1270
vn 0.9915 0.0291 -0.1270
vn 0.9913 0.0326 -0.1275
vn 0.8510 0.4916 -0.1850
vn 0.8512 0.4912 -0.1850
vn 0.4822 0.8488 -0.2169
vn 0.4943 0.8419 -0.2166
vn -0.4822 0.8488 -0.2169
vn -0.4943 0.8419 -0.2166
vn -0.8510 0.4916 -0.1850
vn -0.8512 0.4912 -0.1850
vn 0.8512 -0.4912 -0.1850
vn 0.8510 -0.4916 -0.1850
vn 0.4942 -0.8419 -0.2166
vn 0.4822 -0.8488 -0.2169
vn -0.4943 -0.8419 -0.2166
vn -0.4822 -0.8488 -0.2169
vn -0.8512 -0.4912 -0.1850
vn -0.8510 -0.4916 -0.1850
vn 0.0000 0.0000 1.0000
vn -0.0000 -0.0000 -1.0000
vn -0.8103 -0.5861 -0.0000
vn -0.5000 -0.8660 0.0000
vn -0.4025 -0.6648 0.6293
vn -0.6586 -0.4429 0.6083
vn -0.0729 -0.9973 0.0000
vn -0.0632 -0.7775 0.6257
vn 0.0729 -0.9973 0.0000
vn 0.0631 -0.7775 0.6257
vn 0.5000 -0.8660 0.0000
vn 0.4025 -0.6648 0.6293
vn 0.7932 -0.6090 0.0000
vn 0.6402 -0.4503 0.6224
vn 0.9976 -0.0691 0.0000
vn 0.7865 -0.0458 0.6158
vn 0.9976 0.0691 0.0001
vn 0.7865 0.0458 0.6158
vn 0.7932 0.6090 -0.0000
vn 0.6402 0.4503 0.6224
vn 0.5000 0.8660 -0.0000
vn 0.4025 0.6648 0.6293
vn 0.0728 0.9973 -0.0000
vn 0.0631 0.7775 0.6258
vn -0.0728 0.9973 -0.0000
vn -0.0631 0.7775 0.6258
vn -0.5000 0.8660 -0.0000
vn -0.4025 0.6648 0.6293
vn -0.8103 0.5860 -0.0000
vn -0.6586 0.4429 0.6083
vn -0.9982 0.0602 -0.0000
vn -0.8177 0.0438 0.5740
vn -0.9982 -0.0602 0.0000
vn -0.8177 -0.0438 0.5740
vn -0.2653 -0.4956 0.8271
vn -0.4875 -0.3199 0.8124
vn -0.0345 -0.5680 0.8223
vn 0.0345 -0.5680 0.8223
vn 0.2653 -0.4956 0.8271
vn 0.4726 -0.3213 0.8206
vn 0.5551 -0.0256 0.8314
vn 0.5551 0.0256 0.8314
vn 0.4726 0.3213 0.8206
vn 0.2653 0.4956 0.8271
vn 0.0345 0.5680 0.8223
vn -0.0345 0.5680 0.8223
vn -0.2653 0.4956 0.8271
vn -0.4875 0.3199 0.8124
vn -0.5966 0.0243 0.8022
vn -0.5966 -0.0243 0.8022
vn 0.6112 0.3518 0.7090
vn 0.3414 0.5487 0.7631
vn 0.3056 0.5661 0.7656
vn 0.6100 0.3530 0.7094
vn 0.0555 0.6461 0.7613
vn 0.0403 0.6486 0.7601
vn -0.0555 0.6461 0.7613
vn -0.0403 0.6486 0.7601
vn -0.3414 0.5487 0.7631
vn -0.3056 0.5661 0.7656
vn -0.6112 0.3518 0.7090
vn -0.6100 0.3530 0.7094
vn -0.8215 0.0332 0.5693
vn -0.8264 0.0203 0.5628
vn -0.8215 -0.0332 0.5693
vn -0.8264 -0.0203 0.5628
vn -0.6112 -0.3518 0.7090
vn -0.6100 -0.3530 0.7094
vn -0.3414 -0.5487 0.7631
vn -0.3056 -0.5661 0.7656
vn -0.0555 -0.6461 0.7613
vn -0.0403 -0.6486 0.7601
vn 0.0555 -0.6461 0.7613
vn 0.0403 -0.6486 0.7601
vn 0.3414 -0.5487 0.7631
vn 0.3056 -0.5661 0.7656
vn 0.6112 -0.3518 0.7090
vn 0.6100 -0.3530 0.7094
vn 0.8215 -0.0332 0.5693
vn 0.8264 -0.0203 0.5628
vn 0.8215 0.0332 0.5693
vn 0.8264 0.0203 0.5628
usemtl initialShadingGroup.002
s 1
f 1/1/1 2/2/2 3/3/3 4/4/4
f 5/5/5 6/6/6 7/7/7 8/8/8
f 9/9/9 10/10/10 11/11/11 12/12/12
f 13/13/13 14/14/14 15/15/15 16/16/16
f 15/15/15 17/17/17 18/18/18 16/16/16
f 17/17/17 19/19/19 20/20/20 18/18/18
f 19/19/19 2/2/2 1/1/1 20/20/20
f 3/3/3 21/21/21 22/22/22 4/4/4
f 21/21/21 23/23/23 24/24/24 22/22/22
f 23/23/23 10/10/10 9/9/9 24/24/24
f 13/13/13 25/25/25 26/26/26 14/14/14
f 25/25/25 27/27/27 28/28/28 26/26/26
f 27/27/27 6/6/6 5/5/5 28/28/28
f 7/7/7 29/29/29 30/30/30 8/8/8
f 29/31/29 31/32/31 32/33/32 30/34/30
f 31/32/31 12/12/12 11/11/11 32/33/32
s off
f 33/35/33 34/36/33 35/37/33 36/38/33 37/39/33 38/40/33 39/41/33 40/42/33 41/43/33 42/44/33 43/45/33 44/46/33 45/47/33 46/48/33 47/49/33 48/50/33
f 11/51/34 10/52/34 23/53/34 21/54/34 3/55/34 2/56/34 19/57/34 17/58/34 15/59/34 14/60/34 26/61/34 28/62/34 5/63/34 8/64/34 30/65/34 32/66/34
f 7/67/34 6/68/34 52/69/34 51/70/34
f 25/71/34 13/72/34 55/73/34 54/74/34
f 20/75/34 1/76/34 59/77/34 58/78/34
f 1/76/34 4/79/34 60/80/34 59/77/34
f 4/79/34 22/81/34 61/82/34 60/80/34
f 9/83/34 12/84/34 64/85/34 63/86/34
f 12/84/34 31/87/34 50/88/34 64/85/34
s 4
f 31/87/34 29/89/34 49/90/34 50/88/34
f 29/89/34 7/67/34 51/70/34 49/90/34
s 6
f 6/68/34 27/91/34 53/92/34 52/69/34
f 27/91/34 25/71/34 54/74/34 53/92/34
s 8
f 13/72/34 16/93/34 56/94/34 55/73/34
f 16/93/34 18/95/34 57/96/34 56/94/34
f 18/95/34 20/75/34 58/78/34 57/96/34
s 12
f 22/81/34 24/97/34 62/98/34 61/82/34
f 24/97/34 9/83/34 63/86/34 62/98/34
s 15
f 50/99/35 49/100/36 65/101/37 66/102/38
f 49/100/36 51/103/39 67/104/40 65/101/37
f 51/103/39 52/105/41 68/106/42 67/104/40
f 52/105/41 53/107/43 69/108/44 68/106/42
f 53/107/43 54/109/45 70/110/46 69/108/44
f 54/109/45 55/111/47 71/112/48 70/110/46
f 55/111/47 56/113/49 72/114/50 71/112/48
f 56/113/49 57/115/51 73/116/52 72/114/50
f 57/115/51 58/117/53 74/118/54 73/116/52
f 58/117/53 59/119/55 75/120/56 74/118/54
f 59/119/55 60/121/57 76/122/58 75/120/56
f 60/121/57 61/123/59 77/124/60 76/122/58
f 61/123/59 62/125/61 78/126/62 77/124/60
f 62/125/61 63/127/63 79/128/64 78/126/62
f 63/127/63 64/129/65 80/130/66 79/128/64
f 64/129/65 50/99/35 66/102/38 80/130/66
f 66/102/38 65/101/37 81/131/67 82/132/68
f 65/101/37 67/104/40 83/133/69 81/131/67
f 67/104/40 68/106/42 84/134/70 83/133/69
f 68/106/42 69/108/44 85/135/71 84/134/70
f 69/108/44 70/110/46 86/136/72 85/135/71
f 70/110/46 71/112/48 87/137/73 86/136/72
f 71/112/48 72/114/50 88/138/74 87/137/73
f 72/114/50 73/116/52 89/139/75 88/138/74
f 73/116/52 74/118/54 90/140/76 89/139/75
f 74/118/54 75/120/56 91/141/77 90/140/76
f 75/120/56 76/122/58 92/142/78 91/141/77
f 76/122/58 77/124/60 93/143/79 92/142/78
f 77/124/60 78/126/62 94/144/80 93/143/79
f 78/126/62 79/128/64 95/145/81 94/144/80
f 79/128/64 80/130/66 96/146/82 95/145/81
f 80/130/66 66/102/38 82/132/68 96/146/82
s 16
f 82/132/33 81/131/33 97/147/33 98/148/33
f 81/131/33 83/133/33 99/149/33 97/147/33
f 83/133/33 84/134/33 100/150/33 99/149/33
f 84/134/33 85/135/33 101/151/33 100/150/33
f 85/135/33 86/136/33 102/152/33 101/151/33
f 86/136/33 87/137/33 103/153/33 102/152/33
f 87/137/33 88/138/33 104/154/33 103/153/33
f 88/138/33 89/139/33 105/155/33 104/154/33
f 89/139/33 90/140/33 106/156/33 105/155/33
f 90/140/33 91/141/33 107/157/33 106/156/33
f 91/141/33 92/142/33 108/158/33 107/157/33
f 92/142/33 93/143/33 109/159/33 108/158/33
f 93/143/33 94/144/33 110/160/33 109/159/33
f 94/144/33 95/145/33 111/161/33 110/160/33
f 95/145/33 96/146/33 112/162/33 111/161/33
f 96/146/33 82/132/33 98/148/33 112/162/33
s 17
f 98/148/83 97/147/84 34/163/85 33/164/86
f 97/147/84 99/149/87 35/165/88 34/163/85
f 99/149/87 100/150/89 36/166/90 35/165/88
f 100/150/89 101/151/91 37/167/92 36/166/90
f 101/151/91 102/152/93 38/168/94 37/167/92
f 102/152/93 103/153/95 39/169/96 38/168/94
f 103/153/95 104/154/97 40/170/98 39/169/96
f 104/154/97 105/155/99 41/171/100 40/170/98
f 105/155/99 106/156/101 42/172/102 41/171/100
f 106/156/101 107/157/103 43/173/104 42/172/102
f 107/157/103 108/158/105 44/174/106 43/173/104
f 108/158/105 109/159/107 45/175/108 44/174/106
f 109/159/107 110/160/109 46/176/110 45/175/108
f 110/160/109 111/161/111 47/177/112 46/176/110
f 111/161/111 112/162/113 48/178/114 47/177/112
f 112/162/113 98/148/83 33/164/86 48/178/114
