# 3ds Max Wavefront OBJ Exporter v0.97b - (c)2007 guruware
# File Created: 18.03.2020 02:37:49

#
# object Caja_Guantes
#

v  -36.6355 -0.4446 13.8807
v  -36.6355 -0.4446 -18.4318
v  23.8588 -0.4446 -18.4318
v  23.8588 -0.4446 13.8807
v  -36.6355 10.3338 13.8807
v  23.8588 10.3338 13.8807
v  23.8588 10.3338 -18.4318
v  -36.6355 10.3338 -18.4318
# 8 vertices

vn -0.5774 -0.5774 0.5774
vn -0.5774 -0.5774 -0.5774
vn 0.5774 -0.5774 -0.5774
vn 0.5774 -0.5774 0.5774
vn -0.5774 0.5774 0.5774
vn 0.5774 0.5774 0.5774
vn 0.5774 0.5774 -0.5774
vn -0.5774 0.5774 -0.5774
# 8 vertex normals

vt 0.0200 0.9800 0.0000
vt 0.0200 0.6314 0.0000
vt 0.6727 0.6314 0.0000
vt 0.6727 0.9800 0.0000
vt 0.1363 0.1363 0.0000
vt 0.7889 0.1363 0.0000
vt 0.7889 0.4849 0.0000
vt 0.1363 0.4849 0.0000
vt 0.1363 0.0200 0.0000
vt 0.7889 0.0200 0.0000
vt 0.9052 0.1363 0.0000
vt 0.9052 0.4849 0.0000
vt 0.7889 0.6012 0.0000
vt 0.1363 0.6012 0.0000
vt 0.0200 0.4849 0.0000
vt 0.0200 0.1363 0.0000
# 16 texture coords

o Caja_Guantes
g Caja_Guantes
s 2
f 1/1/1 2/2/2 3/3/3 4/4/4 
s 4
f 5/5/5 6/6/6 7/7/7 8/8/8 
s 8
f 1/9/1 4/10/4 6/6/6 5/5/5 
s 16
f 4/11/4 3/12/3 7/7/7 6/6/6 
s 32
f 3/13/3 2/14/2 8/8/8 7/7/7 
s 64
f 2/15/2 1/16/1 5/5/5 8/8/8 
# 6 polygons

