# 3ds Max Wavefront OBJ Exporter v0.97b - (c)2007 guruware
# File Created: 18.03.2020 02:38:29

#
# object Botella
#

v  -2.4413 0.0000 -5.2355
v  0.5035 0.0000 -5.7547
v  3.3134 0.0000 -4.7320
v  5.2355 0.0000 -2.4413
v  5.7547 0.0000 0.5035
v  4.7320 0.0000 3.3134
v  2.4413 0.0000 5.2355
v  -0.5035 0.0000 5.7547
v  -3.3134 0.0000 4.7320
v  -5.2355 0.0000 2.4413
v  -5.7547 0.0000 -0.5035
v  -4.7320 0.0000 -3.3134
v  -5.7547 24.4897 -0.5035
v  -4.7320 24.4897 -3.3134
v  -5.2355 24.4897 2.4413
v  -3.3134 24.4897 4.7320
v  -0.5035 24.4897 5.7547
v  2.4413 24.4897 5.2355
v  4.7320 24.4897 3.3134
v  5.7547 24.4897 0.5035
v  5.2355 24.4897 -2.4413
v  3.3134 24.4897 -4.7320
v  0.5035 24.4897 -5.7547
v  -2.4413 24.4897 -5.2355
v  -4.5740 29.7267 -0.4002
v  -3.7611 29.7267 -2.6336
v  -4.1613 29.7267 1.9405
v  -2.6336 29.7267 3.7611
v  -0.4002 29.7267 4.5740
v  1.9405 29.7267 4.1613
v  3.7611 29.7267 2.6336
v  4.5740 29.7267 0.4002
v  4.1613 29.7267 -1.9405
v  2.6336 29.7267 -3.7611
v  0.4002 29.7267 -4.5740
v  -1.9405 29.7267 -4.1613
v  -1.9934 33.5635 -1.3958
v  -2.4242 33.5635 -0.2121
v  -2.4242 35.1960 -0.2121
v  -1.9934 35.1960 -1.3958
v  -2.2055 33.5635 1.0284
v  -2.2055 35.1960 1.0284
v  -1.3958 33.5635 1.9934
v  -1.3958 35.1960 1.9934
v  -0.2121 33.5635 2.4242
v  -0.2121 35.1960 2.4242
v  1.0284 33.5635 2.2055
v  1.0284 35.1960 2.2055
v  1.9934 33.5635 1.3958
v  1.9934 35.1960 1.3958
v  2.4242 33.5635 0.2121
v  2.4242 35.1960 0.2121
v  2.2055 33.5635 -1.0284
v  2.2055 35.1960 -1.0284
v  1.3958 33.5635 -1.9934
v  1.3958 35.1960 -1.9934
v  0.2121 33.5635 -2.4242
v  0.2121 35.1960 -2.4242
v  -1.0284 33.5635 -2.2055
v  -1.0284 35.1960 -2.2055
# 60 vertices

vn -0.3200 -0.6532 -0.6862
vn 0.0660 -0.6533 -0.7542
vn 0.4343 -0.6533 -0.6202
vn 0.6862 -0.6533 -0.3200
vn 0.7543 -0.6532 0.0660
vn 0.6202 -0.6532 0.4343
vn 0.3200 -0.6532 0.6863
vn -0.0660 -0.6533 0.7542
vn -0.4343 -0.6532 0.6202
vn -0.6862 -0.6532 0.3200
vn -0.7543 -0.6532 -0.0660
vn -0.6202 -0.6533 -0.4343
vn -0.9903 0.1091 -0.0866
vn -0.8143 0.1091 -0.5702
vn -0.9009 0.1091 0.4201
vn -0.5702 0.1091 0.8143
vn -0.0866 0.1091 0.9903
vn 0.4201 0.1091 0.9009
vn 0.8143 0.1091 0.5702
vn 0.9903 0.1091 0.0866
vn 0.9009 0.1091 -0.4201
vn 0.5702 0.1091 -0.8143
vn 0.0866 0.1091 -0.9903
vn -0.4201 0.1091 -0.9009
vn -0.9326 0.3515 -0.0816
vn -0.7669 0.3515 -0.5370
vn -0.8485 0.3515 0.3956
vn -0.5370 0.3515 0.7669
vn -0.0816 0.3515 0.9326
vn 0.3956 0.3515 0.8485
vn 0.7669 0.3515 0.5370
vn 0.9326 0.3515 0.0816
vn 0.8485 0.3515 -0.3956
vn 0.5370 0.3515 -0.7669
vn 0.0816 0.3515 -0.9326
vn -0.3956 0.3515 -0.8485
vn -0.7900 0.2643 -0.5532
vn -0.9608 0.2643 -0.0841
vn -0.7542 0.6533 -0.0660
vn -0.6202 0.6532 -0.4343
vn -0.8741 0.2643 0.4076
vn -0.6862 0.6533 0.3200
vn -0.5532 0.2643 0.7900
vn -0.4343 0.6532 0.6202
vn -0.0841 0.2643 0.9608
vn -0.0660 0.6533 0.7542
vn 0.4076 0.2643 0.8741
vn 0.3200 0.6533 0.6862
vn 0.7900 0.2643 0.5532
vn 0.6202 0.6532 0.4343
vn 0.9608 0.2643 0.0841
vn 0.7543 0.6532 0.0660
vn 0.8741 0.2643 -0.4076
vn 0.6862 0.6532 -0.3200
vn 0.5532 0.2643 -0.7900
vn 0.4343 0.6533 -0.6202
vn 0.0840 0.2643 -0.9608
vn 0.0660 0.6533 -0.7542
vn -0.4076 0.2643 -0.8741
vn -0.3200 0.6532 -0.6862
# 60 vertex normals

vt 0.9800 0.8651 0.0000
vt 0.9480 0.9206 0.0000
vt 0.8925 0.9526 0.0000
vt 0.8285 0.9526 -0.0000
vt 0.7730 0.9205 0.0000
vt 0.7410 0.8651 0.0000
vt 0.7410 0.8011 -0.0000
vt 0.7731 0.7456 0.0000
vt 0.8285 0.7136 0.0000
vt 0.8925 0.7136 0.0000
vt 0.9480 0.7456 -0.0000
vt 0.9800 0.8011 0.0000
vt 0.0200 0.0200 0.3266
vt 0.0797 0.0200 0.3266
vt 0.0797 0.5189 0.3266
vt 0.0200 0.5189 0.3266
vt 0.1395 0.0200 0.3266
vt 0.1395 0.5189 0.3266
vt 0.1992 0.0200 0.3266
vt 0.1992 0.5189 0.3266
vt 0.2590 0.0200 0.3266
vt 0.2590 0.5189 0.3266
vt 0.3187 0.0200 0.3266
vt 0.3187 0.5189 0.3266
vt 0.3785 0.0200 0.3266
vt 0.3785 0.5189 0.3266
vt 0.4382 0.0200 0.3266
vt 0.4382 0.5189 0.3266
vt 0.4980 0.0200 0.3266
vt 0.4980 0.5189 0.3266
vt 0.5577 0.0200 0.3266
vt 0.5577 0.5189 0.3266
vt 0.6175 0.0200 0.3266
vt 0.6175 0.5189 0.3266
vt 0.6772 0.0200 0.3266
vt 0.6772 0.5189 0.3266
vt 0.7370 0.0200 0.3266
vt 0.7370 0.5189 0.3266
vt 0.0797 0.6256 0.0950
vt 0.0200 0.6256 0.0950
vt 0.1395 0.6256 0.0950
vt 0.1992 0.6256 0.0950
vt 0.2590 0.6256 0.0950
vt 0.3187 0.6256 0.0950
vt 0.3785 0.6256 0.0950
vt 0.4382 0.6256 0.0950
vt 0.4980 0.6256 0.0950
vt 0.5577 0.6256 0.0950
vt 0.6175 0.6256 0.0950
vt 0.6772 0.6256 0.0950
vt 0.7370 0.6256 0.0950
vt 0.0200 0.7037 -0.3266
vt 0.0797 0.7037 -0.3266
vt 0.0797 0.7370 -0.3266
vt 0.0200 0.7370 -0.3266
vt 0.1395 0.7037 -0.3266
vt 0.1395 0.7370 -0.3266
vt 0.1992 0.7037 -0.3266
vt 0.1992 0.7370 -0.3266
vt 0.2590 0.7037 -0.3266
vt 0.2590 0.7370 -0.3266
vt 0.3187 0.7037 -0.3266
vt 0.3187 0.7370 -0.3266
vt 0.3785 0.7037 -0.3266
vt 0.3785 0.7370 -0.3266
vt 0.4382 0.7037 -0.3266
vt 0.4382 0.7370 -0.3266
vt 0.4980 0.7037 -0.3266
vt 0.4980 0.7370 -0.3266
vt 0.5577 0.7037 -0.3266
vt 0.5577 0.7370 -0.3266
vt 0.6175 0.7037 -0.3266
vt 0.6175 0.7370 -0.3266
vt 0.6772 0.7037 -0.3266
vt 0.6772 0.7370 -0.3266
vt 0.7370 0.7037 -0.3266
vt 0.7370 0.7370 -0.3266
vt 0.1229 0.8439 -0.0000
vt 0.0995 0.8574 -0.0000
vt 0.0725 0.8574 -0.0000
vt 0.0492 0.8439 -0.0000
vt 0.0357 0.8205 -0.0000
vt 0.0357 0.7936 0.0000
vt 0.0492 0.7702 0.0000
vt 0.0725 0.7567 0.0000
vt 0.0995 0.7567 0.0000
vt 0.1228 0.7702 0.0000
vt 0.1363 0.7935 0.0000
vt 0.1363 0.8205 -0.0000
# 89 texture coords

o Botella
g Botella
s 1
f 1/1/1 2/2/2 3/3/3 4/4/4 5/5/5 6/6/6 7/7/7 8/8/8 9/9/9 10/10/10 11/11/11 12/12/12 
s 2
f 12/13/12 11/14/11 13/15/13 14/16/14 
f 11/14/11 10/17/10 15/18/15 13/15/13 
f 10/17/10 9/19/9 16/20/16 15/18/15 
f 9/19/9 8/21/8 17/22/17 16/20/16 
f 8/21/8 7/23/7 18/24/18 17/22/17 
f 7/23/7 6/25/6 19/26/19 18/24/18 
f 6/25/6 5/27/5 20/28/20 19/26/19 
f 5/27/5 4/29/4 21/30/21 20/28/20 
f 4/29/4 3/31/3 22/32/22 21/30/21 
f 3/31/3 2/33/2 23/34/23 22/32/22 
f 2/33/2 1/35/1 24/36/24 23/34/23 
f 1/35/1 12/37/12 14/38/14 24/36/24 
f 14/16/14 13/15/13 25/39/25 26/40/26 
f 13/15/13 15/18/15 27/41/27 25/39/25 
f 15/18/15 16/20/16 28/42/28 27/41/27 
f 16/20/16 17/22/17 29/43/29 28/42/28 
f 17/22/17 18/24/18 30/44/30 29/43/29 
f 18/24/18 19/26/19 31/45/31 30/44/30 
f 19/26/19 20/28/20 32/46/32 31/45/31 
f 20/28/20 21/30/21 33/47/33 32/46/32 
f 21/30/21 22/32/22 34/48/34 33/47/33 
f 22/32/22 23/34/23 35/49/35 34/48/34 
f 23/34/23 24/36/24 36/50/36 35/49/35 
f 24/36/24 14/38/14 26/51/26 36/50/36 
s 4
f 37/52/37 38/53/38 39/54/39 40/55/40 
f 38/53/38 41/56/41 42/57/42 39/54/39 
f 41/56/41 43/58/43 44/59/44 42/57/42 
f 43/58/43 45/60/45 46/61/46 44/59/44 
f 45/60/45 47/62/47 48/63/48 46/61/46 
f 47/62/47 49/64/49 50/65/50 48/63/48 
f 49/64/49 51/66/51 52/67/52 50/65/50 
f 51/66/51 53/68/53 54/69/54 52/67/52 
f 53/68/53 55/70/55 56/71/56 54/69/54 
f 55/70/55 57/72/57 58/73/58 56/71/56 
f 57/72/57 59/74/59 60/75/60 58/73/58 
f 59/74/59 37/76/37 40/77/40 60/75/60 
s 16
f 39/78/39 42/79/42 44/80/44 46/81/46 48/82/48 50/83/50 52/84/52 54/85/54 56/86/56 58/87/58 60/88/60 40/89/40 
s 2
f 25/39/25 38/53/38 37/52/37 26/40/26 
f 27/41/27 41/56/41 38/53/38 25/39/25 
f 28/42/28 43/58/43 41/56/41 27/41/27 
f 29/43/29 45/60/45 43/58/43 28/42/28 
f 30/44/30 47/62/47 45/60/45 29/43/29 
f 31/45/31 49/64/49 47/62/47 30/44/30 
f 32/46/32 51/66/51 49/64/49 31/45/31 
f 33/47/33 53/68/53 51/66/51 32/46/32 
f 34/48/34 55/70/55 53/68/53 33/47/33 
f 35/49/35 57/72/57 55/70/55 34/48/34 
f 36/50/36 59/74/59 57/72/57 35/49/35 
f 26/51/26 37/76/37 59/74/59 36/50/36 
# 50 polygons

