# 3ds Max Wavefront OBJ Exporter v0.97b - (c)2007 guruware
# File Created: 18.03.2020 02:27:44

#
# object EstanteriaAlta_1Cara_Normal
#

v  -54.4130 0.0000 19.6160
v  -52.9440 0.0000 19.6160
v  -52.9440 8.1563 19.6160
v  -54.4130 8.1563 19.6160
v  54.4130 0.0000 19.6160
v  54.4130 0.0000 -16.4863
v  54.4130 8.1563 -16.4863
v  54.4130 8.1563 19.6160
v  54.4130 0.0000 -19.6160
v  53.0391 0.0000 -19.6160
v  53.0391 8.1563 -19.6160
v  54.4130 8.1563 -19.6160
v  -54.4130 0.0000 -19.6160
v  -54.4130 0.0000 -16.4863
v  -54.4130 8.1563 -16.4863
v  -54.4130 8.1563 -19.6160
v  54.4130 121.9511 -16.4863
v  54.4130 121.9511 -19.6160
v  53.0391 121.9511 -19.6160
v  53.0391 121.9511 -16.4863
v  -54.4130 121.9511 -16.4863
v  -54.4130 121.9511 -19.6160
v  -54.4130 8.1563 19.2216
v  -52.9440 8.1563 19.2216
v  -52.9440 121.9511 19.2216
v  -54.4130 121.9511 19.2216
v  53.0391 8.1563 19.6160
v  53.0391 8.1563 -16.4863
v  -52.9440 8.1563 -16.4863
v  53.0391 0.0000 19.6160
v  -52.9440 0.0000 -19.6160
v  -52.9440 8.1563 -19.6160
v  -52.9440 121.9511 -19.6160
v  -52.9440 121.9511 -16.4863
v  53.0391 8.1563 19.2216
v  54.4130 8.1563 19.2216
v  54.4130 121.9511 19.2216
v  53.0391 121.9511 19.2216
v  53.5548 98.4942 18.0880
v  53.5548 99.5216 18.0880
v  -53.8719 99.5216 18.0880
v  -53.8719 98.4942 18.0880
v  -53.8719 97.8902 -17.2725
v  53.5548 97.8902 -17.2725
v  53.5548 97.8902 16.4814
v  -53.8719 97.8902 16.4814
v  53.5548 100.1256 -17.2725
v  -53.8719 100.1256 -17.2725
v  -53.8719 100.1256 16.4814
v  53.5548 100.1256 16.4814
v  53.5548 97.4668 17.5490
v  -53.8719 97.4668 17.5490
v  -53.8719 100.5489 17.5490
v  53.5548 100.5489 17.5490
v  53.5548 66.1774 18.0880
v  53.5548 67.2048 18.0880
v  -53.8719 67.2048 18.0880
v  -53.8719 66.1774 18.0880
v  -53.8719 65.5734 -17.2725
v  53.5548 65.5734 -17.2725
v  53.5548 65.5734 16.4814
v  -53.8719 65.5734 16.4814
v  53.5548 67.8088 -17.2725
v  -53.8719 67.8088 -17.2725
v  -53.8719 67.8088 16.4814
v  53.5548 67.8088 16.4814
v  53.5548 65.1501 17.5490
v  -53.8719 65.1501 17.5490
v  -53.8719 68.2322 17.5490
v  53.5548 68.2322 17.5490
v  53.5548 33.8607 18.0880
v  53.5548 34.8881 18.0880
v  -53.8719 34.8881 18.0880
v  -53.8719 33.8607 18.0880
v  -53.8719 33.2567 -17.2725
v  53.5548 33.2567 -17.2725
v  53.5548 33.2567 16.4814
v  -53.8719 33.2567 16.4814
v  53.5548 35.4921 -17.2725
v  -53.8719 35.4921 -17.2725
v  -53.8719 35.4921 16.4814
v  53.5548 35.4921 16.4814
v  53.5548 32.8333 17.5490
v  -53.8719 32.8333 17.5490
v  -53.8719 35.9154 17.5490
v  53.5548 35.9154 17.5490
# 86 vertices

vn -0.7071 0.0000 0.7071
vn 0.0000 0.0000 1.0000
vn 0.0000 0.4472 0.8944
vn 0.7071 0.0000 0.7071
vn 1.0000 -0.0000 0.0000
vn 1.0000 -0.0000 -0.0000
vn 0.7071 0.0000 -0.7071
vn 0.0000 0.0000 -1.0000
vn -0.7071 0.0000 -0.7071
vn -1.0000 0.0000 -0.0000
vn -1.0000 0.0000 0.0000
vn 0.7071 0.7071 -0.0000
vn 0.5774 0.5774 -0.5774
vn 0.0000 0.7071 -0.7071
vn -0.3015 0.9045 0.3015
vn -0.7071 0.7071 0.0000
vn -0.5774 0.5774 -0.5773
vn 0.5774 0.5774 0.5774
vn -0.5774 0.5774 0.5774
vn 0.3015 0.9045 0.3015
vn 0.0000 -0.2392 0.9710
vn 0.0000 0.2392 0.9710
vn 0.0000 -1.0000 -0.0000
vn 0.0000 -0.9822 -0.1877
vn 0.0000 1.0000 0.0000
vn 0.0000 0.9822 -0.1877
vn 0.0000 -0.9377 0.3475
vn 0.0000 0.9376 0.3476
vn 0.0000 -0.9376 0.3476
# 29 vertex normals

vt 0.9890 0.5064 0.0000
vt 0.9890 0.5102 0.0000
vt 0.9676 0.5102 0.0000
vt 0.9676 0.5064 0.0000
vt 0.8942 0.8846 0.0000
vt 0.8946 0.9793 0.0000
vt 0.8732 0.9793 0.0000
vt 0.8728 0.8848 0.0000
vt 0.2459 0.7916 0.0000
vt 0.2459 0.7880 0.0000
vt 0.2673 0.7880 0.0000
vt 0.2673 0.7916 0.0000
vt 0.8947 0.3104 0.0000
vt 0.8946 0.3186 0.0000
vt 0.8733 0.3185 0.0000
vt 0.8733 0.3103 0.0000
vt 0.5727 0.7899 0.0000
vt 0.5656 0.7913 0.0000
vt 0.5656 0.7879 0.0000
vt 0.5744 0.7881 0.0000
vt 0.8947 0.9875 0.0000
vt 0.8733 0.9876 0.0000
vt 0.8943 0.4132 0.0000
vt 0.8729 0.4131 0.0000
vt 0.5656 0.7916 0.0000
vt 0.5750 0.3186 0.0000
vt 0.5750 0.3104 0.0000
vt 0.8732 0.4122 0.0000
vt 0.8731 0.4163 0.0000
vt 0.5750 0.4160 0.0000
vt 0.5750 0.4122 0.0000
vt 0.5750 0.9875 0.0000
vt 0.5750 0.9793 0.0000
vt 0.9676 0.7880 0.0000
vt 0.8729 0.7880 0.0000
vt 0.8729 0.5102 0.0000
vt 0.9890 0.7880 0.0000
vt 0.2459 0.5103 0.0000
vt 0.2459 0.5064 0.0000
vt 0.2673 0.5064 0.0000
vt 0.2673 0.5103 0.0000
vt 0.5656 0.5104 0.0000
vt 0.5655 0.5068 0.0000
vt 0.5726 0.5081 0.0000
vt 0.5745 0.5101 0.0000
vt 0.5656 0.5065 0.0000
vt 0.9890 0.7916 0.0000
vt 0.9676 0.7916 0.0000
vt 0.8731 0.8819 0.0000
vt 0.8732 0.8857 0.0000
vt 0.5750 0.8857 0.0000
vt 0.5750 0.8822 0.0000
vt 0.5714 0.4157 0.0000
vt 0.5716 0.8824 0.0000
vt 0.0061 0.2048 0.0000
vt 0.0061 0.1995 0.0000
vt 0.5653 0.1995 0.0000
vt 0.5653 0.2048 0.0000
vt 0.5653 0.3925 0.0000
vt 0.0061 0.3925 0.0000
vt 0.0061 0.2168 0.0000
vt 0.5653 0.2168 0.0000
vt 0.0061 0.0118 0.0000
vt 0.5653 0.0118 0.0000
vt 0.5653 0.1875 0.0000
vt 0.0061 0.1875 0.0000
vt 0.0061 0.2108 0.0000
vt 0.5653 0.2108 0.0000
vt 0.5653 0.1934 0.0000
vt 0.0061 0.1934 0.0000
# 70 texture coords

o EstanteriaAlta_1Cara_Normal
g EstanteriaAlta_1Cara_Normal
s 8
f 1/1/1 2/2/2 3/3/3 4/4/1 
s 16
f 5/5/4 6/6/5 7/7/6 8/8/4 
s 32
f 9/9/7 10/10/8 11/11/8 12/12/7 
s 64
f 13/13/9 14/14/10 15/15/11 16/16/9 
s 4
f 17/17/12 18/18/13 19/19/14 20/20/15 
s 16
f 6/6/5 9/21/7 12/22/7 7/7/6 
s 64
f 14/14/10 1/23/1 4/24/1 15/15/11 
s off
f 12/12/7 11/11/8 19/19/14 18/25/13 
f 16/16/9 15/15/11 21/26/16 22/27/17 
f 23/28/1 24/29/4 25/30/18 26/31/19 
f 7/7/6 12/22/7 18/32/13 17/33/12 
s 4
f 3/3/3 27/34/3 28/35/19 29/36/18 
s 8
f 2/2/2 30/37/2 27/34/3 3/3/3 
s 32
f 31/38/8 13/39/9 16/40/9 32/41/8 
s 4
f 33/42/14 22/43/17 21/44/16 34/45/20 
s off
f 32/41/8 16/40/9 22/46/17 33/42/14 
f 29/36/18 28/35/19 20/20/15 34/45/20 
s 32
f 10/10/8 31/38/8 32/41/8 11/11/8 
s 4
f 19/19/14 33/42/14 34/45/20 20/20/15 
s off
f 11/11/8 32/41/8 33/42/14 19/19/14 
s 8
f 30/37/2 5/47/4 8/48/4 27/34/3 
s off
f 35/49/1 36/50/4 37/51/18 38/52/19 
f 29/36/18 34/45/20 25/30/18 24/29/4 
f 34/45/20 21/44/16 26/53/19 25/30/18 
f 21/26/16 15/15/11 23/28/1 26/31/19 
f 7/7/6 17/33/12 37/51/18 36/50/4 
f 17/17/12 20/20/15 38/52/19 37/54/18 
f 20/20/15 28/35/19 35/49/1 38/52/19 
s 4
f 39/55/21 40/56/22 41/57/22 42/58/21 
s 8
f 43/59/23 44/60/23 45/61/24 46/62/24 
s 32
f 47/63/25 48/64/25 49/65/26 50/66/26 
s off
f 46/62/24 45/61/24 51/67/27 52/68/27 
f 50/66/26 49/65/26 53/69/28 54/70/28 
s 4
f 40/56/22 54/70/28 53/69/28 41/57/22 
f 42/58/21 52/68/27 51/67/27 39/55/21 
f 55/55/21 56/56/22 57/57/22 58/58/21 
s 8
f 59/59/23 60/60/23 61/61/24 62/62/24 
s 32
f 63/63/25 64/64/25 65/65/26 66/66/26 
s off
f 62/62/24 61/61/24 67/67/27 68/68/27 
f 66/66/26 65/65/26 69/69/28 70/70/28 
s 4
f 56/56/22 70/70/28 69/69/28 57/57/22 
f 58/58/21 68/68/27 67/67/27 55/55/21 
f 71/55/21 72/56/22 73/57/22 74/58/21 
s 8
f 75/59/23 76/60/23 77/61/24 78/62/24 
s 32
f 79/63/25 80/64/25 81/65/26 82/66/26 
s off
f 78/62/24 77/61/24 83/67/29 84/68/29 
f 82/66/26 81/65/26 85/69/28 86/70/28 
s 4
f 72/56/22 86/70/28 85/69/28 73/57/22 
f 74/58/21 84/68/29 83/67/29 71/55/21 
# 49 polygons

