# 3ds Max Wavefront OBJ Exporter v0.97b - (c)2007 guruware
# File Created: 18.03.2020 02:27:32

#
# object EstanteriaAlta_1Cara_Estrecha
#

v  -6.1323 0.0000 19.6160
v  -5.3737 0.0000 19.6160
v  -5.3737 8.1563 19.6160
v  -6.1323 8.1563 19.6160
v  50.0586 0.0000 19.6160
v  50.0586 0.0000 -16.4863
v  50.0586 8.1563 -16.4863
v  50.0586 8.1563 19.6160
v  50.0586 0.0000 -19.6160
v  49.3492 0.0000 -19.6160
v  49.3492 8.1563 -19.6160
v  50.0586 8.1563 -19.6160
v  -6.1323 0.0000 -19.6160
v  -6.1323 0.0000 -16.4863
v  -6.1322 8.1563 -16.4863
v  -6.1323 8.1563 -19.6160
v  50.0586 121.9511 -16.4863
v  50.0586 121.9511 -19.6160
v  49.3492 121.9511 -19.6160
v  49.3492 121.9511 -16.4863
v  -6.1322 121.9511 -16.4863
v  -6.1323 121.9511 -19.6160
v  -6.1322 8.1563 19.2216
v  -5.3737 8.1563 19.2216
v  -5.3737 121.9511 19.2216
v  -6.1322 121.9511 19.2216
v  49.3492 8.1563 19.6160
v  49.3492 8.1563 -16.4863
v  -5.3737 8.1563 -16.4863
v  49.3492 0.0000 19.6160
v  -5.3737 0.0000 -19.6160
v  -5.3737 8.1563 -19.6160
v  -5.3737 121.9511 -19.6160
v  -5.3737 121.9511 -16.4863
v  49.3492 8.1563 19.2216
v  50.0586 8.1563 19.2216
v  50.0586 121.9511 19.2216
v  49.3492 121.9511 19.2216
v  49.6155 98.4942 18.0880
v  49.6155 99.5216 18.0880
v  -5.8528 99.5216 18.0880
v  -5.8528 98.4942 18.0880
v  -5.8528 97.8902 -17.2725
v  49.6155 97.8902 -17.2725
v  49.6155 97.8902 16.4814
v  -5.8528 97.8902 16.4814
v  49.6155 100.1256 -17.2725
v  -5.8528 100.1256 -17.2725
v  -5.8528 100.1256 16.4814
v  49.6155 100.1256 16.4814
v  49.6155 97.4668 17.5490
v  -5.8528 97.4668 17.5490
v  -5.8528 100.5489 17.5490
v  49.6155 100.5489 17.5490
v  49.6155 66.1774 18.0880
v  49.6155 67.2048 18.0880
v  -5.8528 67.2048 18.0880
v  -5.8528 66.1774 18.0880
v  -5.8528 65.5734 -17.2725
v  49.6155 65.5734 -17.2725
v  49.6155 65.5734 16.4814
v  -5.8528 65.5734 16.4814
v  49.6155 67.8088 -17.2725
v  -5.8528 67.8088 -17.2725
v  -5.8528 67.8088 16.4814
v  49.6155 67.8088 16.4814
v  49.6155 65.1501 17.5490
v  -5.8528 65.1501 17.5490
v  -5.8528 68.2322 17.5490
v  49.6155 68.2322 17.5490
v  49.6155 33.8607 18.0880
v  49.6155 34.8881 18.0880
v  -5.8528 34.8881 18.0880
v  -5.8528 33.8607 18.0880
v  -5.8528 33.2567 -17.2725
v  49.6155 33.2567 -17.2725
v  49.6155 33.2567 16.4814
v  -5.8528 33.2567 16.4814
v  49.6155 35.4921 -17.2725
v  -5.8528 35.4921 -17.2725
v  -5.8528 35.4921 16.4814
v  49.6155 35.4921 16.4814
v  49.6155 32.8333 17.5490
v  -5.8528 32.8333 17.5490
v  -5.8528 35.9154 17.5490
v  49.6155 35.9154 17.5490
# 86 vertices

vn -0.7071 0.0000 0.7071
vn 0.0000 0.0000 1.0000
vn 0.0000 0.4472 0.8944
vn 0.7071 0.0000 0.7071
vn 1.0000 0.0000 -0.0000
vn 0.7071 0.0000 -0.7071
vn 0.0000 0.0000 -1.0000
vn -0.7071 0.0000 -0.7071
vn -1.0000 0.0000 -0.0000
vn -1.0000 0.0000 0.0000
vn 0.7071 0.7071 -0.0000
vn 0.5774 0.5774 -0.5774
vn 0.0000 0.7071 -0.7071
vn -0.3015 0.9045 0.3015
vn -0.7071 0.7071 0.0000
vn -0.5774 0.5774 -0.5773
vn 0.5774 0.5774 0.5774
vn -0.5774 0.5774 0.5774
vn 0.3015 0.9045 0.3015
vn 0.0000 -0.2392 0.9710
vn 0.0000 0.2392 0.9710
vn 0.0000 -1.0000 -0.0000
vn 0.0000 -0.9822 -0.1877
vn 0.0000 1.0000 0.0000
vn 0.0000 0.9822 -0.1877
vn 0.0000 -0.9377 0.3475
vn 0.0000 0.9376 0.3476
vn 0.0000 -0.9376 0.3476
# 28 vertex normals

vt 0.9744 0.5843 0.0000
vt 0.9744 0.5866 0.0000
vt 0.9501 0.5866 0.0000
vt 0.9501 0.5843 0.0000
vt 0.8664 0.8571 0.0000
vt 0.8669 0.9646 0.0000
vt 0.8426 0.9647 0.0000
vt 0.8421 0.8572 0.0000
vt 0.1304 0.7517 0.0000
vt 0.1304 0.7496 0.0000
vt 0.1547 0.7496 0.0000
vt 0.1547 0.7517 0.0000
vt 0.8670 0.3621 0.0000
vt 0.8670 0.3714 0.0000
vt 0.8427 0.3713 0.0000
vt 0.8427 0.3620 0.0000
vt 0.5023 0.7507 0.0000
vt 0.4936 0.7517 0.0000
vt 0.4937 0.7496 0.0000
vt 0.5034 0.7497 0.0000
vt 0.8670 0.9740 0.0000
vt 0.8427 0.9741 0.0000
vt 0.8665 0.4790 0.0000
vt 0.8422 0.4789 0.0000
vt 0.5037 0.3713 0.0000
vt 0.5037 0.3620 0.0000
vt 0.8426 0.4777 0.0000
vt 0.8426 0.4801 0.0000
vt 0.5037 0.4799 0.0000
vt 0.5037 0.4777 0.0000
vt 0.5037 0.9741 0.0000
vt 0.5037 0.9647 0.0000
vt 0.9501 0.7496 0.0000
vt 0.8425 0.7496 0.0000
vt 0.8425 0.5866 0.0000
vt 0.9744 0.7496 0.0000
vt 0.1304 0.5866 0.0000
vt 0.1304 0.5844 0.0000
vt 0.1547 0.5844 0.0000
vt 0.1547 0.5866 0.0000
vt 0.4937 0.5866 0.0000
vt 0.4936 0.5845 0.0000
vt 0.5023 0.5855 0.0000
vt 0.5034 0.5866 0.0000
vt 0.4936 0.5844 0.0000
vt 0.9744 0.7517 0.0000
vt 0.9501 0.7517 0.0000
vt 0.8426 0.8561 0.0000
vt 0.8426 0.8583 0.0000
vt 0.5036 0.8583 0.0000
vt 0.5037 0.8563 0.0000
vt 0.5016 0.4797 0.0000
vt 0.5017 0.8564 0.0000
vt 0.0418 0.2883 0.0000
vt 0.0418 0.2809 0.0000
vt 0.4430 0.2809 0.0000
vt 0.4430 0.2883 0.0000
vt 0.4430 0.5491 0.0000
vt 0.0418 0.5491 0.0000
vt 0.0418 0.3050 0.0000
vt 0.4430 0.3050 0.0000
vt 0.0418 0.0201 0.0000
vt 0.4430 0.0201 0.0000
vt 0.4430 0.2642 0.0000
vt 0.0418 0.2642 0.0000
vt 0.0418 0.2967 0.0000
vt 0.4430 0.2967 0.0000
vt 0.4430 0.2725 0.0000
vt 0.0418 0.2725 0.0000
vt 0.0418 0.0200 0.0000
vt 0.4430 0.0200 0.0000
# 71 texture coords

o EstanteriaAlta_1Cara_Estrecha
g EstanteriaAlta_1Cara_Estrecha
s 8
f 1/1/1 2/2/2 3/3/3 4/4/1 
s 16
f 5/5/4 6/6/5 7/7/5 8/8/4 
s 32
f 9/9/6 10/10/7 11/11/7 12/12/6 
s 64
f 13/13/8 14/14/9 15/15/10 16/16/8 
s 4
f 17/17/11 18/18/12 19/19/13 20/20/14 
s 16
f 6/6/5 9/21/6 12/22/6 7/7/5 
s 64
f 14/14/9 1/23/1 4/24/1 15/15/10 
s off
f 12/12/6 11/11/7 19/19/13 18/18/12 
f 16/16/8 15/15/10 21/25/15 22/26/16 
f 23/27/1 24/28/4 25/29/17 26/30/18 
f 7/7/5 12/22/6 18/31/12 17/32/11 
s 4
f 3/3/3 27/33/3 28/34/18 29/35/17 
s 8
f 2/2/2 30/36/2 27/33/3 3/3/3 
s 32
f 31/37/7 13/38/8 16/39/8 32/40/7 
s 4
f 33/41/13 22/42/16 21/43/15 34/44/19 
s off
f 32/40/7 16/39/8 22/45/16 33/41/13 
f 29/35/17 28/34/18 20/20/14 34/44/19 
s 32
f 10/10/7 31/37/7 32/40/7 11/11/7 
s 4
f 19/19/13 33/41/13 34/44/19 20/20/14 
s off
f 11/11/7 32/40/7 33/41/13 19/19/13 
s 8
f 30/36/2 5/46/4 8/47/4 27/33/3 
s off
f 35/48/1 36/49/4 37/50/17 38/51/18 
f 29/35/17 34/44/19 25/29/17 24/28/4 
f 34/44/19 21/43/15 26/52/18 25/29/17 
f 21/25/15 15/15/10 23/27/1 26/30/18 
f 7/7/5 17/32/11 37/50/17 36/49/4 
f 17/17/11 20/20/14 38/51/18 37/53/17 
f 20/20/14 28/34/18 35/48/1 38/51/18 
s 4
f 39/54/20 40/55/21 41/56/21 42/57/20 
s 8
f 43/58/22 44/59/22 45/60/23 46/61/23 
s 32
f 47/62/24 48/63/24 49/64/25 50/65/25 
s off
f 46/61/23 45/60/23 51/66/26 52/67/26 
f 50/65/25 49/64/25 53/68/27 54/69/27 
s 4
f 40/55/21 54/69/27 53/68/27 41/56/21 
f 42/57/20 52/67/26 51/66/26 39/54/20 
f 55/54/20 56/55/21 57/56/21 58/57/20 
s 8
f 59/58/22 60/59/22 61/60/23 62/61/23 
s 32
f 63/70/24 64/71/24 65/64/25 66/65/25 
s off
f 62/61/23 61/60/23 67/66/26 68/67/26 
f 66/65/25 65/64/25 69/68/27 70/69/27 
s 4
f 56/55/21 70/69/27 69/68/27 57/56/21 
f 58/57/20 68/67/26 67/66/26 55/54/20 
f 71/54/20 72/55/21 73/56/21 74/57/20 
s 8
f 75/58/22 76/59/22 77/60/23 78/61/23 
s 32
f 79/62/24 80/63/24 81/64/25 82/65/25 
s off
f 78/61/23 77/60/23 83/66/28 84/67/28 
f 82/65/25 81/64/25 85/68/27 86/69/27 
s 4
f 72/55/21 86/69/27 85/68/27 73/56/21 
f 74/57/20 84/67/28 83/66/28 71/54/20 
# 49 polygons

