# 3ds Max Wavefront OBJ Exporter v0.97b - (c)2007 guruware
# File Created: 18.03.2020 02:38:43

#
# object Lata
#

v  6.5203 -0.0000 4.5656
v  3.3640 -0.0000 7.2141
v  -0.6937 -0.0000 7.9295
v  -4.5656 -0.0000 6.5203
v  -7.2141 -0.0000 3.3640
v  -7.9295 0.0000 -0.6937
v  -6.5203 0.0000 -4.5656
v  -3.3640 0.0000 -7.2141
v  0.6937 0.0000 -7.9295
v  4.5656 0.0000 -6.5203
v  7.2141 0.0000 -3.3640
v  7.9295 0.0000 0.6937
v  7.2141 11.0612 -3.3640
v  7.9295 11.0612 0.6937
v  4.5656 11.0612 -6.5203
v  0.6937 11.0612 -7.9295
v  -3.3640 11.0612 -7.2140
v  -6.5203 11.0612 -4.5656
v  -7.9295 11.0612 -0.6937
v  -7.2141 11.0612 3.3640
v  -4.5656 11.0612 6.5203
v  -0.6937 11.0612 7.9295
v  3.3640 11.0612 7.2141
v  6.5203 11.0612 4.5656
# 24 vertices

vn 0.6202 -0.6532 0.4343
vn 0.3200 -0.6532 0.6862
vn -0.0660 -0.6532 0.7543
vn -0.4343 -0.6532 0.6202
vn -0.6862 -0.6532 0.3200
vn -0.7543 -0.6532 -0.0660
vn -0.6202 -0.6533 -0.4343
vn -0.3200 -0.6533 -0.6862
vn 0.0660 -0.6533 -0.7542
vn 0.4343 -0.6533 -0.6202
vn 0.6862 -0.6532 -0.3200
vn 0.7543 -0.6532 0.0660
vn 0.6862 0.6532 -0.3200
vn 0.7543 0.6532 0.0660
vn 0.4343 0.6533 -0.6202
vn 0.0660 0.6533 -0.7542
vn -0.3200 0.6533 -0.6862
vn -0.6202 0.6533 -0.4343
vn -0.7543 0.6532 -0.0660
vn -0.6862 0.6532 0.3200
vn -0.4343 0.6532 0.6202
vn -0.0660 0.6532 0.7543
vn 0.3200 0.6532 0.6862
vn 0.6202 0.6532 0.4343
# 24 vertex normals

vt 0.0343 0.8640 0.0000
vt 0.0329 0.7840 0.0000
vt 0.0717 0.7141 0.0000
vt 0.1403 0.6729 0.0000
vt 0.2202 0.6715 0.0000
vt 0.2902 0.7103 0.0000
vt 0.3314 0.7788 0.0000
vt 0.3328 0.8588 0.0000
vt 0.2940 0.9288 0.0000
vt 0.2255 0.9700 0.0000
vt 0.1455 0.9714 0.0000
vt 0.0755 0.9326 0.0000
vt 0.1000 0.0200 0.0000
vt 0.1800 0.0200 0.0000
vt 0.1800 0.2348 0.0000
vt 0.1000 0.2348 0.0000
vt 0.2600 0.0200 0.0000
vt 0.2600 0.2348 0.0000
vt 0.3400 0.0200 0.0000
vt 0.3400 0.2348 0.0000
vt 0.4200 0.0200 0.0000
vt 0.4200 0.2348 0.0000
vt 0.5000 0.0200 0.0000
vt 0.5000 0.2348 0.0000
vt 0.5800 0.0200 0.0000
vt 0.5800 0.2348 0.0000
vt 0.6600 0.0200 0.0000
vt 0.6600 0.2348 0.0000
vt 0.7400 0.0200 0.0000
vt 0.7400 0.2348 0.0000
vt 0.8200 0.0200 0.0000
vt 0.8200 0.2348 0.0000
vt 0.9000 0.0200 0.0000
vt 0.9000 0.2348 0.0000
vt 0.9800 0.0200 0.0000
vt 0.9800 0.2348 0.0000
vt 0.0200 0.0200 0.0000
vt 0.0200 0.2348 0.0000
vt 0.3199 0.3745 0.0000
vt 0.3185 0.4544 0.0000
vt 0.2773 0.5230 0.0000
vt 0.2073 0.5618 0.0000
vt 0.1274 0.5604 0.0000
vt 0.0588 0.5192 0.0000
vt 0.0200 0.4492 0.0000
vt 0.0214 0.3692 0.0000
vt 0.0626 0.3007 0.0000
vt 0.1326 0.2619 0.0000
vt 0.2126 0.2633 0.0000
vt 0.2811 0.3045 0.0000
# 50 texture coords

o Lata
g Lata
s 1
f 1/1/1 2/2/2 3/3/3 4/4/4 5/5/5 6/6/6 7/7/7 8/8/8 9/9/9 10/10/10 11/11/11 12/12/12 
s 8
f 12/13/12 11/14/11 13/15/13 14/16/14 
f 11/14/11 10/17/10 15/18/15 13/15/13 
f 10/17/10 9/19/9 16/20/16 15/18/15 
f 9/19/9 8/21/8 17/22/17 16/20/16 
f 8/21/8 7/23/7 18/24/18 17/22/17 
f 7/23/7 6/25/6 19/26/19 18/24/18 
f 6/25/6 5/27/5 20/28/20 19/26/19 
f 5/27/5 4/29/4 21/30/21 20/28/20 
f 4/29/4 3/31/3 22/32/22 21/30/21 
f 3/31/3 2/33/2 23/34/23 22/32/22 
f 2/33/2 1/35/1 24/36/24 23/34/23 
f 1/37/1 12/13/12 14/16/14 24/38/24 
s 1
f 24/39/24 14/40/14 13/41/13 15/42/15 16/43/16 17/44/17 18/45/18 19/46/19 20/47/20 21/48/21 22/49/22 23/50/23 
# 14 polygons

