# 3ds Max Wavefront OBJ Exporter v0.97b - (c)2007 guruware
# File Created: 20.03.2020 18:00:49

#
# object Foco
#

v  73.1467 0.0000 0.2695
v  68.7354 25.0177 0.2695
v  68.7354 25.0177 11.1131
v  73.1467 0.0000 11.1131
v  56.0336 47.0178 0.2695
v  56.0336 47.0178 11.1131
v  36.5733 63.3469 0.2695
v  36.5733 63.3469 11.1131
v  12.7018 72.0354 0.2695
v  12.7018 72.0354 11.1131
v  -12.7018 72.0354 0.2695
v  -12.7018 72.0354 11.1131
v  -36.5734 63.3469 0.2695
v  -36.5734 63.3469 11.1131
v  -56.0336 47.0178 0.2695
v  -56.0336 47.0178 11.1131
v  -68.7354 25.0177 0.2695
v  -68.7354 25.0177 11.1131
v  -73.1467 0.0000 0.2695
v  -73.1467 0.0000 11.1131
v  -68.7354 -25.0176 0.2695
v  -68.7354 -25.0176 11.1131
v  -56.0336 -47.0178 0.2695
v  -56.0336 -47.0178 11.1131
v  -36.5734 -63.3469 0.2695
v  -36.5734 -63.3469 11.1131
v  -12.7018 -72.0354 0.2695
v  -12.7018 -72.0354 11.1131
v  12.7018 -72.0355 0.2695
v  12.7018 -72.0355 11.1131
v  36.5733 -63.3469 0.2695
v  36.5733 -63.3469 11.1131
v  56.0336 -47.0178 0.2695
v  56.0336 -47.0178 11.1131
v  68.7354 -25.0177 0.2695
v  68.7354 -25.0177 11.1131
v  59.0228 21.4825 11.1131
v  62.8108 0.0000 11.1131
v  48.1158 40.3740 11.1131
v  31.4054 54.3957 11.1131
v  10.9070 61.8565 11.1131
v  -10.9070 61.8565 11.1131
v  -31.4054 54.3957 11.1131
v  -48.1158 40.3740 11.1131
v  -59.0228 21.4825 11.1131
v  -62.8108 0.0000 11.1131
v  -59.0228 -21.4825 11.1131
v  -48.1158 -40.3740 11.1131
v  -31.4054 -54.3957 11.1131
v  -10.9070 -61.8565 11.1131
v  10.9069 -61.8565 11.1131
v  31.4053 -54.3957 11.1131
v  48.1158 -40.3740 11.1131
v  59.0228 -21.4826 11.1131
v  59.0228 21.4825 4.7885
v  62.8108 0.0000 4.7885
v  48.1158 40.3740 4.7885
v  31.4054 54.3957 4.7885
v  10.9070 61.8565 4.7885
v  -10.9070 61.8565 4.7885
v  -31.4054 54.3957 4.7885
v  -48.1158 40.3740 4.7885
v  -59.0228 21.4825 4.7885
v  -62.8108 0.0000 4.7885
v  -59.0228 -21.4825 4.7885
v  -48.1158 -40.3740 4.7885
v  -31.4054 -54.3957 4.7885
v  -10.9070 -61.8565 4.7885
v  10.9069 -61.8565 4.7885
v  31.4053 -54.3957 4.7885
v  48.1158 -40.3740 4.7885
v  59.0228 -21.4826 4.7885
v  41.9688 15.2754 8.8459
v  44.6623 0.0000 8.8459
v  34.2133 28.7083 8.8459
v  22.3311 38.6786 8.8459
v  7.7555 43.9837 8.8459
v  -7.7555 43.9837 8.8459
v  -22.3311 38.6786 8.8459
v  -34.2133 28.7083 8.8459
v  -41.9688 15.2754 8.8459
v  -44.6622 0.0000 8.8459
v  -41.9688 -15.2754 8.8459
v  -34.2133 -28.7083 8.8459
v  -22.3311 -38.6786 8.8459
v  -7.7555 -43.9837 8.8459
v  7.7555 -43.9837 8.8459
v  22.3311 -38.6787 8.8459
v  34.2133 -28.7084 8.8459
v  41.9688 -15.2754 8.8459
v  29.8423 10.8617 10.2134
v  31.7576 0.0000 10.2134
v  24.3277 20.4134 10.2134
v  15.8788 27.5029 10.2134
v  5.5146 31.2751 10.2134
v  -5.5146 31.2751 10.2134
v  -15.8788 27.5029 10.2134
v  -24.3277 20.4134 10.2134
v  -29.8424 10.8617 10.2134
v  -31.7576 0.0000 10.2134
v  -29.8424 -10.8617 10.2134
v  -24.3277 -20.4134 10.2134
v  -15.8788 -27.5029 10.2134
v  -5.5147 -31.2751 10.2134
v  5.5146 -31.2751 10.2134
v  15.8788 -27.5029 10.2134
v  24.3277 -20.4134 10.2134
v  29.8423 -10.8617 10.2134
v  16.2035 5.8976 11.3686
v  17.2434 0.0000 11.3686
v  13.2092 11.0839 11.3686
v  8.6217 14.9332 11.3686
v  2.9943 16.9814 11.3686
v  -2.9943 16.9814 11.3686
v  -8.6217 14.9332 11.3686
v  -13.2092 11.0839 11.3686
v  -16.2035 5.8976 11.3686
v  -17.2434 0.0000 11.3686
v  -16.2035 -5.8976 11.3686
v  -13.2092 -11.0838 11.3686
v  -8.6217 -14.9332 11.3686
v  -2.9943 -16.9814 11.3686
v  2.9942 -16.9814 11.3686
v  8.6217 -14.9332 11.3686
v  13.2092 -11.0838 11.3686
v  16.2034 -5.8976 11.3686
v  8.1941 2.9824 12.0747
v  8.7200 0.0000 12.0747
v  6.6799 5.6051 12.0747
v  4.3600 7.5518 12.0747
v  1.5142 8.5876 12.0747
v  -1.5142 8.5876 12.0747
v  -4.3600 7.5518 12.0747
v  -6.6799 5.6051 12.0747
v  -8.1942 2.9824 12.0747
v  -8.7200 0.0000 12.0747
v  -8.1942 -2.9824 12.0747
v  -6.6799 -5.6051 12.0747
v  -4.3600 -7.5517 12.0747
v  -1.5143 -8.5875 12.0747
v  1.5142 -8.5875 12.0747
v  4.3600 -7.5517 12.0747
v  6.6799 -5.6051 12.0747
v  8.1941 -2.9824 12.0747
# 144 vertices

vn 1.0000 -0.0000 0.0000
vn 0.9397 0.3420 0.0000
vn 0.6976 0.2539 0.6700
vn 0.7423 -0.0000 0.6700
vn 0.7661 0.6428 0.0000
vn 0.5686 0.4771 0.6701
vn 0.5000 0.8660 0.0000
vn 0.3711 0.6429 0.6701
vn 0.1736 0.9848 0.0000
vn 0.1289 0.7311 0.6700
vn -0.1736 0.9848 0.0000
vn -0.1289 0.7311 0.6700
vn -0.5000 0.8660 0.0000
vn -0.3711 0.6429 0.6701
vn -0.7661 0.6428 0.0000
vn -0.5686 0.4771 0.6701
vn -0.9397 0.3420 0.0000
vn -0.6975 0.2539 0.6701
vn -1.0000 -0.0000 0.0000
vn -0.7423 -0.0000 0.6701
vn -0.9397 -0.3420 0.0000
vn -0.6976 -0.2539 0.6700
vn -0.7660 -0.6428 0.0000
vn -0.5687 -0.4772 0.6700
vn -0.5000 -0.8660 0.0000
vn -0.3712 -0.6429 0.6700
vn -0.1736 -0.9848 0.0000
vn -0.1289 -0.7311 0.6700
vn 0.1736 -0.9848 0.0000
vn 0.1289 -0.7311 0.6700
vn 0.5000 -0.8660 0.0000
vn 0.3712 -0.6429 0.6700
vn 0.7660 -0.6428 0.0000
vn 0.5687 -0.4772 0.6700
vn 0.9397 -0.3420 0.0000
vn 0.6976 -0.2539 0.6700
vn -0.6233 -0.2269 0.7484
vn -0.6633 0.0000 0.7484
vn -0.5081 -0.4264 0.7484
vn -0.3316 -0.5744 0.7484
vn -0.1152 -0.6532 0.7484
vn 0.1152 -0.6532 0.7484
vn 0.3316 -0.5744 0.7484
vn 0.5081 -0.4264 0.7484
vn 0.6232 -0.2269 0.7484
vn 0.6633 0.0000 0.7484
vn 0.6233 0.2269 0.7484
vn 0.5081 0.4264 0.7484
vn 0.3316 0.5744 0.7484
vn 0.1152 0.6532 0.7484
vn -0.1152 0.6532 0.7484
vn -0.3316 0.5744 0.7484
vn -0.5081 0.4264 0.7484
vn -0.6233 0.2269 0.7484
vn -0.6321 -0.2301 0.7399
vn -0.6727 0.0000 0.7399
vn -0.5153 -0.4324 0.7399
vn -0.3363 -0.5826 0.7399
vn -0.1168 -0.6625 0.7399
vn 0.1168 -0.6625 0.7399
vn 0.3363 -0.5826 0.7399
vn 0.5153 -0.4324 0.7399
vn 0.6321 -0.2301 0.7400
vn 0.6726 0.0000 0.7400
vn 0.6321 0.2301 0.7399
vn 0.5153 0.4324 0.7399
vn 0.3363 0.5826 0.7399
vn 0.1168 0.6625 0.7399
vn -0.1168 0.6625 0.7399
vn -0.3363 0.5826 0.7399
vn -0.5153 0.4324 0.7399
vn -0.6321 0.2301 0.7399
vn 0.1581 0.0575 0.9858
vn 0.1682 -0.0000 0.9858
vn 0.1289 0.1081 0.9858
vn 0.0841 0.1457 0.9858
vn 0.0292 0.1657 0.9858
vn -0.0292 0.1657 0.9858
vn -0.0841 0.1457 0.9858
vn -0.1289 0.1081 0.9858
vn -0.1581 0.0575 0.9858
vn -0.1682 0.0000 0.9858
vn -0.1581 -0.0575 0.9858
vn -0.1289 -0.1081 0.9858
vn -0.0841 -0.1457 0.9858
vn -0.0292 -0.1657 0.9858
vn 0.0292 -0.1657 0.9858
vn 0.0841 -0.1457 0.9858
vn 0.1289 -0.1081 0.9858
vn 0.1581 -0.0575 0.9858
vn 0.0882 0.0321 0.9956
vn 0.0938 -0.0000 0.9956
vn 0.0719 0.0603 0.9956
vn 0.0469 0.0812 0.9956
vn 0.0163 0.0924 0.9956
vn -0.0163 0.0924 0.9956
vn -0.0469 0.0812 0.9956
vn -0.0719 0.0603 0.9956
vn -0.0882 0.0321 0.9956
vn -0.0938 0.0000 0.9956
vn -0.0882 -0.0321 0.9956
vn -0.0719 -0.0603 0.9956
vn -0.0469 -0.0812 0.9956
vn -0.0163 -0.0924 0.9956
vn 0.0163 -0.0924 0.9956
vn 0.0469 -0.0812 0.9956
vn 0.0719 -0.0603 0.9956
vn 0.0882 -0.0321 0.9956
vn 0.0759 0.0276 0.9967
vn 0.0808 -0.0000 0.9967
vn 0.0619 0.0519 0.9967
vn 0.0404 0.0700 0.9967
vn 0.0140 0.0795 0.9967
vn -0.0140 0.0795 0.9967
vn -0.0404 0.0700 0.9967
vn -0.0619 0.0519 0.9967
vn -0.0759 0.0276 0.9967
vn -0.0808 0.0000 0.9967
vn -0.0759 -0.0276 0.9967
vn -0.0619 -0.0519 0.9967
vn -0.0404 -0.0700 0.9967
vn -0.0140 -0.0795 0.9967
vn 0.0140 -0.0795 0.9967
vn 0.0404 -0.0700 0.9967
vn 0.0619 -0.0519 0.9967
vn 0.0759 -0.0276 0.9967
vn 0.0431 0.0157 0.9989
vn 0.0459 -0.0000 0.9989
vn 0.0352 0.0295 0.9989
vn 0.0229 0.0397 0.9989
vn 0.0080 0.0452 0.9989
vn -0.0080 0.0452 0.9989
vn -0.0229 0.0397 0.9989
vn -0.0352 0.0295 0.9989
vn -0.0431 0.0157 0.9989
vn -0.0459 0.0000 0.9989
vn -0.0431 -0.0157 0.9989
vn -0.0352 -0.0295 0.9989
vn -0.0229 -0.0397 0.9989
vn -0.0080 -0.0452 0.9989
vn 0.0080 -0.0452 0.9989
vn 0.0229 -0.0397 0.9989
vn 0.0352 -0.0295 0.9989
vn 0.0431 -0.0157 0.9989
# 144 vertex normals

vt 0.9644 0.4911 0.0000
vt 0.9362 0.6514 0.0000
vt 0.9004 0.6384 0.0000
vt 0.9264 0.4911 0.0000
vt 0.8548 0.7923 0.0000
vt 0.8257 0.7679 0.0000
vt 0.7302 0.8969 0.0000
vt 0.7112 0.8640 0.0000
vt 0.5773 0.9525 0.0000
vt 0.5707 0.9151 0.0000
vt 0.4146 0.9525 0.0000
vt 0.4212 0.9151 0.0000
vt 0.2617 0.8969 0.0000
vt 0.2807 0.8640 0.0000
vt 0.1370 0.7923 0.0000
vt 0.1662 0.7679 0.0000
vt 0.0557 0.6514 0.0000
vt 0.0914 0.6384 0.0000
vt 0.0274 0.4911 0.0000
vt 0.0654 0.4911 0.0000
vt 0.0557 0.3309 0.0000
vt 0.0914 0.3439 0.0000
vt 0.1370 0.1900 0.0000
vt 0.1662 0.2144 0.0000
vt 0.2617 0.0854 0.0000
vt 0.2807 0.1183 0.0000
vt 0.4146 0.0298 0.0000
vt 0.4212 0.0672 0.0000
vt 0.5773 0.0298 0.0000
vt 0.5707 0.0672 0.0000
vt 0.7302 0.0854 0.0000
vt 0.7112 0.1183 0.0000
vt 0.8548 0.1900 0.0000
vt 0.8257 0.2144 0.0000
vt 0.9362 0.3309 0.0000
vt 0.9004 0.3439 0.0000
vt 0.8451 0.6182 0.0000
vt 0.8675 0.4911 0.0000
vt 0.7806 0.7300 0.0000
vt 0.6817 0.8130 0.0000
vt 0.5605 0.8571 0.0000
vt 0.4314 0.8571 0.0000
vt 0.3101 0.8130 0.0000
vt 0.2113 0.7300 0.0000
vt 0.1467 0.6182 0.0000
vt 0.1243 0.4911 0.0000
vt 0.1467 0.3640 0.0000
vt 0.2113 0.2523 0.0000
vt 0.3101 0.1693 0.0000
vt 0.4314 0.1252 0.0000
vt 0.5605 0.1252 0.0000
vt 0.6817 0.1693 0.0000
vt 0.7806 0.2523 0.0000
vt 0.8451 0.3640 0.0000
vt 0.8149 0.6073 0.0000
vt 0.8354 0.4911 0.0000
vt 0.7560 0.7094 0.0000
vt 0.6657 0.7852 0.0000
vt 0.5549 0.8255 0.0000
vt 0.4370 0.8255 0.0000
vt 0.3262 0.7852 0.0000
vt 0.2359 0.7094 0.0000
vt 0.1769 0.6073 0.0000
vt 0.1565 0.4911 0.0000
vt 0.1769 0.3750 0.0000
vt 0.2359 0.2729 0.0000
vt 0.3262 0.1971 0.0000
vt 0.4370 0.1568 0.0000
vt 0.5549 0.1568 0.0000
vt 0.6657 0.1971 0.0000
vt 0.7560 0.2729 0.0000
vt 0.8149 0.3750 0.0000
vt 0.1872 0.4330 0.0000
vt 0.2247 0.3300 0.0000
vt 0.3050 0.3763 0.0000
vt 0.2785 0.4491 0.0000
vt 0.2952 0.2460 0.0000
vt 0.3548 0.3170 0.0000
vt 0.3902 0.1911 0.0000
vt 0.4219 0.2783 0.0000
vt 0.4982 0.1721 0.0000
vt 0.4982 0.2648 0.0000
vt 0.6062 0.1911 0.0000
vt 0.5745 0.2783 0.0000
vt 0.7011 0.2460 0.0000
vt 0.6415 0.3170 0.0000
vt 0.7716 0.3300 0.0000
vt 0.6913 0.3763 0.0000
vt 0.8092 0.4330 0.0000
vt 0.7178 0.4491 0.0000
vt 0.8092 0.5427 0.0000
vt 0.7178 0.5266 0.0000
vt 0.7716 0.6457 0.0000
vt 0.6913 0.5994 0.0000
vt 0.7012 0.7298 0.0000
vt 0.6415 0.6587 0.0000
vt 0.6062 0.7846 0.0000
vt 0.5745 0.6974 0.0000
vt 0.4982 0.8036 0.0000
vt 0.4982 0.7109 0.0000
vt 0.3902 0.7846 0.0000
vt 0.4219 0.6974 0.0000
vt 0.2952 0.7298 0.0000
vt 0.3548 0.6587 0.0000
vt 0.2247 0.6457 0.0000
vt 0.3050 0.5994 0.0000
vt 0.1872 0.5427 0.0000
vt 0.2785 0.5266 0.0000
vt 0.3610 0.4086 0.0000
vt 0.3421 0.4603 0.0000
vt 0.3963 0.3665 0.0000
vt 0.4440 0.3390 0.0000
vt 0.4982 0.3294 0.0000
vt 0.5524 0.3390 0.0000
vt 0.6000 0.3665 0.0000
vt 0.6354 0.4086 0.0000
vt 0.6542 0.4603 0.0000
vt 0.6542 0.5154 0.0000
vt 0.6354 0.5671 0.0000
vt 0.6000 0.6092 0.0000
vt 0.5524 0.6367 0.0000
vt 0.4982 0.6463 0.0000
vt 0.4440 0.6367 0.0000
vt 0.3963 0.6092 0.0000
vt 0.3610 0.5671 0.0000
vt 0.3421 0.5154 0.0000
vt 0.4238 0.4449 0.0000
vt 0.4136 0.4729 0.0000
vt 0.4429 0.4220 0.0000
vt 0.4688 0.4071 0.0000
vt 0.4982 0.4019 0.0000
vt 0.5276 0.4071 0.0000
vt 0.5534 0.4220 0.0000
vt 0.5726 0.4449 0.0000
vt 0.5828 0.4729 0.0000
vt 0.5828 0.5028 0.0000
vt 0.5726 0.5308 0.0000
vt 0.5534 0.5537 0.0000
vt 0.5276 0.5686 0.0000
vt 0.4982 0.5738 0.0000
vt 0.4688 0.5686 0.0000
vt 0.4429 0.5537 0.0000
vt 0.4238 0.5308 0.0000
vt 0.4136 0.5028 0.0000
vt 0.4606 0.4662 0.0000
vt 0.4554 0.4803 0.0000
vt 0.4703 0.4546 0.0000
vt 0.4833 0.4471 0.0000
vt 0.4982 0.4445 0.0000
vt 0.5130 0.4471 0.0000
vt 0.5261 0.4546 0.0000
vt 0.5357 0.4662 0.0000
vt 0.5409 0.4803 0.0000
vt 0.5409 0.4954 0.0000
vt 0.5357 0.5095 0.0000
vt 0.5261 0.5211 0.0000
vt 0.5130 0.5286 0.0000
vt 0.4982 0.5312 0.0000
vt 0.4833 0.5286 0.0000
vt 0.4703 0.5211 0.0000
vt 0.4606 0.5095 0.0000
vt 0.4554 0.4954 0.0000
# 162 texture coords

o Foco
g Foco
s 1
f 1/1/1 2/2/2 3/3/3 4/4/4 
f 2/2/2 5/5/5 6/6/6 3/3/3 
f 5/5/5 7/7/7 8/8/8 6/6/6 
f 7/7/7 9/9/9 10/10/10 8/8/8 
f 9/9/9 11/11/11 12/12/12 10/10/10 
f 11/11/11 13/13/13 14/14/14 12/12/12 
f 13/13/13 15/15/15 16/16/16 14/14/14 
f 15/15/15 17/17/17 18/18/18 16/16/16 
f 17/17/17 19/19/19 20/20/20 18/18/18 
f 19/19/19 21/21/21 22/22/22 20/20/20 
f 21/21/21 23/23/23 24/24/24 22/22/22 
f 23/23/23 25/25/25 26/26/26 24/24/24 
f 25/25/25 27/27/27 28/28/28 26/26/26 
f 27/27/27 29/29/29 30/30/30 28/28/28 
f 29/29/29 31/31/31 32/32/32 30/30/30 
f 31/31/31 33/33/33 34/34/34 32/32/32 
f 33/33/33 35/35/35 36/36/36 34/34/34 
f 35/35/35 1/1/1 4/4/4 36/36/36 
s 2
f 4/4/4 3/3/3 37/37/37 38/38/38 
f 3/3/3 6/6/6 39/39/39 37/37/37 
f 6/6/6 8/8/8 40/40/40 39/39/39 
f 8/8/8 10/10/10 41/41/41 40/40/40 
f 10/10/10 12/12/12 42/42/42 41/41/41 
f 12/12/12 14/14/14 43/43/43 42/42/42 
f 14/14/14 16/16/16 44/44/44 43/43/43 
f 16/16/16 18/18/18 45/45/45 44/44/44 
f 18/18/18 20/20/20 46/46/46 45/45/45 
f 20/20/20 22/22/22 47/47/47 46/46/46 
f 22/22/22 24/24/24 48/48/48 47/47/47 
f 24/24/24 26/26/26 49/49/49 48/48/48 
f 26/26/26 28/28/28 50/50/50 49/49/49 
f 28/28/28 30/30/30 51/51/51 50/50/50 
f 30/30/30 32/32/32 52/52/52 51/51/51 
f 32/32/32 34/34/34 53/53/53 52/52/52 
f 34/34/34 36/36/36 54/54/54 53/53/53 
f 36/36/36 4/4/4 38/38/38 54/54/54 
s 1
f 38/38/38 37/37/37 55/55/55 56/56/56 
f 37/37/37 39/39/39 57/57/57 55/55/55 
f 39/39/39 40/40/40 58/58/58 57/57/57 
f 40/40/40 41/41/41 59/59/59 58/58/58 
f 41/41/41 42/42/42 60/60/60 59/59/59 
f 42/42/42 43/43/43 61/61/61 60/60/60 
f 43/43/43 44/44/44 62/62/62 61/61/61 
f 44/44/44 45/45/45 63/63/63 62/62/62 
f 45/45/45 46/46/46 64/64/64 63/63/63 
f 46/46/46 47/47/47 65/65/65 64/64/64 
f 47/47/47 48/48/48 66/66/66 65/65/65 
f 48/48/48 49/49/49 67/67/67 66/66/66 
f 49/49/49 50/50/50 68/68/68 67/67/67 
f 50/50/50 51/51/51 69/69/69 68/68/68 
f 51/51/51 52/52/52 70/70/70 69/69/69 
f 52/52/52 53/53/53 71/71/71 70/70/70 
f 53/53/53 54/54/54 72/72/72 71/71/71 
f 54/54/54 38/38/38 56/56/56 72/72/72 
s 4
f 56/73/56 55/74/55 73/75/73 74/76/74 
f 55/74/55 57/77/57 75/78/75 73/75/73 
f 57/77/57 58/79/58 76/80/76 75/78/75 
f 58/79/58 59/81/59 77/82/77 76/80/76 
f 59/81/59 60/83/60 78/84/78 77/82/77 
f 60/83/60 61/85/61 79/86/79 78/84/78 
f 61/85/61 62/87/62 80/88/80 79/86/79 
f 62/87/62 63/89/63 81/90/81 80/88/80 
f 63/89/63 64/91/64 82/92/82 81/90/81 
f 64/91/64 65/93/65 83/94/83 82/92/82 
f 65/93/65 66/95/66 84/96/84 83/94/83 
f 66/95/66 67/97/67 85/98/85 84/96/84 
f 67/97/67 68/99/68 86/100/86 85/98/85 
f 68/99/68 69/101/69 87/102/87 86/100/86 
f 69/101/69 70/103/70 88/104/88 87/102/87 
f 70/103/70 71/105/71 89/106/89 88/104/88 
f 71/105/71 72/107/72 90/108/90 89/106/89 
f 72/107/72 56/73/56 74/76/74 90/108/90 
f 74/76/74 73/75/73 91/109/91 92/110/92 
f 73/75/73 75/78/75 93/111/93 91/109/91 
f 75/78/75 76/80/76 94/112/94 93/111/93 
f 76/80/76 77/82/77 95/113/95 94/112/94 
f 77/82/77 78/84/78 96/114/96 95/113/95 
f 78/84/78 79/86/79 97/115/97 96/114/96 
f 79/86/79 80/88/80 98/116/98 97/115/97 
f 80/88/80 81/90/81 99/117/99 98/116/98 
f 81/90/81 82/92/82 100/118/100 99/117/99 
f 82/92/82 83/94/83 101/119/101 100/118/100 
f 83/94/83 84/96/84 102/120/102 101/119/101 
f 84/96/84 85/98/85 103/121/103 102/120/102 
f 85/98/85 86/100/86 104/122/104 103/121/103 
f 86/100/86 87/102/87 105/123/105 104/122/104 
f 87/102/87 88/104/88 106/124/106 105/123/105 
f 88/104/88 89/106/89 107/125/107 106/124/106 
f 89/106/89 90/108/90 108/126/108 107/125/107 
f 90/108/90 74/76/74 92/110/92 108/126/108 
f 92/110/92 91/109/91 109/127/109 110/128/110 
f 91/109/91 93/111/93 111/129/111 109/127/109 
f 93/111/93 94/112/94 112/130/112 111/129/111 
f 94/112/94 95/113/95 113/131/113 112/130/112 
f 95/113/95 96/114/96 114/132/114 113/131/113 
f 96/114/96 97/115/97 115/133/115 114/132/114 
f 97/115/97 98/116/98 116/134/116 115/133/115 
f 98/116/98 99/117/99 117/135/117 116/134/116 
f 99/117/99 100/118/100 118/136/118 117/135/117 
f 100/118/100 101/119/101 119/137/119 118/136/118 
f 101/119/101 102/120/102 120/138/120 119/137/119 
f 102/120/102 103/121/103 121/139/121 120/138/120 
f 103/121/103 104/122/104 122/140/122 121/139/121 
f 104/122/104 105/123/105 123/141/123 122/140/122 
f 105/123/105 106/124/106 124/142/124 123/141/123 
f 106/124/106 107/125/107 125/143/125 124/142/124 
f 107/125/107 108/126/108 126/144/126 125/143/125 
f 108/126/108 92/110/92 110/128/110 126/144/126 
f 110/128/110 109/127/109 127/145/127 128/146/128 
f 109/127/109 111/129/111 129/147/129 127/145/127 
f 111/129/111 112/130/112 130/148/130 129/147/129 
f 112/130/112 113/131/113 131/149/131 130/148/130 
f 113/131/113 114/132/114 132/150/132 131/149/131 
f 114/132/114 115/133/115 133/151/133 132/150/132 
f 115/133/115 116/134/116 134/152/134 133/151/133 
f 116/134/116 117/135/117 135/153/135 134/152/134 
f 117/135/117 118/136/118 136/154/136 135/153/135 
f 118/136/118 119/137/119 137/155/137 136/154/136 
f 119/137/119 120/138/120 138/156/138 137/155/137 
f 120/138/120 121/139/121 139/157/139 138/156/138 
f 121/139/121 122/140/122 140/158/140 139/157/139 
f 122/140/122 123/141/123 141/159/141 140/158/140 
f 123/141/123 124/142/124 142/160/142 141/159/141 
f 124/142/124 125/143/125 143/161/143 142/160/142 
f 125/143/125 126/144/126 144/162/144 143/161/143 
f 126/144/126 110/128/110 128/146/128 144/162/144 
f 127/145/127 129/147/129 130/148/130 131/149/131 132/150/132 133/151/133 134/152/134 135/153/135 136/154/136 137/155/137 138/156/138 139/157/139 140/158/140 141/159/141 142/160/142 143/161/143 144/162/144 128/146/128 
# 127 polygons

