# 3ds Max Wavefront OBJ Exporter v0.97b - (c)2007 guruware
# File Created: 18.03.2020 23:21:22

#
# object CajaRegistradora
#

v  -42.5243 -30.6324 47.4238
v  -36.9237 -30.6324 47.4238
v  -36.9237 -0.3083 47.4238
v  -42.5243 -0.3083 47.4238
v  -42.5243 -30.6324 39.4836
v  -35.6460 -30.6324 39.4836
v  -21.2645 -30.6324 39.4836
v  -21.2645 -0.3083 39.4836
v  -21.2645 -0.3083 47.4238
v  -21.2645 -30.6324 47.4238
v  -35.6460 -0.3083 39.4836
v  -42.5243 -0.3083 39.4836
v  -35.6460 -30.6324 51.6184
v  -21.2645 -30.6324 47.9797
v  -21.2645 -0.3083 47.9797
v  -35.6460 -0.3083 51.6184
v  -41.6955 -11.8517 61.7571
v  -37.3915 -11.8517 61.7571
v  -37.3915 -1.1960 61.7571
v  -41.6955 -1.1960 61.7571
v  -41.6955 -11.8517 56.6445
v  -37.3915 -11.8517 56.6445
v  -37.9269 -11.1366 57.3596
v  -37.9269 -1.9111 57.3596
v  -37.9269 -1.9111 61.0420
v  -37.9269 -11.1366 61.0420
v  -37.3915 -1.1960 56.6445
v  -41.6955 -1.1960 56.6445
v  -41.0428 -2.8120 56.6445
v  -41.0428 -10.2356 56.6445
v  -38.0442 -2.8120 56.6445
v  -38.0442 -10.2356 56.6445
v  -40.5951 -3.9203 52.7028
v  -40.5951 -9.1273 52.7028
v  -38.4919 -3.9203 52.7028
v  -38.4919 -9.1273 52.7028
v  -40.5951 -3.9203 47.0776
v  -40.5951 -9.1273 47.0776
v  -38.4919 -3.9203 47.0776
v  -38.4919 -9.1273 47.0776
v  -37.3915 -1.9111 57.3596
v  -37.3915 -11.1366 57.3596
v  -37.3915 -1.9111 61.0420
v  -37.3915 -11.1366 61.0420
v  -42.3994 -106.6627 39.3777
v  5.2711 -106.6627 39.3777
v  5.2711 -56.8325 39.3777
v  -42.3994 -69.2912 39.3777
v  5.2711 107.8545 35.8025
v  -42.3994 107.8545 35.8025
v  -42.3994 107.8545 39.3777
v  5.2711 107.8545 39.3777
v  5.2711 -45.6792 39.3777
v  -42.3994 -45.6792 39.3777
v  5.2711 -56.8325 35.8025
v  5.2711 -45.6792 35.8025
v  42.3994 -106.6627 39.3777
v  42.3994 -69.2912 39.3777
v  42.3994 -69.2912 35.8025
v  -42.3994 -106.6627 35.8025
v  -42.3994 -69.2912 35.8025
v  -32.8653 -69.2912 35.8025
v  -32.8653 -97.1286 35.8025
v  -42.3994 -45.6792 35.8025
v  -32.8653 -45.6792 35.8025
v  -32.8653 98.3204 35.8025
v  -4.2630 98.3204 35.8025
v  -4.2630 -45.6792 35.8025
v  -4.2630 -63.6898 35.8025
v  32.8653 -76.1485 35.8025
v  42.3994 -106.6627 35.8025
v  32.8653 -97.1286 35.8025
v  5.2711 -106.6627 35.8025
v  5.2711 -97.1286 35.8025
v  -32.8653 -69.2912 0.0496
v  -32.8653 -97.1286 0.0496
v  -32.8653 -45.6792 0.0496
v  -32.8653 98.3204 0.0496
v  -4.2630 98.3204 0.0496
v  -4.2630 -45.6792 0.0496
v  -4.2630 -63.6898 0.0496
v  32.8653 -76.1485 0.0496
v  32.8653 -97.1286 0.0496
v  5.2711 -97.1286 0.0496
v  -42.3994 -69.2912 34.6107
v  -42.3994 -106.6627 34.6107
v  -44.7829 -109.0463 34.6107
v  -44.7829 -69.2912 34.6107
v  5.2711 -106.6627 34.6107
v  5.2711 -109.0463 34.6107
v  42.3994 -106.6627 34.6107
v  44.7829 -109.0463 34.6107
v  42.3994 -68.0994 34.6107
v  44.7829 -68.0994 34.6107
v  42.3994 -68.0994 41.5099
v  44.7829 -68.0994 41.5099
v  42.3994 -106.6627 41.5099
v  44.7829 -109.0463 41.5099
v  5.2711 -106.6627 41.5099
v  5.2711 -109.0463 41.5099
v  -42.3994 -106.6627 41.5099
v  -44.7829 -109.0463 41.5099
v  -42.3994 -69.2912 41.5099
v  -44.7829 -69.2912 41.5099
v  -42.3994 -45.6792 41.5099
v  -44.7829 -45.6792 41.5099
v  -42.3994 109.0463 41.5099
v  -44.7829 109.0463 41.5099
v  -42.3994 109.0463 34.6107
v  -44.7829 109.0463 34.6107
v  -42.3994 -45.6792 34.6107
v  -44.7829 -45.6792 34.6107
# 112 vertices

vn -0.5774 -0.5774 0.5774
vn -0.2954 -0.8682 0.3987
vn -0.2954 0.8682 0.3987
vn -0.5774 0.5774 0.5774
vn -0.7071 -0.7071 0.0000
vn 0.0000 -1.0000 0.0000
vn 0.7071 -0.7071 0.0000
vn 0.7071 0.7071 0.0000
vn 0.0000 1.0000 0.0000
vn -0.7071 0.7071 0.0000
vn -0.4003 -0.5799 0.7095
vn 0.6362 -0.5915 0.4953
vn 0.6362 0.5915 0.4953
vn -0.4003 0.5799 0.7095
vn 0.5774 -0.5774 0.5774
vn 0.5774 0.5774 0.5774
vn -0.5774 -0.5774 -0.5774
vn 0.5774 -0.5774 -0.5774
vn 0.5774 0.5774 -0.5774
vn -0.5774 0.5774 -0.5774
vn -0.2308 0.2517 -0.9399
vn -0.2308 -0.2517 -0.9399
vn 0.2308 0.2517 -0.9399
vn 0.2308 -0.2517 -0.9399
vn -0.7225 0.6769 -0.1407
vn -0.7225 -0.6769 -0.1407
vn 0.7225 0.6769 -0.1407
vn 0.7225 -0.6769 -0.1407
vn 0.9045 -0.3015 0.3015
vn 0.9045 0.3015 0.3015
vn 0.9045 -0.3015 -0.3015
vn 0.9045 0.3015 -0.3015
vn 0.0000 0.7071 0.7071
vn 0.4079 0.2934 0.8646
vn 0.7071 0.0000 0.7071
vn 0.4079 0.2934 -0.8646
vn 0.7071 0.0000 -0.7071
vn -0.8680 0.3068 0.3904
vn -0.8680 0.3068 -0.3904
vn -0.7071 0.0000 -0.7071
vn -0.3015 -0.3015 -0.9045
vn -0.3015 0.3015 -0.9045
vn 0.3015 0.3015 -0.9045
vn 0.6517 0.4687 -0.5963
vn 0.3015 -0.3015 -0.9045
vn 0.0000 0.7071 -0.7071
vn 0.0000 -0.7071 -0.7071
vn -1.0000 0.0000 0.0000
vn 1.0000 0.0000 0.0000
vn 0.8118 0.5839 0.0000
vn -0.3015 0.3015 0.9045
vn 0.0000 -0.7071 0.7071
vn 0.3015 0.3015 0.9045
vn -0.7071 0.0000 0.7071
# 54 vertex normals

vt 0.2824 0.7567 0.0000
vt 0.2824 0.7083 0.0000
vt 0.5443 0.7083 0.0000
vt 0.5443 0.7567 0.0000
vt 0.1660 0.7022 0.0000
vt 0.1806 0.6446 0.0000
vt 0.2444 0.6721 0.0000
vt 0.2324 0.7190 0.0000
vt 0.2824 0.4687 0.0000
vt 0.5443 0.4687 0.0000
vt 0.5443 0.5373 0.0000
vt 0.2824 0.5373 0.0000
vt 0.6155 0.5242 0.0000
vt 0.6460 0.6446 0.0000
vt 0.5822 0.6721 0.0000
vt 0.5490 0.5410 0.0000
vt 0.5443 0.8253 0.0000
vt 0.2824 0.8253 0.0000
vt 0.2823 0.6703 0.0000
vt 0.2823 0.5422 0.0000
vt 0.5443 0.5422 0.0000
vt 0.5443 0.6703 0.0000
vt 0.2111 0.5242 0.0000
vt 0.2776 0.5410 0.0000
vt 0.6606 0.7022 0.0000
vt 0.5942 0.7190 0.0000
vt 0.2711 0.3152 0.0000
vt 0.2711 0.2871 0.0000
vt 0.3406 0.2871 0.0000
vt 0.3406 0.3152 0.0000
vt 0.2431 0.2538 0.0000
vt 0.2711 0.2538 0.0000
vt 0.2431 0.2871 0.0000
vt 0.1539 0.2692 0.0000
vt 0.2140 0.2692 0.0000
vt 0.2140 0.2933 0.0000
vt 0.1539 0.2933 0.0000
vt 0.3406 0.2538 0.0000
vt 0.3687 0.2538 0.0000
vt 0.3687 0.2871 0.0000
vt 0.3406 0.3486 0.0000
vt 0.2711 0.3486 0.0000
vt 0.2711 0.2257 0.0000
vt 0.3406 0.2257 0.0000
vt 0.3301 0.2299 0.0000
vt 0.2817 0.2299 0.0000
vt 0.3301 0.2495 0.0000
vt 0.2817 0.2495 0.0000
vt 0.1298 0.2837 0.0000
vt 0.1186 0.3293 0.0000
vt 0.0960 0.3161 0.0000
vt 0.1027 0.2817 0.0000
vt 0.1188 0.2033 0.0000
vt 0.1259 0.2208 0.0000
vt 0.1003 0.2299 0.0000
vt 0.0966 0.2163 0.0000
vt 0.1307 0.2670 0.0000
vt 0.1036 0.2656 0.0000
vt 0.0606 0.3107 0.0000
vt 0.0658 0.2779 0.0000
vt 0.0635 0.2338 0.0000
vt 0.0614 0.2207 0.0000
vt 0.0666 0.2661 0.0000
vt 0.3360 0.2584 0.0000
vt 0.2758 0.2584 0.0000
vt 0.3360 0.2825 0.0000
vt 0.2758 0.2825 0.0000
vt 0.3360 0.2619 0.0000
vt 0.2758 0.2619 0.0000
vt 0.3325 0.2825 0.0000
vt 0.3325 0.2584 0.0000
vt 0.2758 0.2790 0.0000
vt 0.3360 0.2790 0.0000
vt 0.2793 0.2584 0.0000
vt 0.2793 0.2825 0.0000
vt 0.7074 0.2976 0.0000
vt 0.8598 0.2976 0.0000
vt 0.8598 0.4570 0.0000
vt 0.7074 0.4171 0.0000
vt 0.4149 0.1636 0.0000
vt 0.5042 0.1636 0.0000
vt 0.5042 0.1703 0.0000
vt 0.4149 0.1703 0.0000
vt 0.8598 0.4927 0.0000
vt 0.7074 0.4927 0.0000
vt 0.1064 0.1636 0.0000
vt 0.1273 0.1636 0.0000
vt 0.1273 0.1703 0.0000
vt 0.1064 0.1703 0.0000
vt 0.8598 0.9837 0.0000
vt 0.7074 0.9837 0.0000
vt 0.9786 0.2976 0.0000
vt 0.9786 0.4171 0.0000
vt 0.0331 0.1703 0.0000
vt 0.0331 0.1636 0.0000
vt 0.9800 0.2702 0.0000
vt 0.9100 0.2702 0.0000
vt 0.9100 0.2524 0.0000
vt 0.9621 0.2524 0.0000
vt 0.8658 0.2702 0.0000
vt 0.8658 0.2524 0.0000
vt 0.5782 0.2702 0.0000
vt 0.5960 0.2524 0.0000
vt 0.5782 0.1809 0.0000
vt 0.5960 0.1988 0.0000
vt 0.8658 0.1809 0.0000
vt 0.8658 0.1988 0.0000
vt 0.8867 0.1809 0.0000
vt 0.8995 0.1988 0.0000
vt 0.9100 0.1114 0.0000
vt 0.9228 0.1293 0.0000
vt 0.9800 0.1114 0.0000
vt 0.9621 0.1293 0.0000
vt 0.9800 0.1809 0.0000
vt 0.9621 0.1809 0.0000
vt 0.4397 0.0870 0.0000
vt 0.3875 0.0870 0.0000
vt 0.3875 0.0200 0.0000
vt 0.4397 0.0200 0.0000
vt 0.3433 0.0870 0.0000
vt 0.3433 0.0200 0.0000
vt 0.0736 0.0870 0.0000
vt 0.0736 0.0200 0.0000
vt 0.0200 0.0870 0.0000
vt 0.0200 0.0200 0.0000
vt 0.9789 0.0870 0.0000
vt 0.7092 0.0870 0.0000
vt 0.7092 0.0200 0.0000
vt 0.9789 0.0200 0.0000
vt 0.6755 0.0870 0.0000
vt 0.6755 0.0200 0.0000
vt 0.6021 0.0870 0.0000
vt 0.6021 0.0200 0.0000
vt 0.5628 0.0870 0.0000
vt 0.5628 0.0200 0.0000
vt 0.5111 0.0870 0.0000
vt 0.5111 0.0200 0.0000
vt 0.1075 0.1942 0.0000
vt 0.0375 0.1942 0.0000
vt 0.0331 0.1897 0.0000
vt 0.1075 0.1897 0.0000
vt 0.0375 0.2835 0.0000
vt 0.0331 0.2835 0.0000
vt 0.0375 0.3530 0.0000
vt 0.0331 0.3575 0.0000
vt 0.1098 0.3530 0.0000
vt 0.1098 0.3575 0.0000
vt 0.6950 0.1049 0.0000
vt 0.6950 0.1178 0.0000
vt 0.6905 0.1178 0.0000
vt 0.6905 0.1049 0.0000
vt 0.1098 0.8046 0.0000
vt 0.0375 0.8046 0.0000
vt 0.0331 0.8001 0.0000
vt 0.1098 0.8001 0.0000
vt 0.0375 0.8741 0.0000
vt 0.0331 0.8741 0.0000
vt 0.0375 0.9634 0.0000
vt 0.0331 0.9679 0.0000
vt 0.1075 0.9634 0.0000
vt 0.1075 0.9679 0.0000
vt 0.1518 0.9634 0.0000
vt 0.1518 0.9679 0.0000
vt 0.4416 0.9634 0.0000
vt 0.4416 0.9679 0.0000
vt 0.0331 0.1178 0.0000
vt 0.0331 0.1049 0.0000
vt 0.0375 0.1049 0.0000
vt 0.0375 0.1178 0.0000
vt 0.4416 0.1942 0.0000
vt 0.1518 0.1942 0.0000
vt 0.1518 0.1897 0.0000
vt 0.4416 0.1897 0.0000
vt 0.3341 0.1365 0.0000
vt 0.2641 0.1365 0.0000
vt 0.2641 0.1342 0.0000
vt 0.3341 0.1342 0.0000
vt 0.1748 0.1365 0.0000
vt 0.1748 0.1342 0.0000
vt 0.1053 0.1365 0.0000
vt 0.1053 0.1342 0.0000
vt 0.0353 0.1365 0.0000
vt 0.0331 0.1342 0.0000
vt 0.0353 0.1432 0.0000
vt 0.0331 0.1472 0.0000
vt 0.1053 0.1432 0.0000
vt 0.1053 0.1472 0.0000
vt 0.1748 0.1432 0.0000
vt 0.1748 0.1472 0.0000
vt 0.2641 0.1432 0.0000
vt 0.2641 0.1472 0.0000
vt 0.3341 0.1432 0.0000
vt 0.3341 0.1472 0.0000
vt 0.3784 0.1432 0.0000
vt 0.3784 0.1472 0.0000
vt 0.6660 0.1432 0.0000
vt 0.6682 0.1472 0.0000
vt 0.6660 0.1365 0.0000
vt 0.6682 0.1342 0.0000
vt 0.3784 0.1365 0.0000
vt 0.3784 0.1342 0.0000
vt 0.3716 0.1049 0.0000
vt 0.3716 0.1178 0.0000
vt 0.3273 0.1178 0.0000
vt 0.3273 0.1049 0.0000
vt 0.4460 0.1049 0.0000
vt 0.4460 0.1178 0.0000
vt 0.5398 0.1049 0.0000
vt 0.5398 0.1178 0.0000
vt 0.6138 0.1049 0.0000
vt 0.6138 0.1178 0.0000
# 211 texture coords

o CajaRegistradora
g CajaRegistradora
s 4
f 1/1/1 2/2/2 3/3/3 4/4/4 
s 8
f 5/5/5 6/6/6 2/7/2 1/8/1 
s 16
f 7/9/7 8/10/8 9/11/8 10/12/7 
s 32
f 8/13/8 11/14/9 3/15/3 9/16/8 
s 64
f 12/17/10 5/18/5 1/1/1 4/4/4 
s 4
f 13/19/11 14/20/12 15/21/13 16/22/14 
s 8
f 6/6/6 7/23/7 10/24/7 2/7/2 
s 32
f 11/14/9 12/25/10 4/26/4 3/15/3 
s off
f 10/12/7 9/11/8 15/21/13 14/20/12 
f 9/16/8 3/15/3 16/22/14 15/21/13 
f 3/3/3 2/2/2 13/19/11 16/22/14 
f 2/7/2 10/24/7 14/20/12 13/19/11 
s 4
f 17/27/1 18/28/15 19/29/16 20/30/4 
s 8
f 21/31/17 22/32/18 18/28/15 17/33/1 
s 16
f 23/34/16 24/35/15 25/36/18 26/37/19 
s 32
f 27/38/19 28/39/20 20/40/4 19/29/16 
s 64
f 28/41/20 21/42/17 17/27/1 20/30/4 
s off
f 21/43/17 28/44/20 29/45/21 30/46/22 
f 28/44/20 27/38/19 31/47/23 29/45/21 
f 27/38/19 22/32/18 32/48/24 31/47/23 
f 22/32/18 21/43/17 30/46/22 32/48/24 
f 30/49/22 29/50/21 33/51/25 34/52/26 
f 29/53/21 31/54/23 35/55/27 33/56/25 
f 31/54/23 32/57/24 36/58/28 35/55/27 
f 32/57/24 30/49/22 34/52/26 36/58/28 
f 34/52/26 33/51/25 37/59/10 38/60/5 
f 33/56/25 35/55/27 39/61/8 37/62/10 
f 35/55/27 36/58/28 40/63/7 39/61/8 
f 36/58/28 34/52/26 38/60/5 40/63/7 
f 22/32/18 27/38/19 41/64/29 42/65/30 
f 27/38/19 19/29/16 43/66/31 41/64/29 
f 19/29/16 18/28/15 44/67/32 43/66/31 
f 18/28/15 22/32/18 42/65/30 44/67/32 
f 42/65/30 41/64/29 24/68/15 23/69/16 
f 41/64/29 43/66/31 25/70/18 24/71/15 
f 43/66/31 44/67/32 26/72/19 25/73/18 
f 44/67/32 42/65/30 23/74/16 26/75/19 
s 4
f 45/76/16 46/77/33 47/78/34 48/79/35 
s 32
f 49/80/19 50/81/32 51/82/30 52/83/16 
s 4
f 47/78/34 53/84/35 54/85/35 48/79/35 
s 16
f 55/86/36 56/87/37 53/88/35 47/89/34 
s 4
f 53/84/35 52/90/16 51/91/30 54/85/35 
s 16
f 56/87/37 49/80/19 52/83/16 53/88/35 
s off
f 47/78/34 46/77/33 57/92/4 58/93/38 
f 55/86/36 47/89/34 58/94/38 59/95/39 
f 60/96/19 61/97/37 62/98/40 63/99/41 
f 61/97/37 64/100/37 65/101/40 62/98/40 
f 64/100/37 50/102/32 66/103/42 65/101/40 
f 50/102/32 49/104/19 67/105/43 66/103/42 
f 49/104/19 56/106/37 68/107/37 67/105/43 
f 56/106/37 55/108/36 69/109/44 68/107/37 
f 55/108/36 59/110/39 70/111/36 69/109/44 
f 59/110/39 71/112/20 72/113/45 70/111/36 
f 71/112/20 73/114/46 74/115/47 72/113/45 
f 73/114/46 60/96/19 63/99/41 74/115/47 
f 63/116/41 62/117/40 75/118/48 76/119/5 
f 62/117/40 65/120/40 77/121/48 75/118/48 
f 65/120/40 66/122/42 78/123/10 77/121/48 
f 66/122/42 67/124/43 79/125/8 78/123/10 
f 67/126/43 68/127/37 80/128/49 79/129/8 
f 68/127/37 69/130/44 81/131/50 80/128/49 
f 69/130/44 70/132/36 82/133/50 81/131/50 
f 70/132/36 72/134/45 83/135/7 82/133/50 
f 72/134/45 74/136/47 84/137/6 83/135/7 
f 74/136/47 63/116/41 76/119/5 84/137/6 
f 85/138/37 86/139/43 87/140/17 88/141/40 
f 86/139/43 89/142/46 90/143/47 87/140/17 
f 89/142/46 91/144/42 92/145/18 90/143/47 
f 91/144/42 93/146/20 94/147/19 92/145/18 
f 93/148/20 95/149/4 96/150/16 94/151/19 
f 95/152/4 97/153/51 98/154/15 96/155/16 
f 97/153/51 99/156/33 100/157/52 98/154/15 
f 99/156/33 101/158/53 102/159/1 100/157/52 
f 101/158/53 103/160/35 104/161/54 102/159/1 
f 103/160/35 105/162/35 106/163/54 104/161/54 
f 105/162/35 107/164/16 108/165/4 106/163/54 
f 107/166/16 109/167/19 110/168/20 108/169/4 
f 109/170/19 111/171/37 112/172/40 110/173/20 
f 111/171/37 85/138/37 88/141/40 112/172/40 
f 61/174/37 60/175/19 86/176/43 85/177/37 
f 60/175/19 73/178/46 89/179/46 86/176/43 
f 73/178/46 71/180/20 91/181/42 89/179/46 
f 71/180/20 59/182/39 93/183/20 91/181/42 
f 59/182/39 58/184/38 95/185/4 93/183/20 
f 58/184/38 57/186/4 97/187/51 95/185/4 
f 57/186/4 46/188/33 99/189/33 97/187/51 
f 46/188/33 45/190/16 101/191/53 99/189/33 
f 45/190/16 48/192/35 103/193/35 101/191/53 
f 48/192/35 54/194/35 105/195/35 103/193/35 
f 54/194/35 51/196/30 107/197/16 105/195/35 
f 51/196/30 50/198/32 109/199/19 107/197/16 
f 50/198/32 64/200/37 111/201/37 109/199/19 
f 64/200/37 61/174/37 85/177/37 111/201/37 
f 88/202/40 104/203/54 106/204/54 112/205/40 
f 106/204/54 108/169/4 110/168/20 112/205/40 
f 88/202/40 87/206/17 102/207/1 104/203/54 
f 87/206/17 90/208/47 100/209/52 102/207/1 
f 90/208/47 92/210/18 98/211/15 100/209/52 
f 92/210/18 94/151/19 96/150/16 98/211/15 
# 99 polygons

