# 3ds Max Wavefront OBJ Exporter v0.97b - (c)2007 guruware
# File Created: 18.03.2020 02:38:17

#
# object Cajas
#

v  -4.9682 0.0000 11.9345
v  -4.9682 0.0000 -11.9345
v  4.9682 0.0000 -11.9345
v  4.9682 0.0000 11.9345
v  -4.9682 30.2403 11.9345
v  4.9682 30.2403 11.9345
v  4.9682 30.2403 -11.9345
v  -4.9682 30.2403 -11.9345
# 8 vertices

vn -0.5774 -0.5774 0.5774
vn -0.5774 -0.5774 -0.5774
vn 0.5774 -0.5774 -0.5774
vn 0.5774 -0.5774 0.5774
vn -0.5774 0.5774 0.5774
vn 0.5774 0.5774 0.5774
vn 0.5774 0.5774 -0.5774
vn -0.5774 0.5774 -0.5774
# 8 vertex normals

vt 0.8186 0.1814 0.0000
vt 0.5000 0.1814 0.0000
vt 0.5000 0.0200 0.0000
vt 0.8186 0.0200 0.0000
vt 0.8186 0.5850 0.0000
vt 0.8186 0.7464 0.0000
vt 0.5000 0.7464 0.0000
vt 0.5000 0.5850 0.0000
vt 0.9800 0.1814 0.0000
vt 0.9800 0.5850 0.0000
vt 0.0200 0.1814 0.0000
vt 0.3386 0.1814 0.0000
vt 0.3386 0.5850 0.0000
vt 0.0200 0.5850 0.0000
# 14 texture coords

o Cajas
g Cajas
s 2
f 1/1/1 2/2/2 3/3/3 4/4/4 
s 4
f 5/5/5 6/6/6 7/7/7 8/8/8 
s 8
f 1/1/1 4/9/4 6/10/6 5/5/5 
s 16
f 4/11/4 3/12/3 7/13/7 6/14/6 
s 32
f 3/12/3 2/2/2 8/8/8 7/13/7 
s 64
f 2/2/2 1/1/1 5/5/5 8/8/8 
# 6 polygons

