# 3ds Max Wavefront OBJ Exporter v0.97b - (c)2007 guruware
# File Created: 20.03.2020 17:32:35

#
# object Congelador_estrecho
#

v  -25.8482 -17.5503 -0.0694
v  25.8482 -17.5503 -0.0694
v  25.8482 -17.5503 18.2653
v  -25.8482 -17.5503 18.2653
v  -25.8482 -12.5796 -0.0694
v  -25.8482 -16.2555 27.3288
v  -25.8482 -12.3712 33.8027
v  25.8482 -16.2555 27.3288
v  25.8482 17.5503 -0.0694
v  -25.8482 17.5503 -0.0694
v  -25.8482 17.5503 38.9818
v  25.8482 17.5503 38.9818
v  -25.8482 14.3136 38.9818
v  -25.8482 3.1662 38.9818
v  -23.8482 3.1662 38.9818
v  -23.8482 13.5503 38.9818
v  -25.8482 -5.8972 37.6870
v  -23.8482 -5.8972 37.6870
v  -23.8482 -12.3712 33.8027
v  -23.8482 -15.2265 29.0438
v  23.8482 -15.2265 29.0438
v  25.8482 -12.3712 33.8027
v  23.8482 -12.3712 33.8027
v  25.8482 -5.8972 37.6870
v  23.8482 -5.8972 37.6870
v  25.8482 3.1662 38.9818
v  23.8482 3.1662 38.9818
v  25.8482 14.3136 38.9818
v  23.8482 13.5503 38.9818
v  -23.8482 3.1662 23.6209
v  -23.8482 13.5503 23.6209
v  -23.8482 -5.8972 23.6192
v  -23.8482 -12.3712 23.6141
v  -23.8482 -15.2265 23.6080
v  23.8482 -15.2265 23.6080
v  23.8482 -12.3712 23.6141
v  23.8482 -5.8972 23.6192
v  23.8482 3.1662 23.6209
v  23.8482 13.5503 23.6209
v  -25.8482 15.5503 -0.0694
v  -25.8482 15.5503 46.9734
v  25.8482 15.5503 46.9734
v  25.8482 17.5503 46.9734
v  -25.8482 17.5503 46.9734
v  25.8482 -12.3712 -0.0476
v  25.8482 -5.8972 0.0419
v  25.8482 3.1662 0.0718
v  25.8482 14.3136 0.0718
v  -25.8482 3.2995 -0.0694
v  -25.8482 -6.3257 -0.0694
# 50 vertices

vn -0.7071 -0.7071 0.0000
vn 0.7062 -0.7081 0.0000
vn 0.6915 -0.7206 0.0512
vn -0.6915 -0.7206 0.0512
vn -1.0000 0.0000 0.0000
vn -0.6651 -0.7037 0.2498
vn -0.6564 -0.5335 0.5335
vn 0.6651 -0.7037 0.2498
vn 0.6971 0.7170 0.0000
vn -0.7071 0.7071 0.0000
vn 0.7071 0.7071 0.0000
vn -0.8860 -0.3017 0.3520
vn -0.6915 -0.0512 0.7206
vn 0.6915 -0.0512 0.7206
vn 0.3015 -0.3015 0.9045
vn -0.6651 -0.2498 0.7037
vn 0.6651 -0.2498 0.7037
vn 0.6564 -0.5335 0.5335
vn 0.6008 -0.5705 0.5600
vn -0.6008 -0.5705 0.5600
vn 0.8860 -0.3017 0.3520
vn -0.3015 -0.3015 0.9045
vn 0.7071 -0.0001 0.7071
vn 0.5774 -0.5774 0.5774
vn 0.7072 -0.0003 0.7070
vn 0.7073 -0.0010 0.7070
vn 0.5772 0.5768 0.5780
vn -0.5772 0.5768 0.5780
vn -0.7073 -0.0010 0.7070
vn -0.7072 -0.0003 0.7070
vn -0.7071 -0.0001 0.7071
vn -0.5774 -0.5774 0.5774
vn -0.5859 -0.5274 0.6153
vn 0.5859 -0.5274 0.6153
vn 0.5774 0.5774 0.5774
vn -0.5774 0.5774 0.5774
vn 1.0000 0.0000 0.0000
# 37 vertex normals

vt 0.1908 0.0200 0.0000
vt 0.4423 0.0200 0.0000
vt 0.4423 0.1092 0.0000
vt 0.1908 0.1092 0.0000
vt 0.1666 0.0200 0.0000
vt 0.1845 0.1533 0.0000
vt 0.1656 0.1848 0.0000
vt 0.1908 0.1538 0.0000
vt 0.4423 0.1538 0.0000
vt 0.4423 0.6040 0.0000
vt 0.1907 0.6040 0.0000
vt 0.1907 0.4140 0.0000
vt 0.4423 0.4140 0.0000
vt 0.1907 0.3260 0.0000
vt 0.1907 0.2718 0.0000
vt 0.2005 0.2718 0.0000
vt 0.2005 0.3223 0.0000
vt 0.1907 0.2272 0.0000
vt 0.2005 0.2272 0.0000
vt 0.1907 0.1905 0.0000
vt 0.2005 0.1905 0.0000
vt 0.2005 0.1635 0.0000
vt 0.4326 0.1635 0.0000
vt 0.4422 0.1905 0.0000
vt 0.4325 0.1905 0.0000
vt 0.4422 0.2272 0.0000
vt 0.4325 0.2272 0.0000
vt 0.4422 0.2718 0.0000
vt 0.4325 0.2718 0.0000
vt 0.4423 0.3260 0.0000
vt 0.4325 0.3223 0.0000
vt 0.2692 0.2988 0.0000
vt 0.2484 0.2988 0.0000
vt 0.2484 0.2680 0.0000
vt 0.2692 0.2680 0.0000
vt 0.2302 0.2962 0.0000
vt 0.2302 0.2680 0.0000
vt 0.2173 0.2884 0.0000
vt 0.2173 0.2680 0.0000
vt 0.2115 0.2788 0.0000
vt 0.2115 0.2679 0.0000
vt 0.2692 0.1994 0.0000
vt 0.3648 0.1994 0.0000
vt 0.3648 0.2103 0.0000
vt 0.2692 0.2103 0.0000
vt 0.4225 0.2788 0.0000
vt 0.4168 0.2884 0.0000
vt 0.4168 0.2680 0.0000
vt 0.4225 0.2679 0.0000
vt 0.4038 0.2962 0.0000
vt 0.4038 0.2680 0.0000
vt 0.3857 0.2988 0.0000
vt 0.3857 0.2680 0.0000
vt 0.3648 0.2988 0.0000
vt 0.3648 0.2680 0.0000
vt 0.3648 0.2290 0.0000
vt 0.3648 0.2471 0.0000
vt 0.2692 0.2471 0.0000
vt 0.2692 0.2290 0.0000
vt 0.3648 0.2160 0.0000
vt 0.2692 0.2160 0.0000
vt 0.0297 0.0200 0.0000
vt 0.0357 0.2100 0.0000
vt 0.0200 0.2100 0.0000
vt 0.0200 0.0200 0.0000
vt 0.1907 0.3654 0.0000
vt 0.4423 0.3654 0.0000
vt 0.4423 0.3751 0.0000
vt 0.1907 0.3751 0.0000
vt 0.0297 0.2489 0.0000
vt 0.0200 0.2489 0.0000
vt 0.4675 0.1850 0.0000
vt 0.4486 0.1534 0.0000
vt 0.4675 0.0201 0.0000
vt 0.4991 0.2039 0.0000
vt 0.4991 0.0205 0.0000
vt 0.5432 0.2102 0.0000
vt 0.5432 0.0206 0.0000
vt 0.5975 0.2102 0.0000
vt 0.5975 0.0206 0.0000
vt 0.6133 0.0199 0.0000
vt 0.6133 0.2102 0.0000
vt 0.6036 0.2491 0.0000
vt 0.6133 0.2491 0.0000
vt 0.0900 0.2100 0.0000
vt 0.0893 0.0200 0.0000
vt 0.1341 0.2037 0.0000
vt 0.1362 0.0200 0.0000
# 88 texture coords

o Congelador_estrecho
g Congelador_estrecho
s 2
f 1/1/1 2/2/2 3/3/3 4/4/4 
s 4
f 5/5/5 1/1/1 4/4/4 6/6/6 7/7/7 
s 2
f 6/8/6 4/4/4 3/3/3 8/9/8 
s 8
f 9/10/9 10/11/10 11/12/10 12/13/11 
s 1
f 13/14/12 14/15/13 15/16/14 16/17/15 
f 14/15/13 17/18/16 18/19/17 15/16/14 
f 17/18/16 7/20/7 19/21/18 18/19/17 
f 7/20/7 6/8/6 20/22/19 19/21/18 
f 6/8/6 8/9/8 21/23/20 20/22/19 
f 8/9/8 22/24/18 23/25/7 21/23/20 
f 22/24/18 24/26/17 25/27/16 23/25/7 
f 24/26/17 26/28/14 27/29/13 25/27/16 
f 26/28/14 28/30/21 29/31/22 27/29/13 
f 28/30/21 13/14/12 16/17/15 29/31/22 
s off
f 16/32/15 15/33/14 30/34/23 31/35/24 
f 15/33/14 18/36/17 32/37/25 30/34/23 
f 18/36/17 19/38/18 33/39/26 32/37/25 
f 19/38/18 20/40/19 34/41/27 33/39/26 
f 20/42/19 21/43/20 35/44/28 34/45/27 
f 21/46/20 23/47/7 36/48/29 35/49/28 
f 23/47/7 25/50/16 37/51/30 36/48/29 
f 25/50/16 27/52/13 38/53/31 37/51/30 
f 27/52/13 29/54/22 39/55/32 38/53/31 
f 29/54/22 16/32/15 31/35/24 39/55/32 
s 1
f 37/56/30 38/57/31 30/58/23 32/59/25 
f 36/60/29 37/56/30 32/59/25 33/61/26 
s off
f 30/58/23 38/57/31 39/55/32 31/35/24 
f 34/45/27 35/44/28 36/60/29 33/61/26 
f 40/62/5 13/63/12 11/64/10 10/65/10 
f 41/66/33 42/67/34 43/68/35 44/69/36 
f 12/13/11 11/12/10 44/69/36 43/68/35 
f 11/64/10 13/63/12 41/70/33 44/71/36 
f 13/14/12 28/30/21 42/67/34 41/66/33 
f 22/72/18 8/73/8 3/3/3 2/2/2 45/74/37 
f 24/75/17 22/72/18 45/74/37 46/76/37 
f 26/77/14 24/75/17 46/76/37 47/78/37 
f 28/79/21 26/77/14 47/78/37 48/80/37 
s 1
f 28/79/21 48/80/37 9/81/9 12/82/11 
s off
f 42/83/34 28/79/21 12/82/11 43/84/35 
s 4
f 14/85/13 13/63/12 40/62/5 49/86/5 
f 17/87/16 14/85/13 49/86/5 50/88/5 
f 7/7/7 17/87/16 50/88/5 5/5/5 
# 42 polygons

