# Blender v2.81 (sub 16) OBJ File: ''
# www.blender.org
mtllib Carne.mtl
v -2.040498 -2.421520 1.816420
v -1.810610 -2.765572 1.816420
v -1.466557 -2.995460 1.816420
v -1.060720 -3.076188 1.816420
v 1.060718 -3.076188 1.816420
v 1.466556 -2.995460 1.816420
v 1.810609 -2.765572 1.816420
v 2.040498 -2.421520 1.816420
v 2.121224 -2.015681 1.816420
v 2.121224 2.015679 1.816419
v 2.040498 2.421516 1.816419
v 1.810609 2.765570 1.816419
v 1.466556 2.995460 1.816419
v 1.060718 3.076185 1.816419
v -1.060720 3.076185 1.816419
v -1.466557 2.995460 1.816419
v -1.810610 2.765570 1.816419
v -2.040498 2.421516 1.816419
v -2.121224 2.015679 1.816419
v -2.121224 -2.015681 1.816420
v 1.026763 2.977714 0.360326
v 0.989111 2.771306 0.019801
v -0.989112 2.771306 0.019801
v -1.026765 2.977714 0.360326
v 0.945385 2.396207 -0.113522
v -0.945386 2.396207 -0.113522
v 1.492379 1.838430 -0.113522
v 1.865392 1.892052 0.025665
v 1.865392 -1.892055 0.025665
v 1.492379 -1.838432 -0.113522
v 2.055572 1.953295 0.376133
v 2.055572 -1.953295 0.376133
v 0.945384 -2.396209 -0.113522
v 0.989111 -2.771309 0.019802
v -0.989112 -2.771309 0.019802
v -0.945385 -2.396209 -0.113522
v 1.026763 -2.977716 0.360327
v -1.026765 -2.977716 0.360327
v -2.055573 1.953295 0.376133
v -1.865393 1.892052 0.025665
v -1.865393 -1.892052 0.025665
v -2.055573 -1.953295 0.376133
v -1.492380 1.838430 -0.113522
v -1.492380 -1.838431 -0.113522
v 1.131565 3.281649 1.832003
v -1.131567 3.281649 1.832003
v 1.131565 -3.281650 1.832004
v -1.131567 -3.281650 1.832004
v -2.262904 2.150310 1.832003
v -2.262904 -2.150310 1.832004
v 2.262903 -2.150310 1.832004
v 2.262903 2.150310 1.832003
v 1.976107 2.345104 0.367103
v 2.176786 2.583253 1.832003
v 1.752572 2.676924 0.359692
v 1.931542 2.950287 1.832003
v 1.419409 2.899160 0.358276
v 1.564509 3.195531 1.832003
v -1.419409 2.899160 0.358276
v -1.564509 3.195531 1.832003
v -1.752574 2.676924 0.359692
v -1.931543 2.950287 1.832003
v -1.976107 2.345104 0.367103
v -2.176785 2.583253 1.832003
v 2.176786 -2.583255 1.832004
v 1.976107 -2.345104 0.367103
v 1.931542 -2.950288 1.832004
v 1.752572 -2.676924 0.359693
v 1.564509 -3.195530 1.832004
v 1.419409 -2.899160 0.358277
v -1.564509 -3.195530 1.832004
v -1.419409 -2.899160 0.358277
v -1.931543 -2.950288 1.832004
v -1.752574 -2.676924 0.359693
v -2.176785 -2.583255 1.832004
v -1.976107 -2.345104 0.367103
v -1.443852 2.073772 -0.113522
v -1.344069 2.238083 -0.113522
v -1.184642 2.349650 -0.113522
v 1.184138 2.348435 -0.113522
v 1.347091 2.241104 -0.113522
v 1.452513 2.077361 -0.113522
v 1.452513 -2.077362 -0.113522
v 1.347092 -2.241105 -0.113522
v 1.184138 -2.348435 -0.113522
v -1.184641 -2.349650 -0.113522
v -1.344070 -2.238082 -0.113522
v -1.443852 -2.073775 -0.113522
v -1.333117 2.703250 0.018973
v 1.799533 2.235472 0.022275
v 1.799533 -2.235474 0.022276
v -1.333117 -2.703251 0.018974
v 1.613397 2.515940 0.019515
v 1.332975 2.702909 0.018973
v -1.612548 2.515091 0.019515
v -1.797087 2.234458 0.022274
v 1.613397 -2.515940 0.019516
v 1.332975 -2.702910 0.018974
v -1.612549 -2.515091 0.019515
v -1.797087 -2.234461 0.022274
v -2.169773 -3.314167 1.832004
v -2.445264 -2.901866 1.832004
v -1.757471 -3.589658 1.832004
v -1.271130 -3.686400 1.832004
v 1.271129 -3.686400 1.832004
v 1.757471 -3.589658 1.832004
v 2.169772 -3.314167 1.832004
v 2.445264 -2.901866 1.832004
v 2.542003 -2.415522 1.832004
v 2.542003 2.415522 1.832003
v 2.445264 2.901864 1.832003
v 2.169772 3.314166 1.832003
v 1.757471 3.589658 1.832003
v 1.271129 3.686397 1.832003
v -1.271130 3.686397 1.832003
v -1.757471 3.589658 1.832003
v -2.169773 3.314166 1.832003
v -2.445264 2.901864 1.832003
v -2.542003 2.415522 1.832003
v -2.542003 -2.415522 1.832004
v -2.169773 -3.314167 1.900542
v -2.445264 -2.901866 1.900542
v -1.757471 -3.589658 1.900542
v -1.271130 -3.686400 1.900542
v 1.271129 -3.686400 1.900542
v 1.757471 -3.589658 1.900542
v 2.169772 -3.314167 1.900542
v 2.445264 -2.901866 1.900542
v 2.542003 -2.415522 1.900542
v 2.542003 2.415522 1.900542
v 2.445264 2.901864 1.900541
v 2.169772 3.314166 1.900541
v 1.757471 3.589658 1.900541
v 1.271129 3.686397 1.900541
v -1.271130 3.686397 1.900541
v -1.757471 3.589658 1.900541
v -2.169773 3.314166 1.900541
v -2.445264 2.901864 1.900541
v -2.542003 2.415522 1.900542
v -2.542003 -2.415522 1.900542
vt 0.742384 0.546416
vt 0.728246 0.532748
vt 0.718734 0.512262
vt 0.715347 0.488107
vt 0.715428 0.361567
vt 0.718823 0.337450
vt 0.728340 0.317022
vt 0.742487 0.303379
vt 0.759126 0.298599
vt 0.924708 0.298704
vt 0.941324 0.303480
vt 0.955466 0.317178
vt 0.964947 0.337649
vt 0.968321 0.361806
vt 0.968174 0.488244
vt 0.964777 0.512342
vt 0.955248 0.532739
vt 0.941086 0.546356
vt 0.924449 0.551128
vt 0.758983 0.551161
vt 0.677105 0.061541
vt 0.663072 0.046366
vt 0.677570 0.032204
vt 0.692866 0.048967
vt 0.641814 0.036002
vt 0.653932 0.020364
vt 0.616161 0.032085
vt 0.625137 0.015440
vt 0.480384 0.030175
vt 0.471833 0.013409
vt 0.454546 0.034198
vt 0.442426 0.018432
vt 0.432704 0.044712
vt 0.418248 0.030350
vt 0.418132 0.059774
vt 0.402498 0.047182
vt 0.412990 0.077365
vt 0.396309 0.066437
vt 0.413008 0.253608
vt 0.396322 0.264722
vt 0.417982 0.271295
vt 0.402221 0.283869
vt 0.432015 0.286470
vt 0.417517 0.300632
vt 0.453273 0.296834
vt 0.441155 0.312472
vt 0.478926 0.300751
vt 0.469950 0.317396
vt 0.614703 0.302660
vt 0.623254 0.319427
vt 0.640541 0.298638
vt 0.652661 0.314403
vt 0.662383 0.288124
vt 0.676839 0.302486
vt 0.676955 0.273061
vt 0.692589 0.285654
vt 0.682097 0.255471
vt 0.698778 0.266399
vt 0.682079 0.079228
vt 0.698764 0.068114
vt 0.254518 0.756346
vt 0.298535 0.735093
vt 0.348522 0.839959
vt 0.305799 0.863487
vt 0.276069 0.675502
vt 0.227551 0.683876
vt 0.203463 0.533404
vt 0.253320 0.526995
vt 0.258356 0.463089
vt 0.210183 0.457031
vt 0.224001 0.341016
vt 0.272897 0.347229
vt 0.298976 0.120289
vt 0.344278 0.143355
vt 0.283929 0.284070
vt 0.238568 0.265268
vt 0.060652 0.820768
vt 0.115383 0.950457
vt 0.005998 0.445139
vt 0.024731 0.303285
vt 0.113221 0.040109
vt 0.045320 0.209863
vt 0.005184 0.541633
vt 0.029952 0.730024
vt 0.232039 0.699109
vt 0.035236 0.749227
vt 0.238237 0.716140
vt 0.042068 0.770705
vt 0.245787 0.735540
vt 0.050681 0.794954
vt 0.316249 0.884499
vt 0.126561 0.974337
vt 0.326246 0.903895
vt 0.137161 0.996094
vt 0.317980 0.089877
vt 0.307495 0.105893
vt 0.120945 0.022922
vt 0.130365 0.003906
vt 0.004146 0.521637
vt 0.203885 0.517605
vt 0.003906 0.498972
vt 0.205370 0.499656
vt 0.004534 0.473058
vt 0.207426 0.479129
vt 0.029522 0.275912
vt 0.227412 0.318915
vt 0.034678 0.250715
vt 0.231043 0.298492
vt 0.039926 0.228894
vt 0.234555 0.280706
vt 0.357638 0.858273
vt 0.277898 0.688770
vt 0.251510 0.513776
vt 0.274015 0.327669
vt 0.282612 0.702523
vt 0.289622 0.717916
vt 0.367583 0.873735
vt 0.361675 0.119607
vt 0.351237 0.131059
vt 0.252267 0.499203
vt 0.254694 0.482328
vt 0.275846 0.310718
vt 0.278823 0.296434
vt 0.320233 0.724036
vt 0.369216 0.827427
vt 0.304847 0.673766
vt 0.282432 0.519561
vt 0.282136 0.466055
vt 0.297189 0.350182
vt 0.371555 0.155957
vt 0.309056 0.298480
vt 0.734998 0.003917
vt 0.886123 0.003906
vt 0.895796 0.006798
vt 0.902550 0.012745
vt 0.907136 0.022248
vt 0.909051 0.036508
vt 0.909059 0.149209
vt 0.907096 0.163440
vt 0.902685 0.173153
vt 0.895956 0.179437
vt 0.886135 0.181814
vt 0.735010 0.181825
vt 0.725189 0.179449
vt 0.718459 0.173166
vt 0.714047 0.163453
vt 0.712082 0.149222
vt 0.712074 0.036522
vt 0.713987 0.022261
vt 0.718572 0.012758
vt 0.725325 0.006810
vt 0.376173 0.840921
vt 0.305424 0.686370
vt 0.279127 0.507308
vt 0.298452 0.333074
vt 0.308230 0.697321
vt 0.312919 0.709121
vt 0.382725 0.849635
vt 0.382747 0.139584
vt 0.376370 0.146092
vt 0.278613 0.495882
vt 0.279671 0.482966
vt 0.300453 0.320416
vt 0.303600 0.309753
vt 0.683270 0.024785
vt 0.700820 0.044181
vt 0.657072 0.011521
vt 0.626013 0.005958
vt 0.471279 0.003906
vt 0.439285 0.009497
vt 0.412418 0.022965
vt 0.394463 0.042620
vt 0.386864 0.065369
vt 0.386902 0.265931
vt 0.394266 0.288655
vt 0.411817 0.308051
vt 0.438015 0.321315
vt 0.469074 0.326878
vt 0.623808 0.328929
vt 0.655802 0.323339
vt 0.682669 0.309871
vt 0.700624 0.290216
vt 0.708223 0.267467
vt 0.708185 0.066905
vt 0.721757 0.572361
vt 0.704317 0.555687
vt 0.692365 0.530697
vt 0.687760 0.501053
vt 0.687785 0.348602
vt 0.692452 0.319019
vt 0.704415 0.294099
vt 0.721841 0.277466
vt 0.742182 0.271097
vt 0.941653 0.271128
vt 0.962002 0.277568
vt 0.979425 0.294275
vt 0.991338 0.319258
vt 0.995913 0.348883
vt 0.995813 0.501219
vt 0.991132 0.530791
vt 0.979149 0.555683
vt 0.961721 0.572284
vt 0.941394 0.578623
vt 0.742093 0.578753
vn -0.0000 0.0000 1.0000
vn 0.0000 -0.0000 -1.0000
vn 0.0301 0.9632 -0.2671
vn 0.0251 0.8536 -0.5203
vn -0.0250 0.8537 -0.5202
vn -0.0301 0.9632 -0.2671
vn 0.8778 0.0143 -0.4787
vn 0.9776 0.0175 -0.2099
vn 0.9776 -0.0175 -0.2099
vn 0.8778 -0.0143 -0.4787
vn 0.0251 -0.8536 -0.5202
vn 0.0302 -0.9632 -0.2671
vn -0.0301 -0.9632 -0.2670
vn -0.0250 -0.8537 -0.5202
vn -0.9776 0.0176 -0.2099
vn -0.8777 0.0145 -0.4790
vn -0.8777 -0.0145 -0.4790
vn -0.9776 -0.0176 -0.2099
vn 0.0321 0.9784 -0.2043
vn -0.0321 0.9784 -0.2043
vn 0.0321 -0.9784 -0.2043
vn -0.0321 -0.9784 -0.2043
vn -0.9895 0.0187 -0.1434
vn -0.9895 -0.0187 -0.1434
vn 0.9895 -0.0187 -0.1434
vn 0.9895 0.0187 -0.1434
vn 0.8941 0.3723 -0.2490
vn 0.9070 0.3779 -0.1857
vn 0.6787 0.6811 -0.2748
vn 0.6917 0.6903 -0.2122
vn 0.3660 0.8874 -0.2802
vn 0.3762 0.9005 -0.2181
vn -0.3661 0.8874 -0.2803
vn -0.3762 0.9005 -0.2181
vn -0.6791 0.6805 -0.2752
vn -0.6917 0.6903 -0.2122
vn -0.8939 0.3724 -0.2496
vn -0.9070 0.3779 -0.1857
vn 0.9070 -0.3779 -0.1857
vn 0.8941 -0.3723 -0.2490
vn 0.6917 -0.6903 -0.2122
vn 0.6786 -0.6811 -0.2748
vn 0.3762 -0.9005 -0.2181
vn 0.3660 -0.8874 -0.2802
vn -0.3762 -0.9005 -0.2181
vn -0.3661 -0.8874 -0.2803
vn -0.6917 -0.6903 -0.2122
vn -0.6788 -0.6808 -0.2752
vn -0.9070 -0.3779 -0.1857
vn -0.8939 -0.3724 -0.2496
vn -0.3169 0.7838 -0.5340
vn 0.7959 0.3242 -0.5113
vn 0.7959 -0.3242 -0.5113
vn -0.3169 -0.7838 -0.5340
vn 0.5972 0.6022 -0.5298
vn 0.3163 0.7843 -0.5337
vn -0.5975 0.6001 -0.5318
vn -0.7941 0.3242 -0.5142
vn 0.5972 -0.6023 -0.5298
vn 0.3164 -0.7842 -0.5337
vn -0.5975 -0.6002 -0.5318
vn -0.7941 -0.3242 -0.5142
vn 0.0091 0.3338 -0.9426
vn 0.0003 0.0113 -0.9999
vn -0.0003 0.0113 -0.9999
vn -0.0090 0.3339 -0.9426
vn 0.0213 0.0003 -0.9998
vn 0.3491 0.0039 -0.9371
vn 0.3491 -0.0040 -0.9371
vn 0.0213 -0.0003 -0.9998
vn 0.0003 -0.0113 -0.9999
vn 0.0091 -0.3338 -0.9426
vn -0.0090 -0.3339 -0.9426
vn -0.0003 -0.0113 -0.9999
vn -0.3488 0.0044 -0.9372
vn -0.0217 0.0003 -0.9998
vn -0.0217 -0.0003 -0.9998
vn -0.3488 -0.0044 -0.9372
vn -0.0031 0.0012 -1.0000
vn -0.0022 0.0022 -1.0000
vn -0.0011 0.0029 -1.0000
vn 0.0011 0.0028 -1.0000
vn 0.0021 0.0022 -1.0000
vn 0.0033 0.0013 -1.0000
vn 0.0033 -0.0013 -1.0000
vn 0.0021 -0.0022 -1.0000
vn 0.0011 -0.0028 -1.0000
vn -0.0011 -0.0029 -1.0000
vn -0.0022 -0.0022 -1.0000
vn -0.0031 -0.0012 -1.0000
vn -0.1297 0.2992 -0.9453
vn 0.3191 0.1079 -0.9416
vn 0.3191 -0.1079 -0.9416
vn -0.1297 -0.2992 -0.9453
vn 0.2437 0.2211 -0.9443
vn 0.1284 0.3005 -0.9451
vn -0.2446 0.2166 -0.9451
vn -0.3160 0.1091 -0.9425
vn 0.2437 -0.2211 -0.9443
vn 0.1284 -0.3005 -0.9451
vn -0.2446 -0.2166 -0.9451
vn -0.3160 -0.1091 -0.9425
vn -0.8315 -0.5556 0.0000
vn 0.0020 -0.0016 1.0000
vn -0.0067 0.0008 1.0000
vn -0.5556 -0.8315 0.0000
vn 0.0064 0.0011 1.0000
vn -0.1951 -0.9808 0.0000
vn 0.0017 -0.0143 0.9999
vn 0.0000 -1.0000 0.0000
vn -0.0017 -0.0143 0.9999
vn 0.1951 -0.9808 0.0000
vn -0.0064 0.0011 1.0000
vn 0.5556 -0.8315 0.0000
vn -0.0020 -0.0016 1.0000
vn 0.8315 -0.5556 0.0000
vn 0.0067 0.0008 1.0000
vn 0.9808 -0.1951 0.0000
vn 0.0501 0.0015 0.9987
vn 1.0000 -0.0000 0.0000
vn 0.0501 -0.0015 0.9987
vn 0.9808 0.1951 0.0000
vn 0.0067 -0.0008 1.0000
vn 0.8315 0.5556 0.0000
vn -0.0020 0.0016 1.0000
vn 0.5556 0.8315 0.0000
vn -0.0064 -0.0011 1.0000
vn 0.1951 0.9808 0.0000
vn -0.0017 0.0143 0.9999
vn 0.0000 1.0000 0.0000
vn 0.0017 0.0143 0.9999
vn -0.1951 0.9808 0.0000
vn 0.0064 -0.0011 1.0000
vn -0.5556 0.8315 0.0000
vn 0.0020 0.0016 1.0000
vn -0.8315 0.5556 0.0000
vn -0.0067 -0.0008 1.0000
vn -0.9808 0.1951 0.0000
vn -0.0501 -0.0015 0.9987
vn -1.0000 -0.0000 0.0000
vn -0.0501 0.0015 0.9987
vn -0.9808 -0.1951 0.0000
vn 0.0902 0.0930 0.9916
vn 0.1399 0.0552 0.9886
vn 0.0443 0.1188 0.9919
vn 0.0029 0.1356 0.9908
vn -0.0029 0.1356 0.9908
vn -0.0443 0.1188 0.9919
vn -0.0902 0.0930 0.9916
vn -0.1399 0.0552 0.9886
vn -0.1940 0.0023 0.9810
vn -0.1940 -0.0023 0.9810
vn -0.1399 -0.0552 0.9886
vn -0.0902 -0.0930 0.9916
vn -0.0443 -0.1188 0.9919
vn -0.0029 -0.1356 0.9908
vn 0.0029 -0.1356 0.9908
vn 0.0443 -0.1188 0.9919
vn 0.0902 -0.0930 0.9916
vn 0.1399 -0.0552 0.9886
vn 0.1940 -0.0023 0.9810
vn 0.1940 0.0023 0.9810
usemtl initialShadingGroup.006
s off
f 1/1/1 2/2/1 3/3/1 4/4/1 5/5/1 6/6/1 7/7/1 8/8/1 9/9/1 10/10/1 11/11/1 12/12/1 13/13/1 14/14/1 15/15/1 16/16/1 17/17/1 18/18/1 19/19/1 20/20/1
f 75/21/2 73/22/2 101/23/2 102/24/2
f 73/22/2 71/25/2 103/26/2 101/23/2
f 71/25/2 48/27/2 104/28/2 103/26/2
f 48/27/2 47/29/2 105/30/2 104/28/2
f 47/29/2 69/31/2 106/32/2 105/30/2
f 69/31/2 67/33/2 107/34/2 106/32/2
f 67/33/2 65/35/2 108/36/2 107/34/2
f 65/35/2 51/37/2 109/38/2 108/36/2
f 51/37/2 52/39/2 110/40/2 109/38/2
f 52/39/2 54/41/2 111/42/2 110/40/2
f 54/41/2 56/43/2 112/44/2 111/42/2
f 56/43/2 58/45/2 113/46/2 112/44/2
f 58/45/2 45/47/2 114/48/2 113/46/2
f 45/47/2 46/49/2 115/50/2 114/48/2
f 46/49/2 60/51/2 116/52/2 115/50/2
f 60/51/2 62/53/2 117/54/2 116/52/2
f 62/53/2 64/55/2 118/56/2 117/54/2
f 64/55/2 49/57/2 119/58/2 118/56/2
f 49/57/2 50/59/2 120/60/2 119/58/2
f 50/59/2 75/21/2 102/24/2 120/60/2
s 2
f 21/61/3 22/62/4 23/63/5 24/64/6
f 28/65/7 31/66/8 32/67/9 29/68/10
f 34/69/11 37/70/12 38/71/13 35/72/14
f 39/73/15 40/74/16 41/75/17 42/76/18
f 45/77/19 21/61/3 24/64/6 46/78/20
f 37/70/12 47/79/21 48/80/22 38/71/13
f 49/81/23 39/73/15 42/76/18 50/82/24
f 51/83/25 32/67/9 31/66/8 52/84/26
f 31/66/8 53/85/27 54/86/28 52/84/26
f 53/85/27 55/87/29 56/88/30 54/86/28
f 55/87/29 57/89/31 58/90/32 56/88/30
f 57/89/31 21/61/3 45/77/19 58/90/32
f 24/64/6 59/91/33 60/92/34 46/78/20
f 59/91/33 61/93/35 62/94/36 60/92/34
f 61/95/35 63/96/37 64/97/38 62/98/36
f 63/96/37 39/73/15 49/81/23 64/97/38
f 51/83/25 65/99/39 66/100/40 32/67/9
f 65/99/39 67/101/41 68/102/42 66/100/40
f 67/101/41 69/103/43 70/104/44 68/102/42
f 69/103/43 47/79/21 37/70/12 70/104/44
f 48/80/22 71/105/45 72/106/46 38/71/13
f 71/105/45 73/107/47 74/108/48 72/106/46
f 73/107/47 75/109/49 76/110/50 74/108/48
f 75/109/49 50/82/24 42/76/18 76/110/50
f 24/64/6 23/63/5 89/111/51 59/91/33
f 31/66/8 28/65/7 90/112/52 53/85/27
f 29/68/10 32/67/9 66/100/40 91/113/53
f 35/72/14 38/71/13 72/106/46 92/114/54
f 53/85/27 90/112/52 93/115/55 55/87/29
f 55/87/29 93/115/55 94/116/56 57/89/31
f 22/62/4 21/61/3 57/89/31 94/116/56
f 59/91/33 89/111/51 95/117/57 61/93/35
f 61/95/35 95/118/57 96/119/58 63/96/37
f 40/74/16 39/73/15 63/96/37 96/119/58
f 91/113/53 66/100/40 68/102/42 97/120/59
f 97/120/59 68/102/42 70/104/44 98/121/60
f 37/70/12 34/69/11 98/121/60 70/104/44
f 92/114/54 72/106/46 74/108/48 99/122/61
f 99/122/61 74/108/48 76/110/50 100/123/62
f 42/76/18 41/75/17 100/123/62 76/110/50
s 3
f 22/62/63 25/124/64 26/125/65 23/63/66
f 27/126/67 28/65/68 29/68/69 30/127/70
f 33/128/71 34/69/72 35/72/73 36/129/74
f 40/74/75 43/130/76 44/131/77 41/75/78
f 44/132/77 43/133/76 77/134/79 78/135/80 79/136/81 26/137/65 25/138/64 80/139/82 81/140/83 82/141/84 27/142/67 30/143/70 83/144/85 84/145/86 85/146/87 33/147/71 36/148/74 86/149/88 87/150/89 88/151/90
f 23/63/66 26/125/65 79/152/81 89/111/91
f 28/65/68 27/126/67 82/153/84 90/112/92
f 30/127/70 29/68/69 91/113/93 83/154/85
f 36/129/74 35/72/73 92/114/94 86/155/88
f 90/112/92 82/153/84 81/156/83 93/115/95
f 93/115/95 81/156/83 80/157/82 94/116/96
f 25/124/64 22/62/63 94/116/96 80/157/82
f 89/111/91 79/152/81 78/158/80 95/117/97
f 95/118/97 78/159/80 77/160/79 96/119/98
f 43/130/76 40/74/75 96/119/98 77/160/79
f 83/154/85 91/113/93 97/120/99 84/161/86
f 84/161/86 97/120/99 98/121/100 85/162/87
f 34/69/72 33/128/71 85/162/87 98/121/100
f 86/155/88 92/114/94 99/122/101 87/163/89
f 87/163/89 99/122/101 100/123/102 88/164/90
f 41/75/78 44/131/77 88/164/90 100/123/102
s 24
f 102/24/103 101/23/103 121/165/104 122/166/105
f 101/23/106 103/26/106 123/167/107 121/165/104
f 103/26/108 104/28/108 124/168/109 123/167/107
f 104/28/110 105/30/110 125/169/111 124/168/109
f 105/30/112 106/32/112 126/170/113 125/169/111
f 106/32/114 107/34/114 127/171/115 126/170/113
f 107/34/116 108/36/116 128/172/117 127/171/115
f 108/36/118 109/38/118 129/173/119 128/172/117
f 109/38/120 110/40/120 130/174/121 129/173/119
f 110/40/122 111/42/122 131/175/123 130/174/121
f 111/42/124 112/44/124 132/176/125 131/175/123
f 112/44/126 113/46/126 133/177/127 132/176/125
f 113/46/128 114/48/128 134/178/129 133/177/127
f 114/48/130 115/50/130 135/179/131 134/178/129
f 115/50/132 116/52/132 136/180/133 135/179/131
f 116/52/134 117/54/134 137/181/135 136/180/133
f 117/54/136 118/56/136 138/182/137 137/181/135
f 118/56/138 119/58/138 139/183/139 138/182/137
f 119/58/140 120/60/140 140/184/141 139/183/139
f 120/60/142 102/24/142 122/166/105 140/184/141
f 122/185/105 121/186/104 2/2/143 1/1/144
f 121/186/104 123/187/107 3/3/145 2/2/143
f 123/187/107 124/188/109 4/4/146 3/3/145
f 124/188/109 125/189/111 5/5/147 4/4/146
f 125/189/111 126/190/113 6/6/148 5/5/147
f 126/190/113 127/191/115 7/7/149 6/6/148
f 127/191/115 128/192/117 8/8/150 7/7/149
f 128/192/117 129/193/119 9/9/151 8/8/150
f 129/193/119 130/194/121 10/10/152 9/9/151
f 130/194/121 131/195/123 11/11/153 10/10/152
f 131/195/123 132/196/125 12/12/154 11/11/153
f 132/196/125 133/197/127 13/13/155 12/12/154
f 133/197/127 134/198/129 14/14/156 13/13/155
f 134/198/129 135/199/131 15/15/157 14/14/156
f 135/199/131 136/200/133 16/16/158 15/15/157
f 136/200/133 137/201/135 17/17/159 16/16/158
f 137/201/135 138/202/137 18/18/160 17/17/159
f 138/202/137 139/203/139 19/19/161 18/18/160
f 139/203/139 140/204/141 20/20/162 19/19/161
f 140/204/141 122/185/105 1/1/144 20/20/162
