# This file uses centimeters as units for non-parametric coordinates.

mtllib Cereales.mtl
g default
v -7.700444 4.708335 -4.656117
v -7.814586 4.661056 -4.629977
v -7.861865 4.546913 -4.619149
v -7.861865 4.546913 -9.361214
v -7.814586 4.661056 -9.350387
v -7.700444 4.708335 -9.324246
v -7.603214 4.546913 -4.321352
v -7.593810 4.661056 -4.375787
v -7.571106 4.708335 -4.507204
v -5.565859 4.708335 -4.507204
v -5.543155 4.661056 -4.375787
v -5.533750 4.546913 -4.321352
v -5.275100 4.546913 -4.619149
v -5.322379 4.661056 -4.629977
v -5.436521 4.708335 -4.656117
v -5.436521 4.708335 -9.324246
v -5.322379 4.661056 -9.350387
v -5.275100 4.546913 -9.361214
v -7.571106 4.708335 -9.473160
v -7.593810 4.661056 -9.604576
v -7.603214 4.546913 -9.659010
v -5.533750 4.546913 -9.659010
v -5.543155 4.661056 -9.604576
v -5.565859 4.708335 -9.473160
v -7.662562 4.708335 -4.550818
v -7.749922 4.661056 -4.450237
v -7.786108 4.546913 -4.408574
v -5.474403 4.708335 -4.550818
v -5.387042 4.661056 -4.450237
v -5.350857 4.546913 -4.408574
v -7.786108 4.546913 -9.571787
v -7.749922 4.661056 -9.530125
v -7.662562 4.708335 -9.429541
v -5.350857 4.546913 -9.571787
v -5.387042 4.661056 -9.530125
v -5.474403 4.708335 -9.429541
v -7.583949 -3.619642 -4.432864
v -7.597572 -3.591274 -4.354013
v -7.603214 -3.522789 -4.321352
v -5.553015 -3.619642 -4.432864
v -5.539393 -3.591274 -4.354013
v -5.533750 -3.522789 -4.321352
v -7.765013 -3.619642 -4.641330
v -7.833498 -3.591274 -4.625646
v -7.861865 -3.522789 -4.619149
v -7.765013 -3.619642 -9.339033
v -7.833498 -3.591274 -9.354717
v -7.861865 -3.522789 -9.361214
v -7.583949 -3.619642 -9.547500
v -7.597572 -3.591274 -9.626348
v -7.603214 -3.522789 -9.659010
v -5.553016 -3.619642 -9.547500
v -5.539393 -3.591274 -9.626348
v -5.533750 -3.522789 -9.659010
v -5.371952 -3.619642 -4.641330
v -5.303467 -3.591274 -4.625646
v -5.275100 -3.522789 -4.619149
v -5.371952 -3.619642 -9.339033
v -5.303467 -3.591274 -9.354717
v -5.275100 -3.522789 -9.361214
v -7.711980 -3.619642 -4.493920
v -7.764397 -3.591274 -4.433571
v -7.786108 -3.522789 -4.408574
v -5.424984 -3.619642 -4.493920
v -5.372568 -3.591274 -4.433571
v -5.350857 -3.522789 -4.408574
v -7.711980 -3.619642 -9.486442
v -7.764397 -3.591274 -9.546791
v -7.786108 -3.522789 -9.571787
v -5.424984 -3.619642 -9.486442
v -5.372568 -3.591274 -9.546791
v -5.350857 -3.522789 -9.571787
v -5.723136 4.525775 -5.713527
v -5.873868 4.525775 -5.909420
v -6.086404 4.525775 -6.002224
v -6.312054 4.525775 -5.970677
v -6.499125 4.525775 -5.822008
v -6.604760 4.525775 -5.590277
v -6.604760 4.525775 -5.328569
v -6.499125 4.525775 -5.096838
v -6.312055 4.525775 -4.948169
v -6.086405 4.525775 -4.916623
v -5.873869 4.525775 -5.009426
v -5.723136 4.525775 -5.205317
v -5.668738 4.525775 -5.459423
v -6.143649 4.525775 -5.459423
vt 0.806521 0.584450
vt 0.806463 0.593213
vt 0.209239 0.597426
vt 0.514190 0.584005
vt 0.498739 0.606168
vt 0.210997 0.606196
vt 0.507895 0.615343
vt 0.516667 0.613593
vt 0.981262 0.596303
vt 0.507945 0.757702
vt 0.834514 0.584549
vt 0.981946 0.587535
vt 0.498773 0.766883
vt 0.500526 0.775653
vt 0.311491 0.592182
vt 0.210925 0.766846
vt 0.020832 0.587602
vt 0.311278 0.583436
vt 0.486176 0.583927
vt 0.486203 0.592699
vt 0.192985 0.759432
vt 0.339301 0.583459
vt 0.201826 0.615371
vt 0.201757 0.757687
vt 0.204461 0.764145
vt 0.204526 0.608892
vt 0.505198 0.608876
vt 0.505246 0.764185
vt 0.820412 0.592949
vt 0.820527 0.584105
vt 0.197935 0.602299
vt 0.500192 0.583594
vt 0.009079 0.597055
vt 0.995971 0.588034
vt 0.197865 0.770738
vt 0.325297 0.583054
vt 0.182728 0.618226
vt 0.182697 0.907864
vt 0.178917 0.916923
vt 0.169846 0.920685
vt 0.025690 0.920681
vt 0.016617 0.916893
vt 0.012840 0.907831
vt 0.012870 0.618193
vt 0.016651 0.609134
vt 0.025722 0.605372
vt 0.169878 0.605376
vt 0.178950 0.609164
vt 0.835737 0.012811
vt 0.982040 0.010746
vt 0.487158 0.012612
vt 0.340248 0.012657
vt 0.017937 0.009682
vt 0.312180 0.012625
vt 0.515233 0.012612
vt 0.807637 0.012823
vt 0.821679 0.013138
vt 0.003906 0.009239
vt 0.501187 0.012912
vt 0.326204 0.012955
vt 0.024647 0.925940
vt 0.821647 0.007839
vt 0.170873 0.925949
vt 0.007578 0.908866
vt 0.515316 0.007355
vt 0.501196 0.007607
vt 0.024694 0.600108
vt 0.340320 0.007397
vt 0.326245 0.007655
vt 0.187957 0.908892
vt 0.994831 0.004951
vt 0.187990 0.617190
vt 0.209181 0.775608
vt 0.325362 0.591898
vt 0.193071 0.613602
vt 0.500185 0.592463
vt 0.021493 0.596348
vt 0.511836 0.770776
vt 0.834230 0.593257
vt 0.511791 0.602282
vt 0.339281 0.592174
vt 0.516702 0.759464
vt 0.514209 0.592737
vt 0.500479 0.597405
vt 0.312208 0.007381
vt 0.182930 0.605188
vt 0.487109 0.007372
vt 0.012675 0.605155
vt 0.981674 0.005502
vt 0.182892 0.920902
vt 0.807550 0.007576
vt 0.012638 0.920869
vt 0.018304 0.004422
vt 0.170921 0.600117
vt 0.007610 0.617165
vt 0.835667 0.007559
vt 0.996094 0.010281
vt 0.006783 0.588091
vt 0.005154 0.003906
vt 0.993673 0.597004
vn -0.999868 0.005490 0.015280
vn -0.923359 0.383712 0.013160
vn -0.923359 0.383712 -0.013160
vn -0.999868 0.005490 -0.015280
vn -0.381890 0.924199 0.004048
vn -0.012597 0.999921 0.000134
vn -0.012597 0.999921 -0.000134
vn -0.381890 0.924199 -0.004048
vn -0.000156 0.999984 0.005689
vn -0.009248 0.941425 0.337095
vn 0.009248 0.941425 0.337095
vn 0.000156 0.999984 0.005689
vn -0.032670 0.432419 0.901081
vn -0.038662 0.006305 0.999232
vn 0.038662 0.006305 0.999232
vn 0.032670 0.432419 0.901081
vn 0.012597 0.999921 0.000134
vn 0.381890 0.924199 0.004048
vn 0.381890 0.924199 -0.004048
vn 0.012597 0.999921 -0.000134
vn 0.923359 0.383712 0.013160
vn 0.999868 0.005490 0.015280
vn 0.999868 0.005490 -0.015280
vn 0.923359 0.383712 -0.013160
vn -0.038663 0.006305 -0.999232
vn -0.032670 0.432412 -0.901084
vn 0.032670 0.432412 -0.901084
vn 0.038663 0.006305 -0.999232
vn -0.009249 0.941425 -0.337095
vn -0.000156 0.999984 -0.005689
vn 0.000156 0.999984 -0.005689
vn 0.009249 0.941425 -0.337095
vn 0.000696 1.000000 -0.000605
vn -0.000696 1.000000 -0.000605
vn -0.000696 1.000000 0.000605
vn 0.000696 1.000000 0.000605
vn -0.254732 0.941361 0.221247
vn -0.940947 0.004919 0.338518
vn -0.866967 0.388696 0.311904
vn -0.866967 0.388694 -0.311907
vn -0.940946 0.004919 -0.338520
vn -0.254732 0.941361 -0.221248
vn 0.254732 0.941361 0.221248
vn 0.430447 0.005432 0.902600
vn 0.390182 0.422331 0.818166
vn 0.390188 0.422327 -0.818165
vn 0.430452 0.005432 -0.902597
vn 0.254732 0.941362 -0.221247
vn -0.390182 0.422330 0.818166
vn -0.430447 0.005432 0.902600
vn 0.866966 0.388696 0.311905
vn 0.940947 0.004919 0.338518
vn -0.430452 0.005432 -0.902597
vn -0.390188 0.422327 -0.818165
vn 0.940946 0.004919 -0.338520
vn 0.866967 0.388694 -0.311906
vn 0.007117 -0.999975 -0.000089
vn 0.007117 -0.999975 0.000089
vn 0.000458 -1.000000 0.000398
vn 0.000103 -0.999995 0.003221
vn -0.000103 -0.999995 0.003221
vn -0.000458 -1.000000 0.000398
vn -0.007117 -0.999975 0.000089
vn -0.007117 -0.999975 -0.000089
vn -0.000458 -1.000000 -0.000398
vn -0.000103 -0.999995 -0.003221
vn 0.000103 -0.999995 -0.003221
vn 0.000458 -1.000000 -0.000398
vn -0.038683 -0.003819 0.999244
vn 0.038683 -0.003819 0.999244
vn -0.038684 -0.003819 -0.999244
vn 0.038684 -0.003819 -0.999244
vn 0.999878 -0.003319 0.015289
vn 0.999878 -0.003319 -0.015289
vn -0.999878 -0.003319 -0.015289
vn -0.999878 -0.003319 0.015289
vn -0.940954 -0.003058 0.338521
vn -0.430451 -0.003377 0.902608
vn 0.430451 -0.003377 0.902608
vn 0.940954 -0.003058 0.338521
vn -0.940953 -0.003058 -0.338523
vn -0.430455 -0.003377 -0.902606
vn 0.430455 -0.003377 -0.902606
vn 0.940953 -0.003058 -0.338523
vn -0.010804 -0.941496 0.336851
vn -0.254731 -0.941362 0.221244
vn -0.033562 -0.432465 0.901026
vn -0.390179 -0.422326 0.818169
vn 0.033562 -0.432465 0.901026
vn 0.010804 -0.941496 0.336851
vn -0.381746 -0.924255 0.004774
vn -0.381746 -0.924255 -0.004774
vn -0.923340 -0.383745 0.013546
vn -0.923340 -0.383745 -0.013546
vn -0.254731 -0.941361 -0.221249
vn -0.866967 -0.388696 -0.311904
vn -0.010805 -0.941493 -0.336860
vn 0.010805 -0.941493 -0.336860
vn -0.033562 -0.432478 -0.901020
vn 0.033562 -0.432478 -0.901020
vn 0.254731 -0.941362 -0.221248
vn 0.390179 -0.422334 -0.818165
vn 0.381746 -0.924255 0.004774
vn 0.254731 -0.941362 0.221245
vn 0.923340 -0.383745 0.013546
vn 0.866968 -0.388695 0.311902
vn 0.923340 -0.383745 -0.013546
vn 0.381746 -0.924255 -0.004774
vn -0.866968 -0.388695 0.311902
vn 0.390179 -0.422326 0.818169
vn -0.390179 -0.422334 -0.818165
vn 0.866967 -0.388696 -0.311904
vn 0.000000 -1.000000 0.000000
vn 0.000000 -1.000000 0.000000
vn 0.000000 -1.000000 0.000000
vn 0.000000 -1.000000 0.000000
vn 0.000000 -1.000000 0.000001
vn 0.000000 -1.000000 0.000002
vn 0.000000 -1.000000 0.000001
vn 0.000000 -1.000000 0.000000
vn 0.000000 -1.000000 0.000000
vn 0.000000 -1.000000 -0.000000
vn 0.000000 -1.000000 -0.000000
vn 0.000000 -1.000000 0.000000
vn 0.000000 -1.000000 0.000000
vn 0.000000 -1.000000 0.000000
s 1
g pasted__pCube9 group
usemtl initialShadingGroup
f 3/1/1 2/2/2 5/83/3 4/4/4
s 2
f 2/84/5 1/5/6 6/6/7 5/3/8
f 9/7/9 8/8/10 11/82/11 10/10/12
s 4
f 8/79/13 7/11/14 12/12/15 11/9/16
s 2
f 15/13/17 14/14/18 17/73/19 16/16/20
s 6
f 14/77/21 13/17/22 18/18/23 17/15/24
s 7
f 21/19/25 20/20/26 23/81/27 22/22/28
s 2
f 20/75/29 19/23/30 24/24/31 23/21/32
f 36/25/33 24/24/31 19/23/30 33/26/34 6/6/7 1/5/6 25/27/35 9/7/9 10/10/12 28/28/36 15/13/17 16/16/20
f 1/5/6 2/84/5 26/80/37 25/27/35
s 1
f 2/2/2 3/1/1 27/30/38 26/29/39
f 4/4/4 5/83/3 32/76/40 31/32/41
s 2
f 5/3/8 6/6/7 33/26/34 32/31/42
f 10/10/12 11/82/11 29/78/43 28/28/36
s 4
f 11/9/16 12/12/15 30/34/44 29/100/45
s 7
f 22/22/28 23/81/27 35/74/46 34/36/47
s 2
f 23/21/32 24/24/31 36/25/33 35/35/48
s 4
f 7/11/14 8/79/13 26/29/49 27/30/50
s 2
f 8/8/10 9/7/9 25/27/35 26/80/37
s 6
f 13/17/22 14/77/21 29/33/51 30/98/52
s 2
f 14/14/18 15/13/17 28/28/36 29/78/43
f 19/23/30 20/75/29 32/31/42 33/26/34
s 7
f 20/20/26 21/19/25 31/32/53 32/76/54
s 2
f 16/16/20 17/73/19 35/35/48 36/25/33
s 6
f 17/15/24 18/18/23 34/36/55 35/74/56
s 9
f 58/37/57 55/38/58 64/39/59 40/40/60 37/41/61 61/42/62 43/43/63 46/44/64 67/45/65 49/46/66 52/47/67 70/48/68
s 4
f 7/11/14 39/49/69 42/50/70 12/12/15
s 7
f 51/51/71 21/19/25 22/22/28 54/52/72
s 6
f 13/17/22 57/53/73 60/54/74 18/18/23
s 1
f 4/4/4 48/55/75 45/56/76 3/1/1
f 45/56/76 63/57/77 27/30/38 3/1/1
s 4
f 63/57/78 39/49/69 7/11/14 27/30/50
f 42/50/70 66/97/79 30/34/44 12/12/15
s 6
f 66/58/80 57/53/73 13/17/22 30/98/52
s 1
f 4/4/4 31/32/41 69/59/81 48/55/75
s 7
f 31/32/53 21/19/25 51/51/71 69/59/82
f 22/22/28 34/36/47 72/60/83 54/52/72
s 6
f 34/36/55 18/18/23 60/54/74 72/60/84
s 9
f 37/41/61 38/61/85 62/92/86 61/42/62
s 4
f 38/96/87 39/49/69 63/57/78 62/62/88
f 39/49/69 38/96/87 41/89/89 42/50/70
s 9
f 38/61/85 37/41/61 40/40/60 41/63/90
f 43/43/63 44/64/91 47/95/92 46/44/64
s 1
f 44/91/93 45/56/76 48/55/75 47/65/94
s 9
f 46/44/64 47/95/92 68/88/95 67/45/65
s 1
f 47/65/94 48/55/75 69/59/81 68/66/96
s 9
f 49/46/66 50/67/97 53/94/98 52/47/67
s 7
f 50/87/99 51/51/71 54/52/72 53/68/100
s 9
f 52/47/67 53/94/98 71/86/101 70/48/68
s 7
f 53/68/100 54/52/72 72/60/83 71/69/102
s 9
f 55/38/58 56/70/103 65/90/104 64/39/59
s 6
f 56/93/105 57/53/73 66/58/80 65/99/106
f 57/53/73 56/93/105 59/85/107 60/54/74
s 9
f 56/70/103 55/38/58 58/37/57 59/72/108
s 1
f 45/56/76 44/91/93 62/62/109 63/57/77
s 9
f 44/64/91 43/43/63 61/42/62 62/92/86
s 4
f 42/50/70 41/89/89 65/71/110 66/97/79
s 9
f 41/63/90 40/40/60 64/39/59 65/90/104
s 7
f 51/51/71 50/87/99 68/66/111 69/59/82
s 9
f 50/67/97 49/46/66 67/45/65 68/88/95
s 6
f 60/54/74 59/85/107 71/69/112 72/60/84
s 9
f 59/72/108 58/37/57 70/48/68 71/86/101
s 10
f 74//113 73//114 86//115
f 75//116 74//113 86//115
f 76//117 75//116 86//115
f 77//118 76//117 86//115
f 78//119 77//118 86//115
f 79//120 78//119 86//115
f 80//121 79//120 86//115
f 81//122 80//121 86//115
f 82//123 81//122 86//115
f 83//124 82//123 86//115
f 84//125 83//124 86//115
f 85//126 84//125 86//115
f 73//114 85//126 86//115
