# 3ds Max Wavefront OBJ Exporter v0.97b - (c)2007 guruware
# File Created: 18.03.2020 02:26:56

#
# object Congelador_estrecho
#

v  -25.8482 -23.5214 17.5503
v  25.8482 -23.5214 17.5503
v  25.8482 -5.1867 17.5503
v  -25.8482 -5.1867 17.5503
v  -25.8482 -23.5214 12.5796
v  -25.8482 3.8768 16.2555
v  -25.8482 10.3507 12.3712
v  25.8482 3.8768 16.2555
v  25.8482 -23.5214 -17.5503
v  -25.8482 -23.5214 -17.5503
v  -25.8482 15.5298 -17.5503
v  25.8482 15.5298 -17.5503
v  -25.8482 15.5298 -14.3136
v  -25.8482 15.5298 -3.1662
v  -23.8482 15.5298 -3.1662
v  -23.8482 15.5298 -13.5503
v  -25.8482 14.2350 5.8972
v  -23.8482 14.2350 5.8972
v  -23.8482 10.3507 12.3712
v  -23.8482 5.5918 15.2265
v  23.8482 5.5918 15.2265
v  25.8482 10.3507 12.3712
v  23.8482 10.3507 12.3712
v  25.8482 14.2350 5.8972
v  23.8482 14.2350 5.8972
v  25.8482 15.5298 -3.1662
v  23.8482 15.5298 -3.1662
v  25.8482 15.5298 -14.3136
v  23.8482 15.5298 -13.5503
v  -23.8482 0.1689 -3.1662
v  -23.8482 0.1689 -13.5503
v  -23.8482 0.1672 5.8972
v  -23.8482 0.1621 12.3712
v  -23.8482 0.1560 15.2265
v  23.8482 0.1560 15.2265
v  23.8482 0.1621 12.3712
v  23.8482 0.1672 5.8972
v  23.8482 0.1689 -3.1662
v  23.8482 0.1689 -13.5503
v  -23.9734 15.5298 -13.5503
v  -23.9734 15.5298 -3.1662
v  23.8315 15.5298 -3.1662
v  23.8315 15.5298 -13.5503
v  -23.9734 14.2350 5.8972
v  23.8315 14.2350 5.8972
v  -23.9734 10.3507 12.3712
v  23.8315 10.3507 12.3712
v  -23.9734 5.5918 15.2265
v  23.8315 5.5918 15.2265
v  -25.8482 -23.5214 -15.5503
v  -25.8482 23.5214 -15.5503
v  25.8482 23.5214 -15.5503
v  25.8482 23.5214 -17.5503
v  -25.8482 23.5214 -17.5503
v  25.8482 -23.4996 12.3712
v  25.8482 -23.4101 5.8972
v  25.8482 -23.3802 -3.1662
v  25.8482 -23.3802 -14.3136
v  -25.8482 -23.5214 -3.2995
v  -25.8482 -23.5214 6.3257
# 60 vertices

vn -0.7071 0.0000 0.7071
vn 0.7062 0.0000 0.7081
vn 0.6915 0.0512 0.7206
vn -0.6915 0.0512 0.7206
vn -1.0000 0.0000 -0.0000
vn -0.6651 0.2498 0.7037
vn -0.6564 0.5335 0.5335
vn 0.6651 0.2498 0.7037
vn 0.6971 0.0000 -0.7170
vn -0.7071 0.0000 -0.7071
vn 0.7071 0.0000 -0.7071
vn -0.8860 0.3520 0.3017
vn -0.6915 0.7206 0.0512
vn 0.6915 0.7206 0.0512
vn 0.3015 0.9045 0.3015
vn -0.6651 0.7037 0.2498
vn 0.6651 0.7037 0.2498
vn 0.6564 0.5335 0.5335
vn 0.6008 0.5600 0.5705
vn -0.6008 0.5600 0.5705
vn 0.8860 0.3520 0.3017
vn -0.3015 0.9045 0.3015
vn 0.7071 0.7071 0.0001
vn 0.5774 0.5774 0.5774
vn 0.7072 0.7070 0.0003
vn 0.7073 0.7070 0.0010
vn 0.5772 0.5780 -0.5768
vn -0.5772 0.5780 -0.5768
vn -0.7073 0.7070 0.0010
vn -0.7072 0.7070 0.0003
vn -0.7071 0.7071 0.0001
vn -0.5774 0.5774 0.5774
vn 0.0000 1.0000 -0.0000
vn 0.0000 0.9975 0.0709
vn 0.0000 0.9424 0.3346
vn 0.0000 0.7071 0.7071
vn 0.0000 0.5145 0.8575
vn -0.5859 0.6153 0.5274
vn 0.5859 0.6153 0.5274
vn 0.5774 0.5774 -0.5774
vn -0.5774 0.5774 -0.5774
vn 1.0000 0.0000 -0.0000
# 42 vertex normals

vt 0.1908 0.0200 0.0000
vt 0.4423 0.0200 0.0000
vt 0.4423 0.1092 0.0000
vt 0.1908 0.1092 0.0000
vt 0.1666 0.0200 0.0000
vt 0.1845 0.1533 0.0000
vt 0.1656 0.1848 0.0000
vt 0.1908 0.1538 0.0000
vt 0.4423 0.1538 0.0000
vt 0.4423 0.6040 0.0000
vt 0.1907 0.6040 0.0000
vt 0.1907 0.4140 0.0000
vt 0.4423 0.4140 0.0000
vt 0.1907 0.3260 0.0000
vt 0.1907 0.2718 0.0000
vt 0.2005 0.2718 0.0000
vt 0.2005 0.3223 0.0000
vt 0.1907 0.2272 0.0000
vt 0.2005 0.2272 0.0000
vt 0.1907 0.1905 0.0000
vt 0.2005 0.1905 0.0000
vt 0.2005 0.1635 0.0000
vt 0.4326 0.1635 0.0000
vt 0.4422 0.1905 0.0000
vt 0.4325 0.1905 0.0000
vt 0.4422 0.2272 0.0000
vt 0.4325 0.2272 0.0000
vt 0.4422 0.2718 0.0000
vt 0.4325 0.2718 0.0000
vt 0.4423 0.3260 0.0000
vt 0.4325 0.3223 0.0000
vt 0.2692 0.2988 0.0000
vt 0.2484 0.2988 0.0000
vt 0.2484 0.2680 0.0000
vt 0.2692 0.2680 0.0000
vt 0.2302 0.2962 0.0000
vt 0.2302 0.2680 0.0000
vt 0.2173 0.2884 0.0000
vt 0.2173 0.2680 0.0000
vt 0.2115 0.2788 0.0000
vt 0.2115 0.2679 0.0000
vt 0.2692 0.1994 0.0000
vt 0.3648 0.1994 0.0000
vt 0.3648 0.2103 0.0000
vt 0.2692 0.2103 0.0000
vt 0.4225 0.2788 0.0000
vt 0.4168 0.2884 0.0000
vt 0.4168 0.2680 0.0000
vt 0.4225 0.2679 0.0000
vt 0.4038 0.2962 0.0000
vt 0.4038 0.2680 0.0000
vt 0.3857 0.2988 0.0000
vt 0.3857 0.2680 0.0000
vt 0.3648 0.2988 0.0000
vt 0.3648 0.2680 0.0000
vt 0.3648 0.2290 0.0000
vt 0.3648 0.2471 0.0000
vt 0.2692 0.2471 0.0000
vt 0.2692 0.2290 0.0000
vt 0.3648 0.2160 0.0000
vt 0.2692 0.2160 0.0000
vt 0.4209 0.6342 0.0000
vt 0.4914 0.6342 0.0000
vt 0.4914 0.9584 0.0000
vt 0.4209 0.9584 0.0000
vt 0.5534 0.6342 0.0000
vt 0.5534 0.9584 0.0000
vt 0.6046 0.6342 0.0000
vt 0.6046 0.9584 0.0000
vt 0.6423 0.6342 0.0000
vt 0.6423 0.9584 0.0000
vt 0.0297 0.0200 0.0000
vt 0.0357 0.2100 0.0000
vt 0.0200 0.2100 0.0000
vt 0.0200 0.0200 0.0000
vt 0.1907 0.3654 0.0000
vt 0.4423 0.3654 0.0000
vt 0.4423 0.3751 0.0000
vt 0.1907 0.3751 0.0000
vt 0.0297 0.2489 0.0000
vt 0.0200 0.2489 0.0000
vt 0.4675 0.1850 0.0000
vt 0.4486 0.1534 0.0000
vt 0.4675 0.0201 0.0000
vt 0.4991 0.2039 0.0000
vt 0.4991 0.0205 0.0000
vt 0.5432 0.2102 0.0000
vt 0.5432 0.0206 0.0000
vt 0.5975 0.2102 0.0000
vt 0.5975 0.0206 0.0000
vt 0.6133 0.0199 0.0000
vt 0.6133 0.2102 0.0000
vt 0.6036 0.2491 0.0000
vt 0.6133 0.2491 0.0000
vt 0.0900 0.2100 0.0000
vt 0.0893 0.0200 0.0000
vt 0.1341 0.2037 0.0000
vt 0.1362 0.0200 0.0000
# 98 texture coords

o Congelador_estrecho
g Congelador_estrecho
s 2
f 1/1/1 2/2/2 3/3/3 4/4/4 
s 4
f 5/5/5 1/1/1 4/4/4 6/6/6 7/7/7 
s 2
f 6/8/6 4/4/4 3/3/3 8/9/8 
s 8
f 9/10/9 10/11/10 11/12/10 12/13/11 
s 1
f 13/14/12 14/15/13 15/16/14 16/17/15 
f 14/15/13 17/18/16 18/19/17 15/16/14 
f 17/18/16 7/20/7 19/21/18 18/19/17 
f 7/20/7 6/8/6 20/22/19 19/21/18 
f 6/8/6 8/9/8 21/23/20 20/22/19 
f 8/9/8 22/24/18 23/25/7 21/23/20 
f 22/24/18 24/26/17 25/27/16 23/25/7 
f 24/26/17 26/28/14 27/29/13 25/27/16 
f 26/28/14 28/30/21 29/31/22 27/29/13 
f 28/30/21 13/14/12 16/17/15 29/31/22 
s off
f 16/32/15 15/33/14 30/34/23 31/35/24 
f 15/33/14 18/36/17 32/37/25 30/34/23 
f 18/36/17 19/38/18 33/39/26 32/37/25 
f 19/38/18 20/40/19 34/41/27 33/39/26 
f 20/42/19 21/43/20 35/44/28 34/45/27 
f 21/46/20 23/47/7 36/48/29 35/49/28 
f 23/47/7 25/50/16 37/51/30 36/48/29 
f 25/50/16 27/52/13 38/53/31 37/51/30 
f 27/52/13 29/54/22 39/55/32 38/53/31 
f 29/54/22 16/32/15 31/35/24 39/55/32 
s 1
f 37/56/30 38/57/31 30/58/23 32/59/25 
f 36/60/29 37/56/30 32/59/25 33/61/26 
s off
f 30/58/23 38/57/31 39/55/32 31/35/24 
f 34/45/27 35/44/28 36/60/29 33/61/26 
s 1
f 40/62/33 41/63/34 42/64/34 43/65/33 
f 41/63/34 44/66/35 45/67/35 42/64/34 
f 44/66/35 46/68/36 47/69/36 45/67/35 
f 46/68/36 48/70/37 49/71/37 47/69/36 
s off
f 50/72/5 13/73/12 11/74/10 10/75/10 
f 51/76/38 52/77/39 53/78/40 54/79/41 
f 12/13/11 11/12/10 54/79/41 53/78/40 
f 11/74/10 13/73/12 51/80/38 54/81/41 
f 13/14/12 28/30/21 52/77/39 51/76/38 
f 22/82/18 8/83/8 3/3/3 2/2/2 55/84/42 
f 24/85/17 22/82/18 55/84/42 56/86/42 
f 26/87/14 24/85/17 56/86/42 57/88/42 
f 28/89/21 26/87/14 57/88/42 58/90/42 
s 1
f 28/89/21 58/90/42 9/91/9 12/92/11 
s off
f 52/93/39 28/89/21 12/92/11 53/94/40 
s 4
f 14/95/13 13/73/12 50/72/5 59/96/5 
f 17/97/16 14/95/13 59/96/5 60/98/5 
f 7/7/7 17/97/16 60/98/5 5/5/5 
# 46 polygons

