# This file uses centimeters as units for non-parametric coordinates.

mtllib Queso.mtl
g default
v -1.779450 0.569185 0.016351
v 1.779460 0.569185 -3.542555
v 1.779460 -4.095390 -3.542555
v -1.779450 -4.095390 0.016351
v 1.917941 -4.276894 -3.681035
v -1.917928 -4.276894 0.154831
v -1.917928 0.750690 0.154831
v 1.917941 0.750690 -3.681035
v 1.875088 -4.276894 -3.723884
v -1.960776 -4.276894 0.111985
v -1.960776 0.750690 0.111985
v 1.875088 0.750690 -3.723884
v 1.675232 0.569185 -0.087877
v 1.779460 0.569185 -0.339504
v 1.423601 0.569185 0.016351
v 1.675232 -4.095390 -0.087877
v 1.423601 -4.095390 0.016351
v 1.779460 -4.095390 -0.339504
v 1.758549 -4.077935 -3.529965
v 1.502642 -3.683996 -3.201470
v -1.451564 -3.683855 -0.247264
v -1.779493 -4.084076 0.005691
v -1.447795 0.152322 -0.251032
v -1.779493 0.557871 0.005691
v 1.502642 0.157792 -3.201470
v 1.758549 0.551730 -3.529965
vt 0.018675 0.765890
vt 0.718336 0.467394
vt 0.398182 0.424440
vt 0.959852 0.742162
vt 0.664717 0.983657
vt 0.018738 0.366301
vt 0.423222 0.708913
vt 0.423224 0.742180
vt 0.996094 0.028192
vt 0.402343 0.028022
vt 0.995523 0.452272
vt 0.403231 0.452804
vt 0.992011 0.032917
vt 0.406630 0.032559
vt 0.991195 0.447769
vt 0.407277 0.448051
vt 0.691546 0.994769
vt 0.018734 0.395340
vt 0.431148 0.050090
vt 0.475826 0.082778
vt 0.476860 0.397758
vt 0.432298 0.430427
vt 0.969009 0.049757
vt 0.924686 0.082964
vt 0.968980 0.431059
vt 0.924081 0.397394
vt 0.413014 0.003971
vt 0.402343 0.723680
vt 0.980731 0.727396
vt 0.003906 0.786769
vt 0.018793 0.024789
vt 0.004031 0.003906
vt 0.691506 0.456284
vt 0.664678 0.467399
vt 0.018729 0.424379
vt 0.959849 0.708850
vt 0.980731 0.723613
vt 0.398186 0.395400
vt 0.398191 0.366361
vt 0.718375 0.983655
vt 0.398127 0.765951
vt 0.412889 0.786834
vt 0.398245 0.024850
vt 0.402343 0.727416
vn 0.000000 0.000000 1.000000
vn 0.030156 0.000000 0.999545
vn 0.030156 0.000000 0.999545
vn 0.000000 0.000000 1.000000
vn 0.999545 0.000000 0.030156
vn 0.999545 0.000000 0.030156
vn 1.000000 0.000000 0.000000
vn 1.000000 0.000000 0.000000
vn 0.707107 0.000004 0.707107
vn 0.707106 0.000004 0.707107
vn 0.707107 0.000004 0.707107
vn 0.707107 0.000004 0.707107
vn 0.707110 0.000000 0.707103
vn 0.707110 0.000000 0.707103
vn 0.707110 0.000000 0.707103
vn 0.707110 0.000000 0.707103
vn 0.707106 -0.000004 0.707107
vn 0.707107 -0.000004 0.707107
vn 0.707107 -0.000004 0.707107
vn 0.707107 -0.000004 0.707107
vn 0.707105 0.000000 0.707109
vn 0.707105 0.000000 0.707109
vn 0.707105 0.000000 0.707109
vn 0.707105 0.000000 0.707109
vn -0.000004 -1.000000 0.000000
vn -0.000004 -1.000000 0.000000
vn -0.000004 -1.000000 0.000000
vn -0.000004 -1.000000 0.000000
vn -0.707097 0.000000 0.707117
vn -0.707097 0.000000 0.707117
vn -0.707097 0.000000 0.707117
vn -0.707097 0.000000 0.707117
vn -0.000002 1.000000 0.000000
vn -0.000002 1.000000 0.000000
vn -0.000002 1.000000 0.000000
vn -0.000002 1.000000 0.000000
vn 0.707072 0.000000 -0.707141
vn 0.707072 0.000000 -0.707141
vn 0.707072 0.000000 -0.707141
vn 0.707072 0.000000 -0.707141
vn 0.923880 0.000000 0.382683
vn 0.923880 0.000000 0.382683
vn 0.382679 0.000000 0.923882
vn 0.382679 0.000000 0.923882
vn -0.000000 1.000000 0.000000
vn -0.000000 1.000000 0.000000
vn -0.000000 1.000000 0.000000
vn -0.000000 1.000000 0.000000
vn -0.000000 1.000000 0.000000
vn 0.000000 -1.000000 -0.000000
vn 0.000000 -1.000000 -0.000000
vn 0.000000 -1.000000 -0.000000
vn 0.000000 -1.000000 -0.000000
vn 0.000000 -1.000000 -0.000000
vn -0.770026 0.110462 -0.628377
vn -0.744123 0.071049 -0.664254
vn -0.743976 -0.070787 -0.664446
vn -0.769970 -0.110351 -0.628465
vn -0.627234 0.112405 -0.770677
vn -0.662569 0.070649 -0.745661
vn -0.627306 -0.112329 -0.770629
vn -0.662717 -0.070487 -0.745545
vn -0.707107 0.000000 -0.707107
vn -0.707107 0.000000 -0.707107
vn -0.707107 0.000000 -0.707107
vn -0.707107 0.000000 -0.707107
vn -0.801878 0.103803 -0.588402
vn -0.588647 0.112106 -0.800579
vn -0.588647 -0.112106 -0.800579
vn -0.801878 -0.103803 -0.588402
s 1
g pCube11
usemtl initialShadingGroup
f 4/1/1 17/35/2 15/3/3 1/41/4
s 2
f 14/39/5 18/6/6 3/31/7 2/43/8
s off
f 3/7/9 4/36/10 6/37/11 5/28/12
f 4/1/13 1/41/14 7/42/15 6/30/16
f 1/4/17 2/8/18 8/44/19 7/29/20
f 2/43/21 3/31/22 5/32/23 8/27/24
f 5/10/25 6/9/26 10/13/27 9/14/28
f 6/9/29 7/11/30 11/15/31 10/13/32
f 7/11/33 8/12/34 12/16/35 11/15/36
f 8/12/37 5/10/38 9/14/39 12/16/40
s 2
f 14/39/5 13/38/41 16/18/42 18/6/6
s 1
f 13/38/43 15/3/3 17/35/2 16/18/44
s off
f 13/17/45 14/5/46 2/8/47 1/4/48 15/40/49
f 16/33/50 17/2/51 4/36/52 3/7/53 18/34/54
s 3
f 19/19/55 20/20/56 25/21/57 26/22/58
f 20/20/56 19/19/55 22/23/59 21/24/60
f 21/24/60 22/23/59 24/25/61 23/26/62
f 23/26/62 24/25/61 26/22/58 25/21/57
s off
f 20/20/63 21/24/64 23/26/65 25/21/66
s 3
f 9/14/67 10/13/68 22/23/59 19/19/55
f 10/13/68 11/15/69 24/25/61 22/23/59
f 11/15/69 12/16/70 26/22/58 24/25/61
f 12/16/70 9/14/67 19/19/55 26/22/58
